<svg width="100" height="100" viewBox="0 0 100 100" fill="none" xmlns="http://www.w3.org/2000/svg">
<path d="M45.3125 7.81251C45.4556 7.84263 45.5987 7.87275 45.7462 7.90378C52.1931 9.29856 57.7882 12.649 62.5 17.1875C62.647 17.3222 62.7941 17.4569 62.9455 17.5957C65.2375 19.759 67.0426 22.4454 68.5547 25.1953C68.6208 25.3126 68.6869 25.4298 68.7549 25.5507C73.1781 33.471 73.8606 43.1454 71.4584 51.7952C71.2891 52.3438 71.2891 52.3438 71.0937 52.7344C71.208 52.7586 71.3223 52.7827 71.4401 52.8076C75.8257 53.8612 79.9249 56.3727 83.3984 59.1797C83.5183 59.2759 83.6381 59.3721 83.7616 59.4712C90.9797 65.3147 95.8057 74.1171 96.8422 83.3651C96.915 84.3072 96.9274 85.2493 96.936 86.1939C96.9445 86.5113 96.9445 86.5113 96.9532 86.8351C96.9548 87.0377 96.9565 87.2402 96.9582 87.4489C96.9624 87.7239 96.9624 87.7239 96.9668 88.0046C96.875 88.4766 96.875 88.4766 96.5341 88.7943C96.0384 89.0962 95.7801 89.1365 95.2056 89.1382C94.9398 89.1411 94.9398 89.1411 94.6687 89.1441C94.4758 89.1432 94.2829 89.1423 94.0842 89.1414C93.7778 89.1434 93.7778 89.1434 93.4652 89.1455C92.7893 89.1491 92.1134 89.1483 91.4375 89.1472C90.968 89.1481 90.4986 89.1491 90.0291 89.1503C89.0448 89.152 88.0605 89.1516 87.0762 89.1496C85.8143 89.1474 84.5525 89.1513 83.2906 89.157C82.3209 89.1606 81.3513 89.1606 80.3817 89.1595C79.9164 89.1594 79.4511 89.1606 78.9858 89.163C78.3354 89.1659 77.6852 89.1639 77.0348 89.1605C76.8423 89.1624 76.6498 89.1643 76.4515 89.1662C75.6064 89.1571 75.1289 89.1407 74.3937 88.6948C73.9564 88.2064 73.8861 87.9558 73.8426 87.3077C73.8281 87.1252 73.8137 86.9427 73.7987 86.7546C73.7883 86.5655 73.7778 86.3765 73.7671 86.1817C73.7529 85.9896 73.7386 85.7975 73.724 85.5995C73.6895 85.1264 73.6593 84.6533 73.6328 84.1797C72.5137 84.7835 71.4002 85.3969 70.2898 86.0166C69.9203 86.221 69.5494 86.4229 69.177 86.6222C66.4613 88.0084 66.4613 88.0084 64.8575 90.5007C64.4321 91.5486 63.591 92.018 62.6343 92.5415C60.9935 93.0699 59.5977 93.0958 58.0078 92.3828C56.7514 91.6743 55.8033 90.6759 55.3505 89.2853C55.0587 87.7024 55.1217 86.2152 55.9357 84.8091C56.7465 83.6893 57.7185 82.8934 59.0523 82.4967C59.6959 82.4038 60.289 82.462 60.9375 82.5073C62.75 82.5416 63.885 81.7519 65.3566 80.7715C66.2144 80.2115 67.1001 79.6975 67.9809 79.1748C68.317 78.9731 68.653 78.7712 68.9888 78.569C69.2026 78.4404 69.2026 78.4404 69.4207 78.3092C69.5721 78.218 69.5721 78.218 69.7266 78.125C67.2217 75.5451 64.217 74.4282 60.6773 74.2272C56.9176 74.1831 53.5873 75.6631 50.8301 78.1616C48.5381 80.6304 47.4169 83.5676 47.1192 86.8832C47.1011 87.0528 47.0829 87.2223 47.0642 87.397C47.051 87.5486 47.0378 87.7002 47.0241 87.8564C46.7936 88.5131 46.4934 88.6992 45.8984 89.0625C45.2204 89.1777 44.55 89.1672 43.8636 89.1605C43.5567 89.1621 43.5567 89.1621 43.2435 89.1637C42.5677 89.1661 41.8921 89.1629 41.2163 89.1594C40.7466 89.1594 40.2769 89.1597 39.8073 89.1603C38.8233 89.1605 37.8394 89.1581 36.8554 89.1536C35.5933 89.1481 34.3312 89.1486 33.0691 89.1511C32.0995 89.1525 31.1299 89.151 30.1602 89.1485C29.6948 89.1476 29.2293 89.1476 28.7639 89.1483C28.114 89.1489 27.4641 89.1457 26.8142 89.1414C26.5249 89.1427 26.5249 89.1427 26.2297 89.1441C26.0525 89.1422 25.8754 89.1402 25.6929 89.1382C25.5393 89.1378 25.3857 89.1373 25.2275 89.1368C24.6927 89.0428 24.4198 88.8417 24.0234 88.4766C23.9254 88.0597 23.9254 88.0597 23.9265 87.574C23.9259 87.3934 23.9253 87.2127 23.9247 87.0266C23.9291 86.8323 23.9335 86.6381 23.938 86.438C23.9423 86.1359 23.9423 86.1359 23.9467 85.8277C24.0356 82.1367 24.6872 78.2074 26.1719 74.8047C26.0128 74.7553 26.0128 74.7553 25.8504 74.7048C17.6404 72.0728 10.747 65.5828 6.83593 58.0078C6.76719 57.8754 6.69846 57.743 6.62764 57.6066C4.50989 53.4717 3.11347 48.7258 3.08531 44.0575C3.08394 43.9049 3.08256 43.7524 3.08114 43.5953C3.03667 37.2334 3.03667 37.2334 3.71093 34.5703C3.75181 34.4058 3.79269 34.2413 3.83481 34.0718C5.06248 29.2506 7.04244 24.6179 10.1562 20.7031C10.2397 20.5976 10.3232 20.4921 10.4092 20.3834C16.1404 13.2167 24.2669 8.51138 33.3877 7.29295C33.5846 7.27104 33.7815 7.24914 33.9844 7.22657C34.2978 7.1907 34.2978 7.1907 34.6176 7.15409C38.1718 6.83351 41.8273 7.0516 45.3125 7.81251ZM29.4479 14.5836C27.5573 17.0697 24.414 21.59 24.414 24.8047C33.2954 26.7794 42.4858 26.7794 51.3672 24.8047C49.9749 19.5826 47.0935 13.9098 42.3393 11.0359C37.4198 8.37205 32.8437 10.5421 29.4479 14.5836ZM46.875 11.1328C47.0373 11.3529 47.2002 11.5725 47.3633 11.792C47.471 11.937 47.5788 12.082 47.6898 12.2315C47.9201 12.5306 48.1577 12.8242 48.4039 13.1104C51.0274 16.1818 52.6956 20.205 53.9062 24.0234C56.7287 23.5151 59.3769 22.1936 61.9141 20.8984C59.8724 16.4712 53.3502 13.3906 49.0234 11.7188C48.3128 11.4926 47.6028 11.2947 46.875 11.1328ZM15.4297 18.9453C15.1868 19.1836 15.1868 19.1836 14.9391 19.4267C14.5789 19.7844 14.2214 20.1442 13.8672 20.5078C14.4779 21.2001 15.1359 21.5771 15.9668 21.9483C16.0937 22.0061 16.2205 22.0639 16.3513 22.1234C17.3058 22.5512 18.273 22.9433 19.2505 23.3154C19.3782 23.3644 19.5059 23.4133 19.6375 23.4637C20.3791 23.738 21.0913 23.9196 21.875 24.0234C21.9533 23.7986 22.0316 23.5738 22.1123 23.3421C23.5261 19.3543 25.2655 15.8051 27.8839 12.4703C28.2306 12.0284 28.5715 11.5838 28.9062 11.1328C24.2563 11.1328 18.5565 15.8748 15.4297 18.9453ZM11.9141 22.8516C8.00815 28.1066 6.16109 34.1635 5.66405 40.625C10.1113 40.625 14.5586 40.625 19.1406 40.625C19.334 38.4336 19.5273 36.2422 19.7265 33.9844C20.1243 31.4914 20.5292 29.0208 21.0937 26.5625C20.8543 26.491 20.6149 26.4195 20.3682 26.3458C17.6194 25.4928 15.0823 24.34 12.5147 23.045C12.1548 22.8376 12.1548 22.8376 11.9141 22.8516ZM62.7289 23.3162C60.0989 24.6236 57.5021 25.722 54.6875 26.5625C54.7199 26.7142 54.7524 26.8659 54.7858 27.0222C55.5555 30.6721 56.0963 34.2708 56.3879 37.9904C56.4619 38.8695 56.5528 39.7472 56.6406 40.625C61.0879 40.625 65.5351 40.625 70.1172 40.625C69.8588 37.5992 69.8588 37.5992 69.2993 34.6558C69.2573 34.4876 69.2153 34.3195 69.172 34.1462C68.1287 30.1237 66.4033 26.169 63.8672 22.8516C63.4699 22.8516 63.0726 23.1428 62.7289 23.3162ZM23.6328 27.3438C23.0981 29.2265 22.7228 31.1106 22.4243 33.0444C22.3755 33.3571 22.3755 33.3571 22.3257 33.6761C21.9766 36.0136 21.875 38.2543 21.875 40.625C32.4453 40.625 43.0156 40.625 53.9062 40.625C53.9062 38.8367 53.8775 37.1506 53.6743 35.3882C53.6492 35.1651 53.624 34.9421 53.5981 34.7123C53.2584 30.9264 53.2584 30.9264 52.1484 27.3438C52.0108 27.3673 51.8732 27.3908 51.7314 27.415C50.1846 27.6765 48.6352 27.9135 47.0825 28.1372C46.8535 28.1711 46.6245 28.2049 46.3886 28.2398C43.6175 28.6392 40.8812 28.7575 38.0859 28.7598C37.9151 28.76 37.7442 28.7602 37.5681 28.7604C33.3073 28.7571 29.1491 28.3714 24.974 27.4941C24.2513 27.3247 24.2513 27.3247 23.6328 27.3438ZM5.66405 43.1641C5.89872 46.2789 5.89872 46.2789 6.48192 49.3408C6.52406 49.5084 6.5662 49.6759 6.60962 49.8486C7.66016 53.8733 9.36608 57.822 11.9141 61.1328C12.0111 61.0857 12.1082 61.0386 12.2082 60.9901C14.9081 59.684 17.5937 58.464 20.4697 57.5897C20.9319 57.464 20.9319 57.464 21.0937 57.0313C21.0387 56.628 21.0387 56.628 20.9198 56.1684C20.8781 55.9901 20.8364 55.8119 20.7934 55.6283C20.7245 55.3378 20.7245 55.3378 20.6543 55.0415C19.7817 51.1878 19.4317 47.294 19.1406 43.3594C16.2722 43.1349 13.4104 43.1414 10.5347 43.1519C10.0605 43.1528 9.58632 43.1537 9.11215 43.1545C7.96278 43.1567 6.81342 43.1599 5.66405 43.1641ZM21.875 43.3594C21.875 45.0748 21.9133 46.6964 22.1069 48.3887C22.1321 48.6128 22.1572 48.8368 22.1831 49.0677C22.4833 51.5816 22.8294 54.2304 23.6328 56.6406C23.7839 56.6131 23.935 56.5856 24.0908 56.5572C24.8005 56.4288 25.5106 56.3028 26.2207 56.1768C26.4581 56.1335 26.6955 56.0902 26.9401 56.0455C29.8917 55.5256 32.788 55.2345 35.7887 55.2834C36.1247 55.2886 36.1247 55.2886 36.4674 55.294C37.3909 55.31 38.3142 55.3279 39.2374 55.3551C42.1222 55.4355 44.1653 55.3668 46.6797 53.9063C47.365 53.6272 48.0621 53.3979 48.7671 53.1738C49.0272 53.089 49.0272 53.089 49.2925 53.0025C50.5573 52.5957 51.8261 52.2355 53.125 51.9531C53.6075 49.0523 53.9062 46.3206 53.9062 43.3594C43.3359 43.3594 32.7656 43.3594 21.875 43.3594ZM56.6406 43.3594C56.2265 47.3578 56.2265 47.3578 56.0547 51.3672C56.2511 51.3641 56.4475 51.3611 56.6499 51.3579C60.2126 51.3071 63.6898 51.2756 67.2111 51.8982C67.662 51.9657 68.0997 51.9752 68.5547 51.9531C69.3476 49.0599 69.885 46.3773 70.1172 43.3594C65.6699 43.3594 61.2226 43.3594 56.6406 43.3594ZM56.1272 54.0428C55.9391 54.0729 55.751 54.1031 55.5572 54.1341C55.3628 54.1677 55.1685 54.2013 54.9683 54.2359C54.7622 54.2714 54.5561 54.307 54.3438 54.3437C50.9101 54.9607 47.8974 56.1732 44.7265 57.6172C45.4773 59.1612 46.2803 60.6573 47.1557 62.1338C47.3965 62.5429 47.637 62.9521 47.8775 63.3614C48.0012 63.5716 48.1249 63.7819 48.2523 63.9985C48.7666 64.877 49.2743 65.7591 49.7816 66.6416C50.2658 67.4838 50.7519 68.3249 51.2383 69.1658C51.4434 69.5206 51.6481 69.8756 51.8523 70.2309C52.0958 70.6538 52.3414 71.0754 52.5879 71.4966C52.6556 71.6152 52.7232 71.7338 52.793 71.856C53.19 72.5334 53.19 72.5334 53.9062 72.8516C54.4049 72.716 54.8836 72.5683 55.3711 72.3999C56.642 71.9626 57.8321 71.7294 59.1797 71.4844C59.1797 65.6836 59.1797 59.8828 59.1797 53.9063C57.6246 53.8903 57.6246 53.8903 56.1272 54.0428ZM61.7187 53.9063C61.7187 59.707 61.7187 65.5078 61.7187 71.4844C62.9433 71.7422 64.168 72 65.4297 72.2656C65.9453 72.459 66.4609 72.6524 66.9922 72.8516C67.1855 72.8516 67.3789 72.8516 67.5781 72.8516C67.6809 72.6665 67.6809 72.6665 67.7857 72.4777C69.1621 70.0024 70.5543 67.5386 71.9873 65.0955C72.9294 63.4879 73.8569 61.8723 74.7803 60.2539C74.8855 60.0695 74.8855 60.0695 74.9928 59.8814C75.3861 59.1919 75.7791 58.5023 76.1719 57.8125C72.5479 54.8874 66.2469 53.9063 61.7187 53.9063ZM24.414 59.1797C25.2554 62.5132 26.9237 66.0822 29.1015 68.75C29.6426 68.0852 30.1577 67.4055 30.6656 66.7154C33.0445 63.4945 35.5447 60.6824 38.8275 58.355C38.9695 58.2404 39.1115 58.1258 39.2578 58.0078C39.2578 57.8789 39.2578 57.75 39.2578 57.6172C34.3155 57.481 29.2007 57.9078 24.414 59.1797ZM78.5156 59.1797C77.5971 60.5012 76.8012 61.8722 76.0254 63.2813C75.1749 64.8129 74.3166 66.3373 73.4221 67.8436C72.6266 69.185 71.8479 70.536 71.0693 71.8872C71.0025 72.0032 70.9356 72.1193 70.8667 72.2388C70.4865 72.8987 70.1064 73.5587 69.7266 74.2188C70.596 75.0952 70.596 75.0952 71.4844 75.9522C71.6092 76.0725 71.7341 76.1929 71.8628 76.3168C72.2496 76.6014 72.2496 76.6014 72.7058 76.5587C73.4609 76.2891 74.1102 75.8933 74.7925 75.4761C74.9387 75.3893 75.0849 75.3024 75.2355 75.213C75.9329 74.7986 76.6238 74.3769 77.3056 73.9372C78.7501 73.0254 79.9159 72.5493 81.6406 72.8516C81.8214 72.9289 82.0022 73.0063 82.1884 73.086C82.995 73.2879 83.2455 73.1237 83.9538 72.7097C84.1651 72.5886 84.3763 72.4675 84.594 72.3427C84.8117 72.2125 85.0295 72.0824 85.2539 71.9483C85.4717 71.8226 85.6895 71.697 85.9138 71.5675C86.9205 70.9832 87.903 70.3779 88.8672 69.7266C87.353 65.5215 82.7076 61.7836 79.1016 59.375C78.9082 59.3106 78.7148 59.2461 78.5156 59.1797ZM42.1875 59.1797C39.0969 61.2839 36.2586 63.6176 33.9844 66.6016C33.8207 66.811 33.6569 67.0202 33.493 67.2295C32.536 68.3651 32.536 68.3651 32.0312 69.7266C34.5932 71.243 37.1704 72.7324 39.7503 74.218C40.4459 74.6187 41.1413 75.0198 41.8365 75.4212C41.9515 75.4875 42.0664 75.5538 42.1848 75.6222C42.7365 75.9406 43.2882 76.2591 43.84 76.5775C44.2272 76.801 44.6147 77.0242 45.0023 77.2472C45.316 77.4283 45.629 77.6107 45.9409 77.7951C46.5611 78.191 46.5611 78.191 47.2656 78.3203C47.5084 78.0362 47.7381 77.741 47.9614 77.4414C48.6386 76.5702 49.3588 75.8475 50.1991 75.1351C50.5413 74.8428 50.8561 74.5387 51.1719 74.2188C49.7855 71.7486 48.3858 69.2872 46.9524 66.844C46.3289 65.7804 45.7114 64.7138 45.1019 63.6421C44.9686 63.4085 44.8354 63.1748 44.702 62.9412C44.4467 62.4938 44.193 62.0456 43.9401 61.5968C43.7667 61.2931 43.7667 61.2931 43.5898 60.9833C43.4885 60.8045 43.3873 60.6256 43.283 60.4414C42.9631 59.9523 42.6147 59.5764 42.1875 59.1797ZM19.519 60.5347C19.3473 60.5944 19.1755 60.654 18.9985 60.7155C17.2114 61.3573 15.5408 62.1946 13.8672 63.0859C15.7784 67.2532 21.7955 70.1414 25.7812 71.875C25.9607 71.9533 26.1403 72.0316 26.3252 72.1123C26.8202 72.2877 27.0535 72.2502 27.539 72.0703C27.7185 71.7434 27.7185 71.7434 27.7344 71.2891C27.4657 70.8511 27.1955 70.47 26.8799 70.0684C24.5962 66.9966 23.0844 63.5891 21.875 59.9609C21.0268 59.9609 20.315 60.2576 19.519 60.5347ZM30.4687 72.0703C28.0011 76.5441 26.9525 81.2582 26.5625 86.3281C32.4277 86.3281 38.293 86.3281 44.3359 86.3281C44.5293 85.2969 44.7226 84.2656 44.9219 83.2031C45.3491 81.958 45.3491 81.958 45.5528 81.453C45.7261 81.0647 45.7261 81.0647 45.7031 80.6641C45.5759 80.5907 45.4486 80.5173 45.3175 80.4416C45.1371 80.3375 44.9567 80.2334 44.7708 80.1262C44.5678 80.0091 44.3649 79.892 44.1558 79.7714C43.6998 79.5083 43.2439 79.2453 42.788 78.9822C41.6328 78.3157 40.4775 77.6493 39.3219 76.9837C38.9018 76.7415 38.4816 76.4994 38.0615 76.2573C37.8548 76.1383 37.6482 76.0193 37.4352 75.8968C36.3539 75.2734 35.275 74.6462 34.1995 74.0128C33.983 73.8855 33.7665 73.7583 33.5435 73.6271C33.1292 73.3833 32.7154 73.1388 32.302 72.8935C32.118 72.7852 31.934 72.677 31.7444 72.5655C31.5824 72.4696 31.4203 72.3737 31.2534 72.2748C30.8756 72.0403 30.8756 72.0403 30.4687 72.0703ZM88.9244 72.6906C88.8146 72.7542 88.7047 72.8179 88.5915 72.8834C88.2394 73.0877 87.888 73.2931 87.5366 73.4985C87.3021 73.6348 87.0674 73.771 86.8328 73.9071C86.208 74.27 85.5839 74.6339 84.9609 75C84.7791 75.1009 84.5973 75.2018 84.4099 75.3058C83.9413 75.5551 83.9413 75.5551 83.7952 76.0788C83.7609 76.2626 83.7267 76.4464 83.6914 76.6358C83.467 77.8334 82.8973 78.3825 81.9084 79.0657C81.7193 79.1783 81.5302 79.2908 81.3354 79.4067C81.1169 79.5379 80.8984 79.6691 80.6732 79.8042C80.5505 79.877 80.4277 79.9498 80.3013 80.0248C79.8159 80.3132 79.332 80.6041 78.8483 80.8952C77.8918 81.4706 76.9345 82.0443 75.9766 82.6172C76.0025 82.7705 76.0284 82.9239 76.0551 83.0818C76.0896 83.287 76.1241 83.4922 76.1597 83.7036C76.1936 83.9053 76.2276 84.107 76.2627 84.3147C76.371 84.9846 76.4665 85.6564 76.5625 86.3281C82.4277 86.3281 88.293 86.3281 94.3359 86.3281C93.8174 81.1426 92.9123 76.628 90.4297 72.0703C89.8267 72.0703 89.442 72.3894 88.9244 72.6906ZM79.3884 75.6905C79.1124 75.8528 79.1124 75.8528 78.8309 76.0184C78.6301 76.1376 78.4294 76.2567 78.2226 76.3794C77.7927 76.6326 77.3626 76.8856 76.9325 77.1385C76.8214 77.204 76.7102 77.2695 76.5957 77.337C75.4298 78.0232 74.2566 78.6965 73.0835 79.3701C70.8569 80.6511 68.6458 81.9569 66.4383 83.2703C66.2389 83.3875 66.0394 83.5048 65.8339 83.6256C65.4242 83.8708 65.0187 84.1232 64.6172 84.3817C63.2056 85.2697 62.5062 85.5048 60.865 85.2238C60.1293 85.1221 59.7928 85.1422 59.1232 85.4897C58.2893 86.1917 58.2893 86.1917 57.9162 87.1811C57.9057 88.0253 57.9005 88.6708 58.435 89.3555C59.0715 89.9212 59.4711 90.2274 60.3355 90.2397C61.2898 90.1699 61.7955 89.9415 62.5 89.2578C62.7318 88.7217 62.7318 88.7217 62.8906 88.1348C63.4533 86.7306 64.2555 86.2762 65.564 85.593C66.304 85.1974 67.0254 84.7701 67.7504 84.3478C68.4104 83.9638 69.072 83.5827 69.7342 83.2024C69.8469 83.1377 69.9595 83.073 70.0756 83.0063C70.6312 82.6872 71.187 82.3684 71.7428 82.0497C73.0053 81.3255 74.2663 80.5989 75.5249 79.8679C75.9717 79.6084 76.4187 79.3496 76.8661 79.0914C77.5521 78.6951 78.2353 78.2943 78.9184 77.8931C79.1301 77.7712 79.3417 77.6494 79.5597 77.5238C79.7532 77.4093 79.9467 77.2947 80.146 77.1767C80.3172 77.0767 80.4885 76.9767 80.6649 76.8736C81.0802 76.5933 81.0802 76.5933 81.2251 76.1549C81.2922 75.7601 81.2922 75.7601 80.9936 75.4395C80.3631 74.9724 79.9994 75.3288 79.3884 75.6905Z" fill="#0077B6"/>
</svg>
