<svg width="100" height="100" viewBox="0 0 100 100" fill="none" xmlns="http://www.w3.org/2000/svg">
<g clip-path="url(#clip0_374_749)">
<rect width="100" height="100" fill="#F5F5F5"/>
<path d="M44.8884 67.9373C45.1063 67.9363 45.3242 67.9353 45.5486 67.9343C46.2708 67.9313 46.993 67.9296 47.7152 67.9279C48.1032 67.9265 48.4912 67.9252 48.8792 67.9237C50.5678 67.9172 52.2563 67.913 53.9449 67.9094C54.3848 67.9084 54.8246 67.9075 55.2645 67.9065C58.0015 67.9004 60.7385 67.8952 63.4755 67.8919C64.1072 67.8912 64.7389 67.8904 65.3705 67.8896C65.5275 67.8894 65.6845 67.8892 65.8462 67.889C68.3936 67.8857 70.941 67.8776 73.4883 67.8677C76.1084 67.8576 78.7285 67.8519 81.3486 67.8505C82.8179 67.8496 84.2871 67.8467 85.7563 67.8388C87.0062 67.8321 88.256 67.8294 89.5059 67.8319C90.1431 67.833 90.78 67.8316 91.4172 67.8264C92.1089 67.821 92.8002 67.8228 93.492 67.8265C93.7918 67.8215 93.7917 67.8215 94.0976 67.8165C95.6931 67.8375 96.7061 68.388 97.8288 69.5074C99.0063 70.7838 99.1312 71.9944 99.0829 73.6976C98.9663 75.1015 98.465 75.8162 97.4365 76.7456C97.0582 77.0589 96.7281 77.3195 96.289 77.539C96.0998 78.2263 96.0635 78.895 96.0457 79.6051C96.0395 79.8141 96.0334 80.0232 96.0271 80.2386C96.0209 80.4596 96.0147 80.6805 96.0083 80.9082C95.8067 86.7386 95.8067 86.7386 94.7265 89.0625C94.6367 89.2624 94.5468 89.4623 94.4542 89.6682C93.5846 91.4411 92.3995 92.7522 91.0156 94.1406C91.2616 94.8308 91.5407 95.3199 92.0166 95.874C92.457 96.4462 92.577 96.6728 92.7002 97.4121C92.5781 98.0468 92.5781 98.0468 92.2729 98.5107C91.6219 98.9447 91.2144 99.0367 90.4297 99.0234C89.2748 98.5113 88.4753 97.4398 87.6953 96.4843C87.4966 96.541 87.4966 96.541 87.294 96.5988C87.1122 96.6496 86.9304 96.7005 86.7431 96.7529C86.5664 96.8027 86.3897 96.8526 86.2076 96.9039C84.6738 97.2901 83.2187 97.5208 81.636 97.5418C81.4497 97.5456 81.2634 97.5494 81.0714 97.5533C80.4555 97.5651 79.8396 97.5742 79.2236 97.583C78.7837 97.5903 78.3438 97.5976 77.9039 97.605C70.8495 97.7153 63.7923 97.712 56.7383 97.583C56.5486 97.58 56.3589 97.577 56.1635 97.5739C53.6082 97.5317 51.2281 97.4443 48.8281 96.4843C48.6347 96.4843 48.4414 96.4843 48.2422 96.4843C47.7812 97.0015 47.3779 97.5513 46.9627 98.1056C46.4435 98.6777 46.032 98.946 45.3125 99.2187C44.5077 99.1096 44.0981 99 43.5547 98.3886C43.308 97.7102 43.3764 97.3772 43.5547 96.6796C43.9155 96.0952 43.9155 96.0952 44.3481 95.5322C44.563 95.2489 44.563 95.2489 44.7822 94.96C44.8928 94.8185 45.0033 94.677 45.1172 94.5312C44.769 93.9123 44.4423 93.4352 43.9087 92.9687C41.1148 90.2457 40.0796 86.3184 40.0304 82.5357C40.031 82.3056 40.0316 82.0754 40.0322 81.8382C40.031 81.6037 40.0299 81.3691 40.0287 81.1275C40.0275 80.6438 40.0316 80.16 40.0409 79.6764C40.0639 78.4145 40.0639 78.4145 39.5073 77.3386C39.1108 77.0507 38.7043 76.8087 38.2812 76.5625C37.8792 76.091 37.8792 76.091 37.6098 75.6591C37.4712 75.4439 37.4712 75.4439 37.3298 75.2243C36.7305 74.0837 36.7495 72.6781 37.0041 71.4355C37.4442 70.1098 38.3663 68.9493 39.6186 68.3009C41.2397 67.773 43.1965 67.9393 44.8884 67.9373ZM40.4914 72.0473C40.2011 72.6248 40.2011 72.6248 40.2343 73.1689C40.4928 73.7826 40.6619 74.019 41.2109 74.414C41.9186 74.5348 42.6222 74.5201 43.3387 74.5145C43.5581 74.5159 43.7776 74.5173 44.0037 74.5186C44.7417 74.5222 45.4796 74.5202 46.2177 74.5182C46.7457 74.5192 47.2737 74.5213 47.8017 74.5233C49.0886 74.5275 50.3755 74.5275 51.6624 74.5259C52.7081 74.5247 53.7538 74.5249 54.7995 74.5262C55.0227 74.5264 55.0227 74.5264 55.2503 74.5267C55.5524 74.5271 55.8545 74.5274 56.1567 74.5278C58.991 74.531 61.8252 74.5293 64.6595 74.526C67.2538 74.5232 69.848 74.526 72.4422 74.5317C75.1049 74.5374 77.7675 74.5395 80.4301 74.5377C80.7311 74.5375 81.0322 74.5373 81.3332 74.5371C81.4813 74.537 81.6295 74.5369 81.7821 74.5368C82.8268 74.5364 83.8714 74.5383 84.9161 74.5411C86.1889 74.5446 87.4617 74.5446 88.7345 74.5401C89.3842 74.5379 90.0336 74.5378 90.6833 74.5409C91.387 74.544 92.0904 74.5412 92.7941 74.5367C93.1033 74.5402 93.1033 74.5402 93.4189 74.5437C94.5325 74.5447 94.5325 74.5447 95.4462 73.9623C95.797 73.2457 95.7188 72.8298 95.5078 72.0703C95.1926 71.6505 95.0257 71.5028 94.5043 71.4102C94.3412 71.4098 94.1781 71.4094 94.0101 71.409C93.8216 71.4071 93.6331 71.4052 93.439 71.4032C93.2315 71.4041 93.024 71.405 92.8102 71.406C92.5901 71.4047 92.37 71.4033 92.1433 71.402C91.4019 71.3982 90.6606 71.3987 89.9193 71.3992C89.3894 71.3978 88.8595 71.3955 88.3296 71.3933C87.0373 71.3884 85.7451 71.3868 84.4528 71.3864C83.4027 71.3862 82.3526 71.385 81.3025 71.3831C78.3269 71.3779 75.3513 71.3752 72.3756 71.3757C72.2152 71.3757 72.0547 71.3757 71.8893 71.3758C71.6483 71.3758 71.6483 71.3758 71.4024 71.3758C68.7974 71.3761 66.1925 71.3705 63.5875 71.3622C60.9142 71.3538 58.2411 71.3497 55.5678 71.3502C54.0664 71.3504 52.565 71.3488 51.0635 71.3425C49.7853 71.3372 48.5072 71.3359 47.229 71.3399C46.5765 71.3418 45.9243 71.3412 45.2719 71.3368C44.5651 71.3323 43.8588 71.3349 43.1521 71.3395C42.8415 71.3349 42.8415 71.3349 42.5246 71.3303C41.3649 71.3289 41.3649 71.3289 40.4914 72.0473ZM43.5547 77.9296C43.4028 85.2541 43.4028 85.2541 46.8872 91.0408C49.0229 93.0506 51.4826 94.0079 54.3904 94.0779C54.5836 94.0844 54.7769 94.0908 54.976 94.0975C57.3102 94.1681 59.6453 94.1688 61.9804 94.1665C62.462 94.1667 62.9435 94.1668 63.4251 94.1671C64.4268 94.1674 65.4285 94.167 66.4302 94.166C67.7002 94.1649 68.9701 94.1656 70.2401 94.1667C71.2323 94.1675 72.2245 94.1672 73.2167 94.1667C73.6844 94.1666 74.1521 94.1667 74.6197 94.1672C76.9764 94.169 79.3301 94.1492 81.6853 94.0611C81.8778 94.0546 82.0703 94.0481 82.2687 94.0413C85.4478 93.9062 87.7892 92.47 89.9521 90.1962C92.989 86.7129 92.3828 82.3766 92.3828 77.9296C76.2695 77.9296 60.1562 77.9296 43.5547 77.9296Z" fill="#0077B6"/>
<path d="M89.4409 9.00883C90.1417 9.20904 90.399 9.36809 90.8203 9.96098C91.0484 10.5584 91.0484 10.5584 91.0156 11.3282C90.5132 12.0287 89.8908 12.5897 89.2578 13.1714C88.9237 13.4881 88.59 13.8052 88.2568 14.1228C88.1073 14.2614 87.9577 14.4 87.8036 14.5428C87.4066 14.9377 87.0446 15.3347 86.6809 15.7589C85.9782 16.5652 85.2397 17.3262 84.482 18.0805C84.342 18.2207 84.2019 18.361 84.0576 18.5054C83.5923 18.9711 83.1262 19.4361 82.6602 19.9011C82.3248 20.2364 81.9894 20.5718 81.6541 20.9072C80.934 21.6274 80.2135 22.3473 79.4928 23.0669C78.4498 24.1084 77.4073 25.1504 76.3649 26.1925C74.6719 27.885 72.9785 29.5771 71.2848 31.269C69.6428 32.9092 68.001 34.5496 66.3595 36.1903C66.2583 36.2914 66.1571 36.3926 66.0529 36.4968C65.5451 37.0043 65.0373 37.5118 64.5295 38.0194C61.0312 41.516 57.5324 45.0123 54.0332 48.5081C53.8857 48.6554 53.7382 48.8028 53.5862 48.9546C53.3148 49.2257 53.0434 49.4968 52.7721 49.7679C51.605 50.9338 50.4388 52.1005 49.2729 53.2675C48.9601 53.5806 48.6473 53.8937 48.3345 54.2068C48.1679 54.3735 48.0013 54.5403 47.8296 54.7121C44.1106 58.4344 40.3912 62.1562 36.6714 65.8777C36.1216 66.4277 35.5718 66.9778 35.022 67.5278C34.9126 67.6373 34.8031 67.7468 34.6904 67.8596C32.9174 69.6335 31.1447 71.4077 29.3721 73.182C27.5503 75.0057 25.7281 76.829 23.9056 78.6519C22.7825 79.7752 21.6598 80.8988 20.5374 82.0228C19.6766 82.8847 18.8153 83.7462 17.9537 84.6074C17.6012 84.9601 17.2488 85.3129 16.8965 85.6658C16.4148 86.1486 15.9324 86.6307 15.4499 87.1127C15.3115 87.2517 15.1731 87.3906 15.0305 87.5338C14.262 88.3 13.4743 89.0313 12.6504 89.7376C12.4247 89.9345 12.204 90.1374 11.9896 90.3466C11.4842 90.8232 11.2286 91.0137 10.5224 91.0279C9.87505 90.7886 9.5864 90.5965 9.17967 90.0391C8.94774 89.502 8.94774 89.502 8.98436 88.8672C10.0819 87.2577 11.7373 85.906 13.1202 84.5401C13.4408 84.2231 13.7608 83.9054 14.0808 83.5877C14.1763 83.4938 14.2717 83.4 14.3701 83.3033C14.8669 82.8099 15.3366 82.3054 15.7885 81.7705C16.8829 80.5163 18.0768 79.3572 19.2542 78.1819C19.5258 77.9101 19.7974 77.6382 20.0689 77.3663C20.8128 76.6216 21.5574 75.8775 22.302 75.1335C23.1058 74.3301 23.9091 73.5261 24.7125 72.7222C26.2854 71.1484 27.8589 69.5751 29.4326 68.002C30.7116 66.7234 31.9904 65.4446 33.2691 64.1657C33.4512 63.9836 33.6332 63.8016 33.8207 63.614C34.0979 63.3368 34.375 63.0597 34.6521 62.7825C38.1131 59.3209 41.5748 55.8598 45.0367 52.3989C48.1108 49.3257 51.1844 46.252 54.2576 43.1779C57.7122 39.7222 61.1672 36.2669 64.6226 32.812C64.9911 32.4436 65.3596 32.0751 65.7281 31.7067C65.9095 31.5254 66.0908 31.3441 66.2776 31.1573C67.5548 29.8803 68.8319 28.6029 70.1088 27.3256C71.6651 25.7687 73.2217 24.2122 74.7788 22.6561C75.5732 21.8623 76.3674 21.0683 77.1611 20.2739C77.888 19.5465 78.6153 18.8194 79.343 18.0928C79.6059 17.8301 79.8687 17.5673 80.1312 17.3042C82.511 14.9205 82.511 14.9205 83.6818 13.9308C84.1665 13.5161 84.6082 13.0663 85.0563 12.6122C85.1481 12.5197 85.2398 12.4272 85.3344 12.3318C85.6214 12.0425 85.9077 11.7526 86.1938 11.4624C86.575 11.0761 86.9568 10.6904 87.339 10.3051C87.5895 10.0512 87.5895 10.0512 87.8451 9.79213C88.6973 8.97718 88.6973 8.97718 89.4409 9.00883Z" fill="#0077B6"/>
<path d="M21.6797 1.17183C22.2136 2.1508 22.348 2.96804 22.3228 4.08244C22.322 4.22357 22.3212 4.36469 22.3203 4.51009C22.3171 4.95585 22.3097 5.40142 22.3022 5.84712C22.2993 6.1514 22.2966 6.45569 22.2942 6.75998C22.2878 7.50149 22.2777 8.24288 22.2656 8.98433C22.5626 8.99974 22.5626 8.99974 22.8655 9.01546C28.2888 9.31415 35.1999 9.98549 39.0625 14.2578C39.9545 15.4636 40.4496 16.446 40.2344 17.9687C39.8926 18.5668 39.8926 18.5668 39.2578 18.9453C38.4696 19.0232 37.7032 19.0019 36.9141 18.9453C36.9186 19.0913 36.9231 19.2373 36.9278 19.3878C36.9313 19.5801 36.9348 19.7725 36.9385 19.9707C36.943 20.161 36.9475 20.3513 36.9522 20.5474C36.9134 21.1038 36.8205 21.4088 36.5234 21.875C36.0088 22.2752 35.72 22.2652 35.0586 22.2534C34.375 22.0703 34.375 22.0703 33.8989 21.7041C33.5937 21.0937 33.5937 21.0937 33.5937 18.9453C30.21 19.1386 30.21 19.1386 26.7578 19.3359C26.8867 19.5937 27.0156 19.8515 27.1484 20.1171C27.2072 20.7145 27.2072 20.7145 27.2095 21.3745C27.2127 21.5917 27.216 21.809 27.2194 22.0329C27.1413 22.7188 26.9725 23.0831 26.5625 23.6328C25.9495 23.9393 25.4807 23.8968 24.8047 23.8281C24.0702 23.3171 23.8624 22.9887 23.645 22.1191C23.5822 21.2279 23.7526 20.3788 24.0234 19.5312C24.0879 19.4667 24.1523 19.4023 24.2187 19.3359C20.835 19.1425 20.835 19.1425 17.3828 18.9453C17.3828 19.5898 17.3828 20.2343 17.3828 20.8984C17.0678 21.6184 16.8691 21.8268 16.2109 22.2656C15.6696 22.2983 15.1684 22.2222 14.6484 22.0703C14.1869 21.6236 14.0711 21.3147 13.8672 20.7031C13.8672 20.123 13.8672 19.5429 13.8672 18.9453C11.6113 19.0742 9.35546 19.2031 7.03124 19.3359C7.32128 20.0126 7.32128 20.0126 7.61718 20.7031C7.73407 21.7941 7.5336 22.4885 7.03124 23.4375C6.30457 23.9219 5.93789 23.9186 5.07812 23.8281C4.61621 23.4634 4.36321 23.1795 4.10155 22.6562C4.07753 22.2417 4.06727 21.8263 4.06493 21.4111C4.06216 21.188 4.05939 20.9649 4.05654 20.7351C4.09927 20.1485 4.18538 19.8282 4.49218 19.3359C3.99977 19.0897 3.61337 19.1056 3.06396 19.0795C2.39835 19.0175 1.94963 18.9438 1.33056 18.6767C0.753632 17.8412 0.849091 16.9966 0.976555 16.0156C1.70433 13.8322 3.74536 12.5954 5.68694 11.6027C9.74309 9.73213 14.3337 9.22217 18.75 8.98433C18.749 8.83378 18.7479 8.68324 18.7469 8.52814C18.7428 7.83792 18.7403 7.1477 18.7378 6.45747C18.7361 6.22068 18.7345 5.98389 18.7328 5.73993C18.7232 2.20089 18.7232 2.20089 19.3359 1.17183C20.1805 0.64097 20.7952 0.762362 21.6797 1.17183ZM6.24999 15.2343C6.24999 15.2988 6.24999 15.3632 6.24999 15.4296C15.8272 15.6659 25.3837 15.6659 34.9609 15.4296C31.2666 12.9667 26.3778 12.6312 22.0703 12.5C21.8684 12.4933 21.6666 12.4867 21.4586 12.4798C16.2382 12.3304 10.9715 12.8379 6.24999 15.2343Z" fill="#0077B6"/>
<path d="M87.8052 81.0547C88.0291 81.0789 88.0291 81.0789 88.2576 81.1035C88.8139 81.3002 88.9758 81.5166 89.2578 82.0313C89.5586 83.8304 89.1239 85.6666 88.1752 87.2086C87.8419 87.6585 87.4924 88.0683 87.1094 88.4766C86.9928 88.6012 86.8762 88.7258 86.7561 88.8542C85.2354 90.3244 83.1468 91.0838 81.0417 91.0599C80.4841 90.9946 80.1232 90.773 79.6875 90.4297C79.3819 89.8185 79.3561 89.1385 79.4922 88.4766C80.0634 87.7163 80.577 87.5721 81.4941 87.4146C83.0413 87.0871 84.0604 86.6321 85.022 85.3516C85.6004 84.4239 85.7932 83.4755 85.9696 82.4059C86.2557 81.4069 86.75 80.9119 87.8052 81.0547Z" fill="#0077B6"/>
<path d="M5.7251 32.9468C6.36568 32.9549 6.5851 32.9703 7.12891 33.3374C7.68505 34.1948 7.64838 35.1212 7.65381 36.1206C7.65658 36.352 7.65935 36.5834 7.6622 36.8217C7.60771 37.6428 7.43155 38.3302 7.00684 39.0381C6.397 39.404 5.75742 39.3838 5.07813 39.2578C4.49832 38.8267 4.33034 38.577 4.10156 37.8906C4.05292 37.3177 4.05641 36.7442 4.05274 36.1694C4.04871 36.0142 4.04468 35.859 4.04053 35.6991C4.03403 34.7163 4.15446 34.0606 4.6875 33.2031C4.99403 32.8966 5.30105 32.96 5.7251 32.9468Z" fill="#0077B6"/>
<path d="M25.4883 32.898C25.6353 32.8937 25.7823 32.8894 25.9338 32.885C26.3672 33.0078 26.3672 33.0078 26.8059 33.3687C27.3127 34.2797 27.2697 35.1072 27.2583 36.1328C27.263 36.3252 27.2676 36.5175 27.2724 36.7157C27.2705 37.6435 27.2585 38.1293 26.7029 38.8962C25.8956 39.446 25.5694 39.4102 24.6094 39.2578C24.0806 38.8242 23.857 38.472 23.7541 37.7926C23.7228 37.2007 23.7216 36.6156 23.7305 36.023C23.7274 35.8197 23.7244 35.6164 23.7213 35.4069C23.7223 35.2112 23.7233 35.0154 23.7244 34.8137C23.7252 34.6358 23.7261 34.4579 23.727 34.2747C23.9245 33.3263 24.5489 32.8964 25.4883 32.898Z" fill="#0077B6"/>
<path d="M16.6015 30.0782C17.1996 30.6447 17.4327 31.0705 17.4866 31.8779C17.4886 32.1854 17.4865 32.4929 17.4805 32.8003C17.4835 32.9538 17.4865 33.1072 17.4896 33.2653C17.4826 34.3052 17.302 34.9272 16.6015 35.7422C15.8758 36.0104 15.5296 35.9702 14.7949 35.73C14.1221 35.256 14.0694 34.9663 13.8672 34.1797C13.7588 32.8812 13.6865 31.4679 14.2578 30.2735C15.1199 29.6269 15.6494 29.5814 16.6015 30.0782Z" fill="#0077B6"/>
<path d="M35.9375 29.8828C36.5394 30.2932 36.8563 30.6135 37.0255 31.3332C37.1723 32.664 37.347 34.3036 36.5845 35.4615C36.0155 35.8151 35.6322 35.9238 34.961 35.9375C34.2717 35.6242 34.018 35.4021 33.5938 34.7657C33.5106 34.1581 33.5304 33.5472 33.5327 32.9346C33.5296 32.7684 33.5264 32.6023 33.5232 32.4311C33.5225 31.4861 33.5632 30.8438 34.1797 30.0782C34.7996 29.6236 35.2219 29.621 35.9375 29.8828Z" fill="#0077B6"/>
<path d="M16.4062 43.5547C16.9551 43.9997 17.158 44.2475 17.3828 44.9219C17.4604 45.8858 17.5111 46.771 17.1264 47.6685C16.6727 48.1895 16.3359 48.4185 15.6494 48.523C14.8347 48.4089 14.5731 48.0883 14.0625 47.461C13.7202 46.4342 13.7192 45.3646 14.1113 44.3482C14.4531 43.75 14.4531 43.75 14.8071 43.4571C15.4098 43.3193 15.8135 43.3818 16.4062 43.5547Z" fill="#0077B6"/>
<path d="M6.83597 48.6328C7.27531 48.9509 7.39748 49.1388 7.55618 49.6582C7.70192 50.9406 7.63165 51.7956 7.03128 52.9296C6.35002 53.3838 6.07397 53.3856 5.27347 53.3203C4.77901 53.1554 4.56371 53.0396 4.27936 52.6023C4.04911 52.0144 4.04274 51.5216 4.04056 50.8911C4.03728 50.6738 4.03401 50.4565 4.03064 50.2326C4.10893 49.5449 4.2766 49.184 4.68753 48.6328C5.49765 48.1292 5.98821 48.2457 6.83597 48.6328Z" fill="#0077B6"/>
<path d="M26.5625 48.6328C27.1464 49.3805 27.2236 49.9556 27.2095 50.8911C27.2087 51.1089 27.208 51.3267 27.2072 51.551C27.1503 52.1291 27.0808 52.4533 26.7578 52.9297C26.0253 53.418 25.6722 53.425 24.8047 53.3203C24.0841 52.7785 23.8523 52.4919 23.7053 51.5922C23.7045 51.3178 23.709 51.0433 23.7183 50.769C23.7161 50.6309 23.714 50.4928 23.7118 50.3506C23.7213 49.6747 23.7763 49.2869 24.189 48.7434C25.0577 48.1112 25.5961 48.2532 26.5625 48.6328Z" fill="#0077B6"/>
<path d="M36.1328 43.5547C36.7131 44.115 36.9007 44.4333 37.011 45.24C37.0072 45.4936 37.0034 45.7471 36.9995 46.0083C36.9993 46.2624 36.999 46.5164 36.9987 46.7781C36.9118 47.4794 36.8398 47.7655 36.3281 48.2422C35.8109 48.45 35.3196 48.4861 34.7656 48.4375C34.207 48.0929 33.8871 47.8524 33.5938 47.2657C33.5646 46.8554 33.5505 46.444 33.5449 46.0327C33.5399 45.8119 33.5349 45.5911 33.5297 45.3636C33.5999 44.6653 33.7668 44.3103 34.1797 43.75C34.8383 43.2504 35.3611 43.3136 36.1328 43.5547Z" fill="#0077B6"/>
</g>
<defs>
<clipPath id="clip0_374_749">
<rect width="100" height="100" fill="white"/>
</clipPath>
</defs>
</svg>
