<svg width="25" height="26" viewBox="0 0 25 26" fill="none" xmlns="http://www.w3.org/2000/svg">
<g clip-path="url(#clip0_331_212)">
<path d="M12.4847 0.484757C12.5555 0.48489 12.5555 0.48489 12.6278 0.485026C13.3277 0.487244 14.0086 0.512092 14.6972 0.6465C14.7629 0.65829 14.7629 0.65829 14.8299 0.670318C17.7504 1.19876 20.5587 2.86174 22.3632 5.23634C22.3836 5.26272 22.4039 5.28911 22.4249 5.31629C22.8001 5.80432 23.1293 6.31506 23.4375 6.84767C23.4567 6.88074 23.476 6.91381 23.4958 6.94788C24.1395 8.06695 24.5597 9.31572 24.8199 10.5769C24.8271 10.6116 24.8343 10.6463 24.8417 10.6821C24.9875 11.4459 25.0183 12.2093 25.0152 12.9848C25.0151 13.0556 25.0151 13.0556 25.0149 13.1279C25.0127 13.8277 24.9879 14.5087 24.8535 15.1973C24.8456 15.2411 24.8377 15.2849 24.8297 15.33C24.3012 18.2504 22.6382 21.0587 20.2636 22.8633C20.2372 22.8836 20.2109 22.904 20.1837 22.925C19.6956 23.3001 19.1849 23.6293 18.6523 23.9375C18.6192 23.9568 18.5862 23.976 18.5521 23.9959C17.433 24.6395 16.1842 25.0597 14.923 25.32C14.8883 25.3272 14.8536 25.3344 14.8179 25.3418C14.0541 25.4875 13.2906 25.5183 12.5152 25.5153C12.468 25.5152 12.4207 25.5151 12.3721 25.515C11.6722 25.5128 10.9913 25.4879 10.3027 25.3535C10.2589 25.3457 10.2151 25.3378 10.17 25.3297C7.24954 24.8013 4.44124 23.1383 2.63667 20.7637C2.61633 20.7373 2.59598 20.7109 2.57502 20.6837C2.19986 20.1957 1.87064 19.685 1.56245 19.1524C1.5432 19.1193 1.52395 19.0862 1.50411 19.0522C0.860447 17.9331 0.440257 16.6843 0.180008 15.4231C0.172809 15.3884 0.16561 15.3537 0.158193 15.318C0.0124232 14.5542 -0.0183469 13.7907 -0.0153045 13.0153C-0.0152155 12.968 -0.0151265 12.9208 -0.0150347 12.8721C-0.0128166 12.1723 0.0120314 11.4913 0.146439 10.8027C0.158229 10.737 0.158229 10.737 0.170257 10.67C0.698703 7.74961 2.36168 4.9413 4.73628 3.13673C4.76266 3.11639 4.78904 3.09604 4.81622 3.07508C5.30426 2.69992 5.815 2.3707 6.34761 2.06252C6.38068 2.04326 6.41375 2.02401 6.44782 2.00417C7.56689 1.36051 8.81566 0.940318 10.0769 0.680069C10.1116 0.67287 10.1463 0.665671 10.182 0.658254C10.9458 0.512484 11.7093 0.481714 12.4847 0.484757Z" fill="#2196F3"/>
<path d="M6.36703 5.96088C6.39849 5.96064 6.42995 5.9604 6.46236 5.96015C6.56637 5.95943 6.67037 5.9591 6.77438 5.95883C6.84681 5.95855 6.91925 5.95827 6.99169 5.95799C7.1436 5.95748 7.29551 5.95719 7.44742 5.95702C7.64165 5.95675 7.83587 5.95558 8.0301 5.95419C8.17977 5.95328 8.32944 5.95303 8.47912 5.95295C8.5507 5.9528 8.62228 5.95241 8.69385 5.95177C8.79424 5.95093 8.89458 5.95103 8.99497 5.95135C9.052 5.95117 9.10902 5.95099 9.16778 5.95081C9.37855 5.97468 9.54368 6.04475 9.69949 6.19019C9.85638 6.39536 9.91718 6.50339 9.93314 6.75877C9.9366 6.8107 9.94007 6.86262 9.94364 6.91612C9.94735 6.97208 9.95106 7.02804 9.95488 7.08569C10.041 8.23804 10.2282 9.30312 10.7302 10.3591C10.8637 10.6455 10.8872 10.8808 10.8399 11.1934C10.6244 11.7222 9.8143 11.9468 9.32622 12.1699C9.62527 12.8667 10.1269 13.4781 10.6446 14.0254C10.7029 14.0923 10.7608 14.1594 10.8185 14.2268C11.1522 14.6078 11.5172 14.9321 11.9141 15.2461C11.9635 15.286 12.0129 15.3259 12.0638 15.367C12.4487 15.674 12.8543 15.9294 13.2813 16.1738C13.3908 16.0368 13.4678 15.904 13.5386 15.7437C13.569 15.6769 13.569 15.6769 13.5999 15.6088C13.6417 15.5159 13.683 15.4228 13.7239 15.3295C13.8658 15.0198 13.9939 14.8165 14.3067 14.6602C14.7229 14.5786 15.0496 14.7322 15.4204 14.8977C15.7587 15.0484 16.0959 15.1556 16.4551 15.2461C16.5466 15.2716 16.5466 15.2716 16.6399 15.2976C17.2011 15.4514 17.7643 15.524 18.3451 15.5505C18.3824 15.5523 18.4196 15.554 18.4579 15.5558C18.5283 15.5588 18.5987 15.5611 18.6692 15.5627C18.9275 15.5725 19.1272 15.6306 19.3186 15.8093C19.4966 16.0421 19.5375 16.1441 19.5392 16.4362C19.5394 16.4682 19.5396 16.5001 19.5399 16.533C19.5406 16.6388 19.5409 16.7447 19.5412 16.8506C19.5415 16.9242 19.5418 16.9978 19.5421 17.0714C19.5426 17.2259 19.5429 17.3804 19.543 17.5349C19.5433 17.7324 19.5445 17.93 19.5459 18.1276C19.5468 18.2797 19.547 18.4318 19.5471 18.584C19.5472 18.6568 19.5476 18.7296 19.5483 18.8024C19.5491 18.9046 19.549 19.0067 19.5487 19.1088C19.5489 19.1668 19.5491 19.2249 19.5492 19.2847C19.5256 19.4963 19.4556 19.6606 19.3116 19.8186C19.1139 19.9725 18.9793 20.0374 18.7308 20.0377C18.6885 20.0378 18.6463 20.038 18.6028 20.0381C18.5577 20.0378 18.5126 20.0376 18.4662 20.0374C18.4196 20.0371 18.373 20.0369 18.3249 20.0366C16.4561 20.0209 14.6133 19.5373 12.9395 18.7129C12.9016 18.6945 12.8636 18.6761 12.8245 18.6571C11.9169 18.2132 11.0791 17.6492 10.3028 17.0039C10.2751 16.9812 10.2474 16.9584 10.2188 16.935C9.58308 16.4115 9.0051 15.8458 8.49614 15.1973C8.45024 15.1415 8.4042 15.0859 8.35805 15.0304C6.86053 13.2171 5.89316 10.9295 5.56645 8.60547C5.56143 8.57012 5.5564 8.53477 5.55122 8.49835C5.48659 8.02512 5.4585 7.55409 5.45354 7.07654C5.45268 7.02904 5.45182 6.98154 5.45093 6.9326C5.45122 6.63371 5.47854 6.41164 5.68852 6.18142C5.92429 5.99784 6.07247 5.96261 6.36703 5.96088Z" fill="#F9F9F9"/>
</g>
<defs>
<clipPath id="clip0_331_212">
<rect width="25" height="25" fill="white" transform="translate(0 0.5)"/>
</clipPath>
</defs>
</svg>
