<svg width="100" height="100" viewBox="0 0 100 100" fill="none" xmlns="http://www.w3.org/2000/svg">
<g clip-path="url(#clip0_374_769)">
<path d="M57.2266 54.2969C57.4229 54.3551 57.4229 54.3551 57.6232 54.4145C62.9473 56.0292 67.4359 59.5596 70.1623 64.4318C71.7046 67.3189 72.7826 70.5305 72.6563 73.8282C72.7892 73.8644 72.9222 73.9007 73.0591 73.938C74.2742 74.5326 75.1561 75.5581 75.6524 76.8128C76.0435 78.4235 76.0267 80.189 75.2343 81.6681C74.7247 82.4582 74.3 83.0791 73.4131 83.4771C72.8142 83.9173 72.8142 83.9173 72.7512 84.4794C72.7199 85.1141 72.7179 85.7416 72.7295 86.377C72.7504 88.1711 72.7069 89.4805 71.4913 90.8677C71.3642 90.9729 71.237 91.0781 71.106 91.1866C70.9794 91.2948 70.8527 91.4031 70.7223 91.5146C69.8065 92.1456 68.9694 92.2447 67.8796 92.2398C67.6622 92.2411 67.6622 92.2411 67.4405 92.2425C66.9559 92.2449 66.4714 92.2446 65.9868 92.2443C65.639 92.2455 65.2912 92.2468 64.9434 92.2483C63.9991 92.2517 63.0548 92.2526 62.1105 92.2529C61.5203 92.2532 60.9301 92.254 60.3399 92.255C58.2802 92.2586 56.2206 92.2602 54.1609 92.2599C52.2421 92.2597 50.3233 92.2638 48.4045 92.27C46.7563 92.2751 45.108 92.2772 43.4597 92.2769C42.4756 92.2768 41.4916 92.278 40.5076 92.2821C39.5818 92.2859 38.656 92.2859 37.7302 92.2831C37.391 92.2827 37.0519 92.2836 36.7127 92.2859C33.2561 92.3085 33.2561 92.3085 31.7887 91.0225C31.6834 90.8954 31.5782 90.7683 31.4698 90.6373C31.3615 90.5106 31.2533 90.384 31.1417 90.2535C30.5758 89.4322 30.4235 88.7414 30.4497 87.7518C30.4501 87.5408 30.4505 87.3299 30.4509 87.1125C30.4547 86.6724 30.4638 86.2324 30.4783 85.7926C30.4896 84.5717 30.4896 84.5717 29.8906 83.5583C29.4306 83.2007 29.4306 83.2007 28.951 82.9202C28.069 82.3064 27.6748 81.2664 27.3438 80.2735C27.1912 78.4752 27.1838 76.8792 28.3204 75.3907C28.8669 74.8149 29.428 74.2854 30.0782 73.8282C30.2071 73.8282 30.336 73.8282 30.4688 73.8282C30.4641 73.7101 30.4595 73.5921 30.4546 73.4705C30.4269 72.2227 30.5722 71.1069 30.8716 69.8975C30.9154 69.7196 30.9592 69.5417 31.0042 69.3584C32.0177 65.4332 34.0678 62.2298 36.9141 59.3751C37.047 59.2376 37.18 59.1001 37.3169 58.9585C42.3285 54.1231 50.6025 52.2976 57.2266 54.2969ZM37.6954 63.4766C35.3611 66.2759 34.1476 69.6571 33.7891 73.2422C45.5196 73.2422 57.2501 73.2422 69.336 73.2422C68.8526 68.4087 66.6411 64.0958 62.8907 60.9376C54.9162 54.6936 44.2998 56.0922 37.6954 63.4766ZM30.8838 77.4659C30.5356 78.201 30.5127 78.8917 30.6641 79.6876C30.9999 80.2869 31.4077 80.7429 32.0313 81.0547C32.5403 81.0755 33.0442 81.0845 33.5534 81.0848C33.7124 81.0857 33.8714 81.0865 34.0352 81.0874C34.5711 81.09 35.107 81.0912 35.6429 81.0924C36.0259 81.094 36.4089 81.0956 36.7919 81.0973C38.0523 81.1024 39.3127 81.1054 40.5732 81.1081C41.0066 81.1092 41.4401 81.1102 41.8736 81.1113C43.6764 81.1155 45.4792 81.1192 47.282 81.1214C49.8679 81.1246 52.4536 81.131 55.0395 81.1422C56.8564 81.1497 58.6734 81.1535 60.4903 81.1546C61.5761 81.1553 62.6618 81.1576 63.7476 81.164C64.7691 81.1698 65.7906 81.1711 66.8121 81.1688C67.187 81.1687 67.562 81.1704 67.9369 81.1738C68.4489 81.1782 68.9605 81.1766 69.4725 81.1735C69.6209 81.1762 69.7692 81.1789 69.922 81.1817C71.0483 81.1649 71.5055 80.8513 72.2657 80.0782C72.6041 79.4014 72.5532 78.6698 72.461 77.9297C71.9993 77.1261 71.5738 76.8331 70.7032 76.5626C70.1753 76.5258 69.6679 76.509 69.1403 76.5116C68.984 76.5109 68.8277 76.5101 68.6666 76.5094C68.1433 76.5074 67.6201 76.5081 67.0968 76.5089C66.7214 76.5081 66.346 76.507 65.9706 76.5059C64.9513 76.5033 63.932 76.5032 62.9127 76.5036C62.0618 76.5039 61.2109 76.5029 60.36 76.502C58.3528 76.4998 56.3456 76.4997 54.3384 76.5009C52.2674 76.5021 50.1964 76.4997 48.1254 76.4955C46.3474 76.4921 44.5694 76.4909 42.7914 76.4915C41.7294 76.4919 40.6675 76.4914 39.6055 76.4887C38.6069 76.4862 37.6084 76.4866 36.6098 76.4891C36.2434 76.4896 35.8769 76.4891 35.5105 76.4874C35.0102 76.4854 34.5099 76.487 34.0096 76.4895C33.7923 76.4873 33.7923 76.4873 33.5706 76.4851C32.4877 76.4964 31.7047 76.7545 30.8838 77.4659ZM33.5938 84.3751C33.3609 87.2526 33.3609 87.2526 34.1797 88.6719C34.7532 88.9587 35.2617 88.8938 35.9023 88.896C36.1101 88.8971 36.1101 88.8971 36.3221 88.8982C36.7888 88.9003 37.2554 88.9011 37.722 88.9018C38.0556 88.903 38.3892 88.9043 38.7228 88.9057C39.6308 88.9091 40.5387 88.9112 41.4467 88.9128C42.0135 88.9138 42.5804 88.915 43.1473 88.9162C44.9197 88.9199 46.6921 88.9227 48.4645 88.9243C50.5127 88.9262 52.5608 88.9314 54.609 88.9393C56.1907 88.9451 57.7724 88.948 59.3542 88.9487C60.2996 88.9492 61.2449 88.9509 62.1903 88.9558C63.0794 88.9603 63.9684 88.9612 64.8575 88.9592C65.1841 88.9591 65.5107 88.9603 65.8373 88.963C66.2827 88.9664 66.7278 88.9651 67.1732 88.9625C67.4226 88.963 67.672 88.9634 67.929 88.9639C68.6677 88.8498 68.8925 88.6764 69.336 88.086C69.7277 86.9109 69.5313 85.6137 69.5313 84.3751C57.6719 84.3751 45.8126 84.3751 33.5938 84.3751Z" fill="#0077B6"/>
<path d="M86.174 22.9432C86.4751 22.9426 86.7763 22.9419 87.0774 22.9409C87.7041 22.9398 88.3308 22.9414 88.9575 22.9451C89.7594 22.9495 90.5611 22.9469 91.363 22.9423C91.983 22.9395 92.6029 22.9404 93.2229 22.9424C93.5187 22.9429 93.8144 22.9423 94.1101 22.9404C94.5228 22.9385 94.9352 22.9415 95.3479 22.9458C95.6992 22.9468 95.6992 22.9468 96.0577 22.9477C96.801 23.0663 97.1276 23.3018 97.6563 23.8282C97.786 24.2615 97.786 24.2615 97.7783 24.7071C97.7809 24.8541 97.7834 25.0011 97.786 25.1526C97.5918 25.8014 97.238 25.9994 96.6797 26.3672C96.076 26.4633 96.076 26.4633 95.3924 26.4615C95.0071 26.4635 95.0071 26.4635 94.614 26.4655C94.4094 26.4638 94.4094 26.4638 94.2008 26.4621C93.7711 26.4587 93.3416 26.4602 92.912 26.463C91.8447 26.4687 90.7775 26.4662 89.7103 26.4639C88.8081 26.4623 87.9061 26.4639 87.004 26.4696C86.5829 26.471 86.162 26.4677 85.7409 26.4643C83.9696 26.4647 82.8045 26.621 81.4697 27.8687C80.3938 29.5459 80.5815 31.6791 80.542 33.606C80.5345 33.9085 80.5269 34.211 80.5191 34.5135C80.5005 35.2486 80.4841 35.9837 80.4688 36.7188C80.6762 36.7175 80.8836 36.7162 81.0972 36.7149C83.0542 36.703 85.0111 36.6942 86.9681 36.6884C87.9741 36.6854 88.9801 36.6812 89.9861 36.6746C90.9574 36.6682 91.9287 36.6647 92.9001 36.6632C93.2702 36.6621 93.6403 36.66 94.0104 36.6568C94.5298 36.6526 95.0491 36.652 95.5685 36.6523C95.7207 36.6502 95.8728 36.6481 96.0296 36.6459C97.2981 36.653 98.2015 36.9309 99.1821 37.7808C99.9548 38.686 100.062 39.3759 100.066 40.5503C100.068 40.7655 100.068 40.7655 100.07 40.9852C100.072 41.2882 100.072 41.5912 100.072 41.8943C100.073 42.3556 100.08 42.8165 100.088 43.2778C100.089 43.573 100.09 43.8683 100.09 44.1636C100.093 44.3003 100.096 44.4371 100.099 44.578C100.089 45.5648 99.8309 46.112 99.2188 46.875C98.6382 47.4121 98.2262 47.6879 97.461 47.8516C97.4466 48.1205 97.4466 48.1205 97.4319 48.3948C97.3054 50.5935 97.1002 52.7797 96.8763 54.9703C96.8367 55.3614 96.7972 55.7525 96.7578 56.1436C96.6515 57.196 96.5443 58.2482 96.4369 59.3005C96.3697 59.9588 96.3026 60.6171 96.2356 61.2754C96.0254 63.3379 95.8147 65.4005 95.6033 67.4629C95.3597 69.8392 95.1181 72.2156 94.8781 74.5922C94.6919 76.4343 94.504 78.2762 94.3147 80.1179C94.2019 81.2162 94.0899 82.3145 93.9797 83.4131C93.8762 84.4441 93.7705 85.4749 93.6632 86.5055C93.6242 86.8836 93.586 87.2616 93.5487 87.6398C93.4975 88.1561 93.4436 88.672 93.3889 89.1878C93.3748 89.3373 93.3607 89.4868 93.3462 89.6408C93.2477 90.5343 93.048 91.2237 92.5781 91.9922C91.9259 92.3184 91.1928 92.2127 90.4758 92.2097C90.2985 92.2098 90.1213 92.2098 89.9387 92.2098C89.3511 92.2097 88.7636 92.2082 88.176 92.2066C87.7693 92.2063 87.3626 92.206 86.9559 92.2058C85.8841 92.205 84.8123 92.2031 83.7405 92.201C82.6474 92.199 81.5543 92.1981 80.4611 92.1971C78.3152 92.195 76.1693 92.1917 74.0235 92.1876C74.1035 92.0297 74.1836 91.8718 74.2661 91.7092C74.3713 91.5005 74.4765 91.2918 74.585 91.0767C74.6892 90.8705 74.7934 90.6643 74.9008 90.4519C75.1517 89.9339 75.3722 89.4015 75.586 88.8672C82.6436 88.7706 82.6436 88.7706 89.8438 88.6719C89.967 87.4701 90.0902 86.2682 90.2172 85.0299C90.6237 81.0657 91.0307 77.1017 91.438 73.1376C91.685 70.7334 91.9318 68.3292 92.1782 65.9249C92.393 63.8297 92.608 61.7345 92.8235 59.6393C92.9376 58.5297 93.0515 57.42 93.1651 56.3103C93.2719 55.2662 93.3792 54.2221 93.4868 53.1781C93.5263 52.7946 93.5656 52.411 93.6047 52.0275C93.6581 51.5044 93.712 50.9813 93.7661 50.4582C93.7815 50.306 93.7969 50.1539 93.8128 49.9971C93.8888 49.268 93.9965 48.5723 94.1406 47.8516C84.086 47.8516 74.0313 47.8516 63.6719 47.8516C63.8653 49.3985 64.0586 50.9454 64.2578 52.5391C64.2578 53.1192 64.2578 53.6993 64.2578 54.2969C63.7083 54.0411 63.159 53.7847 62.6099 53.5279C62.4532 53.455 62.2964 53.3821 62.135 53.307C61.9858 53.2371 61.8366 53.1673 61.6829 53.0953C61.5448 53.0309 61.4067 52.9664 61.2645 52.9C60.9375 52.7344 60.9375 52.7344 60.7422 52.5391C60.663 51.9732 60.5947 51.4103 60.5347 50.8423C60.5169 50.6854 60.4992 50.5284 60.4809 50.3666C60.3892 49.5238 60.331 48.7009 60.3516 47.8516C60.0978 47.7972 60.0978 47.7972 59.8389 47.7417C58.8946 47.3395 58.2713 46.6207 57.8125 45.7032C57.7861 45.2205 57.771 44.7435 57.766 44.2605C57.7644 44.1169 57.7628 43.9733 57.7612 43.8253C57.7585 43.5207 57.7564 43.2162 57.7549 42.9116C57.7515 42.449 57.7429 41.9867 57.7343 41.5242C57.7323 41.2278 57.7307 40.9314 57.7294 40.635C57.7259 40.498 57.7225 40.361 57.719 40.2199C57.7237 39.145 58.0002 38.5593 58.5938 37.6954C59.7806 36.7558 60.7063 36.6899 62.1775 36.6966C62.3414 36.6966 62.5054 36.6966 62.6743 36.6965C63.2154 36.6967 63.7564 36.6982 64.2975 36.6997C64.673 36.7001 65.0484 36.7004 65.4239 36.7006C66.4116 36.7013 67.3993 36.7032 68.3869 36.7054C69.395 36.7074 70.4031 36.7083 71.4111 36.7093C73.3887 36.7114 75.3662 36.7147 77.3438 36.7188C77.3376 36.3614 77.3376 36.3614 77.3314 35.9968C77.3171 35.105 77.3082 34.2132 77.3009 33.3213C77.2969 32.9368 77.2916 32.5523 77.2848 32.1678C77.2753 31.6121 77.2709 31.0566 77.2675 30.5008C77.2634 30.3315 77.2594 30.1621 77.2553 29.9877C77.2546 28.0644 77.9917 26.4052 79.2969 25C81.2672 23.1294 83.5752 22.927 86.174 22.9432ZM60.9375 40.2344C60.9375 41.6524 60.9375 43.0704 60.9375 44.5313C72.7969 44.5313 84.6563 44.5313 96.875 44.5313C96.875 43.1133 96.875 41.6954 96.875 40.2344C96.5505 39.9099 96.1585 40.0148 95.725 40.013C95.5874 40.0134 95.4498 40.0139 95.308 40.0143C95.0903 40.0139 95.0903 40.0139 94.8681 40.0134C94.3779 40.0126 93.8877 40.0132 93.3975 40.0138C93.0476 40.0136 92.6977 40.0132 92.3478 40.0128C91.3946 40.0119 90.4415 40.0123 89.4884 40.0129C88.4932 40.0134 87.4981 40.0129 86.503 40.0126C84.8314 40.0122 83.1599 40.0127 81.4884 40.0136C79.553 40.0147 77.6176 40.0144 75.6821 40.0133C74.0236 40.0124 72.3651 40.0123 70.7065 40.0128C69.7146 40.0131 68.7226 40.0131 67.7306 40.0125C66.7983 40.0119 65.8659 40.0123 64.9336 40.0134C64.5904 40.0137 64.2472 40.0136 63.9039 40.0132C63.4375 40.0127 62.971 40.0133 62.5045 40.0143C62.2981 40.0137 62.2981 40.0137 62.0875 40.013C61.458 39.9623 61.458 39.9623 60.9375 40.2344Z" fill="#0077B6"/>
<path d="M24.8207 7.71144C25.0605 7.70898 25.3004 7.70652 25.5475 7.70398C25.8085 7.70538 26.0695 7.70698 26.3305 7.70877C26.599 7.70825 26.8675 7.70749 27.136 7.70651C27.6982 7.70536 28.2603 7.70703 28.8225 7.71068C29.5423 7.71513 30.262 7.71257 30.9819 7.70789C31.5361 7.70506 32.0904 7.70596 32.6447 7.70799C32.9101 7.70851 33.1754 7.70787 33.4408 7.70605C33.812 7.70406 34.1831 7.70763 34.5542 7.71144C34.8708 7.71237 34.8708 7.71237 35.1937 7.71333C35.8773 7.83698 36.1088 8.04475 36.5234 8.59378C36.5965 9.1176 36.6241 9.55916 36.6134 10.0815C36.6132 10.225 36.6131 10.3685 36.6129 10.5164C36.6117 10.8195 36.6086 11.1225 36.6038 11.4255C36.5967 11.8868 36.5958 12.3477 36.5959 12.809C36.5939 13.1043 36.5917 13.3995 36.589 13.6948C36.5886 13.8316 36.5881 13.9683 36.5877 14.1092C36.5755 14.7451 36.52 15.2435 36.2996 15.8433C36.0843 16.5699 36.2732 16.8701 36.5234 17.5782C36.5867 18.2227 36.5868 18.8664 36.5905 19.5137C36.5934 19.7018 36.5962 19.8898 36.5992 20.0835C36.6082 20.6848 36.6149 21.286 36.621 21.8872C36.7033 29.7426 38.0207 36.085 41.4955 43.1277C44.9218 50.0837 44.9218 50.0837 44.9218 51.7578C44.4787 51.9217 44.0352 52.0843 43.5913 52.2461C43.4658 52.2927 43.3402 52.3393 43.2109 52.3873C42.6466 52.592 42.2068 52.7344 41.6015 52.7344C41.5011 52.41 41.5011 52.41 41.3986 52.079C40.6259 49.6904 39.6229 47.45 38.498 45.211C37.4818 43.1827 37.4818 43.1827 37.136 42.1349C36.7503 40.797 36.7503 40.797 35.7982 39.8613C35.1036 39.6228 34.4062 39.5132 33.6807 39.4135C32.5397 39.2483 31.6591 38.7154 30.6739 38.1432C29.9601 37.8407 29.6426 37.8666 28.9062 38.086C28.5542 38.257 28.2084 38.4411 27.8686 38.6353C27.149 39.0256 26.5433 39.2853 25.7339 39.3715C24.1902 39.5159 24.1902 39.5159 22.9636 40.3694C22.4167 41.3039 22.08 42.3265 21.7176 43.3428C21.377 44.2226 20.9526 45.0541 20.5289 45.8963C17.6714 51.5822 16.6994 56.9397 16.6015 63.2813C15.5058 63.3457 14.4101 63.4102 13.2812 63.4766C13.0679 55.2419 15.0532 48.8299 18.7065 41.4849C21.9343 34.9597 22.6599 28.5684 22.7493 21.3804C22.7571 20.7828 22.7672 20.1853 22.7775 19.5877C22.7792 19.4062 22.7808 19.2247 22.7825 19.0377C22.7976 18.2379 22.844 17.6032 23.0759 16.83C23.2735 16.0942 23.1553 15.9101 22.8515 15.2344C22.8103 14.7205 22.7875 14.2277 22.7859 13.7139C22.7846 13.5697 22.7833 13.4255 22.782 13.277C22.78 12.9735 22.7791 12.67 22.7791 12.3665C22.7783 11.9026 22.7712 11.4391 22.7638 10.9753C22.7626 10.6797 22.7619 10.384 22.7615 10.0884C22.7587 9.95022 22.7559 9.81206 22.753 9.66971C22.7588 9.04573 22.7931 8.67114 23.1738 8.1668C23.7598 7.7145 24.0853 7.71361 24.8207 7.71144ZM26.1718 11.1328C25.9968 14.134 25.9968 14.134 26.5625 15.625C26.6143 16.0401 26.6143 16.0401 26.6113 16.4063C26.6123 16.5271 26.6133 16.648 26.6143 16.7725C26.5625 17.1875 26.5625 17.1875 26.3663 17.7015C26.143 18.4568 26.1223 19.1473 26.1337 19.9265C26.1341 20.0558 26.1345 20.1852 26.1349 20.3185C26.1369 20.7967 26.1424 21.2748 26.1474 21.753C26.1555 22.8245 26.1635 23.896 26.1718 25C28.4921 25 30.8125 25 33.2031 25C33.2111 23.9285 33.2192 22.857 33.2275 21.753C33.231 21.4169 33.2346 21.0809 33.2383 20.7347C33.2394 20.4653 33.2404 20.1959 33.2412 19.9265C33.2442 19.7204 33.2442 19.7204 33.2473 19.5102C33.2476 18.6578 33.1156 17.9818 32.8125 17.1875C32.7606 16.7725 32.7606 16.7725 32.7636 16.4063C32.7621 16.225 32.7621 16.225 32.7606 16.0401C32.8125 15.625 32.8125 15.625 33.2031 14.4532C33.2031 13.3575 33.2031 12.2618 33.2031 11.1328C30.8828 11.1328 28.5625 11.1328 26.1718 11.1328ZM25.9765 28.3203C25.6724 30.1606 25.6724 30.1606 25.3689 32.001C25.1395 33.3837 24.8983 34.7613 24.6093 36.1328C25.5116 36.0251 26.1773 35.7773 26.9775 35.3516C28.1534 34.7292 29.1206 34.401 30.4687 34.5703C31.3161 34.8337 32.1104 35.2093 32.9162 35.5774C33.0713 35.6479 33.2264 35.7184 33.3862 35.791C33.5249 35.8565 33.6636 35.922 33.8066 35.9894C34.2042 36.1679 34.2042 36.1679 34.7656 36.1328C34.738 35.9933 34.7105 35.8538 34.6821 35.7101C34.5546 35.0618 34.4282 34.4132 34.3017 33.7647C34.2368 33.4357 34.2368 33.4357 34.1705 33.1002C34.1277 32.8799 34.0849 32.6596 34.0408 32.4326C34.0019 32.2342 33.9631 32.0357 33.923 31.8313C33.7218 30.6652 33.5657 29.4918 33.3984 28.3203C30.9492 28.3203 28.5 28.3203 25.9765 28.3203Z" fill="#0077B6"/>
<path d="M18.0581 66.1538C18.3785 66.1549 18.6989 66.1557 19.0193 66.1563C19.8538 66.1585 20.6883 66.1642 21.5228 66.1708C22.3778 66.1768 23.2329 66.1794 24.088 66.1824C25.7592 66.1886 27.4304 66.1989 29.1016 66.211C28.6182 67.8545 28.6182 67.8545 28.1251 69.5313C27.7419 69.5331 27.3588 69.535 26.9641 69.5368C25.6887 69.5438 24.4134 69.5543 23.138 69.5672C22.3659 69.5749 21.5938 69.5812 20.8216 69.5842C20.0744 69.5872 19.3272 69.594 18.5801 69.6032C18.2971 69.6061 18.0141 69.6077 17.731 69.6078C14.8485 69.6112 12.0688 70.1578 9.961 72.2657C15.5684 72.3301 21.1758 72.3946 26.9532 72.461C26.5762 73.215 26.1462 73.8736 25.6714 74.5667C25.4151 74.9623 25.2068 75.3585 25.0001 75.7813C24.758 75.7824 24.5159 75.7836 24.2665 75.7848C21.9847 75.7959 19.7029 75.8102 17.4211 75.8273C16.248 75.8361 15.075 75.8437 13.9019 75.849C12.7697 75.854 11.6376 75.8619 10.5054 75.8718C10.0736 75.875 9.64169 75.8773 9.20982 75.8785C8.60474 75.8804 7.9998 75.8858 7.39476 75.8922C7.21634 75.8919 7.03792 75.8916 6.85409 75.8913C5.85776 75.906 5.15669 76.0032 4.29694 76.5626C3.6114 77.3778 3.35768 78.0383 3.32037 79.1016C3.45424 79.9643 3.63832 80.4699 4.29694 81.0303C4.97029 81.5073 5.26687 81.6646 6.06937 81.6716C6.23589 81.6735 6.40241 81.6754 6.57397 81.6774C6.75703 81.6785 6.94008 81.6796 7.12868 81.6808C7.32114 81.6827 7.5136 81.6846 7.7119 81.6866C8.3502 81.6928 8.98851 81.6977 9.62683 81.7025C10.0685 81.7065 10.5103 81.7106 10.952 81.7148C12.1162 81.7256 13.2805 81.7352 14.4448 81.7446C15.6322 81.7544 16.8196 81.7653 18.007 81.7761C20.338 81.7971 22.669 81.8169 25.0001 81.836C25.0789 81.9976 25.0789 81.9976 25.1593 82.1624C25.2288 82.3035 25.2983 82.4445 25.3699 82.5899C25.4385 82.7298 25.5072 82.8697 25.5779 83.0139C25.8091 83.451 26.0764 83.7968 26.4161 84.1553C26.9532 84.727 26.9532 84.727 26.9532 85.1563C18.4454 85.253 18.4454 85.253 9.76569 85.3516C11.8514 86.8685 13.3925 87.897 15.9205 87.9308C16.0464 87.9327 16.1722 87.9346 16.3019 87.9366C16.7161 87.9428 17.1304 87.9476 17.5446 87.9525C17.8325 87.9565 18.1204 87.9606 18.4083 87.9648C19.1648 87.9755 19.9213 87.9852 20.6777 87.9946C21.4502 88.0044 22.2226 88.0153 22.9951 88.0261C24.5097 88.0471 26.0244 88.0669 27.5391 88.086C27.5769 88.2438 27.6147 88.4017 27.6536 88.5644C27.7044 88.7731 27.7553 88.9818 27.8077 89.1968C27.8575 89.403 27.9074 89.6092 27.9587 89.8217C28.1093 90.3719 28.2921 90.8822 28.5157 91.4063C26.6852 91.4291 24.8548 91.4464 23.0242 91.4569C22.1739 91.462 21.3236 91.4688 20.4733 91.48C19.6502 91.4907 18.8271 91.4964 18.0039 91.499C17.6924 91.5007 17.381 91.5042 17.0696 91.5096C13.3086 91.5714 10.2771 90.553 7.48679 87.9517C6.6694 87.1412 5.91251 86.3101 5.2735 85.3516C4.81022 85.1521 4.81022 85.1521 4.27252 84.9976C2.82261 84.4997 1.62941 83.7244 0.78131 82.4219C0.672546 82.2629 0.672546 82.2629 0.561584 82.1007C-0.300377 80.5833 -0.217448 78.6408 6.01676e-05 76.9532C0.22035 76.2038 0.518761 75.6291 0.976623 75.0001C1.04938 74.8873 1.12215 74.7745 1.19711 74.6583C2.02705 73.5016 3.30678 72.8943 4.67535 72.6563C4.81811 72.6402 4.96086 72.6241 5.10794 72.6075C5.51527 72.4914 5.51527 72.4914 5.65268 72.0322C5.72091 71.8514 5.78914 71.6707 5.85944 71.4844C6.17565 71.0815 6.48803 70.7098 6.836 70.337C6.93167 70.2341 7.02734 70.1312 7.12592 70.0253C10.1348 66.8734 13.8693 66.1111 18.0581 66.1538Z" fill="#0077B6"/>
</g>
<defs>
<clipPath id="clip0_374_769">
<rect width="100" height="100" fill="white"/>
</clipPath>
</defs>
</svg>
