<svg width="35" height="35" viewBox="0 0 35 35" fill="none" xmlns="http://www.w3.org/2000/svg">
<g clip-path="url(#clip0_387_790)">
<path d="M20.4076 -0.0141872C20.5043 -0.0151884 20.5043 -0.0151884 20.6028 -0.0162099C20.8151 -0.0182442 21.0274 -0.0197098 21.2397 -0.0209998C21.3125 -0.0214482 21.3853 -0.0218965 21.4602 -0.0223585C21.8452 -0.0245778 22.2302 -0.0262473 22.6152 -0.0275792C22.9332 -0.0287952 23.2511 -0.0311726 23.569 -0.034575C23.9538 -0.0386871 24.3385 -0.0407799 24.7233 -0.0414409C24.8695 -0.0420236 25.0157 -0.0433052 25.1619 -0.0453123C25.3669 -0.0479757 25.5718 -0.0480368 25.7768 -0.0475007C25.8665 -0.0495475 25.8665 -0.0495475 25.958 -0.0516357C26.4173 -0.0462709 26.727 0.105484 27.0703 0.409411C27.401 0.834984 27.4907 1.18461 27.4915 1.72043C27.4918 1.77759 27.4922 1.83475 27.4925 1.89363C27.4935 2.08293 27.494 2.27223 27.4944 2.46152C27.4948 2.59317 27.4951 2.72481 27.4955 2.85645C27.4963 3.13267 27.4967 3.40888 27.4969 3.6851C27.4973 4.03847 27.4989 4.39183 27.5009 4.7452C27.5021 5.01726 27.5025 5.2893 27.5026 5.56136C27.5028 5.6916 27.5033 5.82183 27.5042 5.95207C27.5054 6.13464 27.5053 6.31716 27.5048 6.49973C27.5055 6.55319 27.5061 6.60665 27.5068 6.66174C27.5032 7.1306 27.3718 7.49641 27.0618 7.85885C27.0263 7.90203 26.9909 7.94522 26.9544 7.98971C26.46 8.39534 25.9428 8.43142 25.3231 8.42865C25.2422 8.42945 25.1612 8.43025 25.0778 8.43108C24.8205 8.43348 24.5633 8.43411 24.306 8.43451C24.049 8.43563 23.792 8.43714 23.535 8.4394C23.3756 8.44072 23.2162 8.44137 23.0568 8.44123C22.6014 8.44418 22.1808 8.48801 21.7383 8.59655C21.6774 8.9668 21.656 9.32796 21.6483 9.70282C21.6462 9.7904 21.6462 9.7904 21.644 9.87974C21.6396 10.0646 21.6355 10.2495 21.6315 10.4344C21.6285 10.5604 21.6255 10.6864 21.6225 10.8124C21.6152 11.1199 21.6083 11.4274 21.6016 11.7349C21.6523 11.7345 21.703 11.734 21.7553 11.7336C22.2359 11.7294 22.7166 11.7263 23.1972 11.7243C23.4443 11.7233 23.6913 11.7218 23.9383 11.7195C24.1772 11.7173 24.4161 11.7161 24.6551 11.7155C24.7895 11.715 24.9239 11.7134 25.0583 11.7118C25.7029 11.7116 26.3391 11.7485 26.8211 12.2224C27.1967 12.6451 27.3263 13.057 27.3185 13.6128C27.3193 13.7054 27.3193 13.7054 27.32 13.7999C27.3212 14.0022 27.3199 14.2044 27.3184 14.4067C27.3184 14.5483 27.3186 14.6899 27.3189 14.8315C27.3191 15.1275 27.3181 15.4234 27.3162 15.7194C27.3139 16.0979 27.3143 16.4762 27.3156 16.8547C27.3163 17.1468 27.3157 17.439 27.3146 17.7311C27.3143 17.8706 27.3143 18.0101 27.3148 18.1496C27.3151 18.3449 27.3137 18.5401 27.3119 18.7353C27.3125 18.8209 27.3125 18.8209 27.3132 18.9082C27.3052 19.407 27.1377 19.8259 26.7798 20.1822C26.7442 20.2192 26.7086 20.2562 26.6719 20.2944C26.1459 20.6674 25.5855 20.6315 24.9661 20.6243C24.8688 20.6239 24.7715 20.6237 24.6742 20.6235C24.4198 20.6227 24.1654 20.6207 23.9109 20.6184C23.6506 20.6163 23.3903 20.6154 23.13 20.6143C22.6205 20.6122 22.1111 20.6087 21.6016 20.6043C21.6018 20.6705 21.6021 20.7367 21.6023 20.8049C21.6084 22.4164 21.6129 24.0279 21.6157 25.6395C21.6171 26.4188 21.6191 27.1981 21.6222 27.9775C21.6249 28.6569 21.6267 29.3362 21.6273 30.0156C21.6277 30.3753 21.6285 30.7349 21.6305 31.0945C21.6323 31.4333 21.6329 31.7721 21.6325 32.1109C21.6326 32.2349 21.6331 32.3589 21.6342 32.483C21.6453 33.8645 21.6453 33.8645 21.1789 34.4308C21.128 34.4723 21.0772 34.5138 21.0248 34.5566C20.9741 34.5995 20.9234 34.6424 20.8712 34.6866C20.4979 34.943 20.1718 34.9521 19.7323 34.9517C19.6365 34.9523 19.6365 34.9523 19.5388 34.953C19.328 34.9543 19.1172 34.9546 18.9064 34.9547C18.7596 34.9552 18.6127 34.9556 18.4658 34.9561C18.158 34.9569 17.8502 34.9572 17.5423 34.9571C17.1486 34.9571 16.7549 34.959 16.3611 34.9613C16.0577 34.9628 15.7544 34.9631 15.451 34.963C15.3059 34.9632 15.1607 34.9638 15.0156 34.9649C14.8123 34.9662 14.609 34.9658 14.4056 34.965C14.3461 34.9657 14.2866 34.9665 14.2253 34.9673C13.7557 34.9625 13.4031 34.8353 13.0425 34.5321C13.0063 34.4895 12.9701 34.4469 12.9327 34.4031C12.8771 34.3403 12.8771 34.3403 12.8203 34.2762C12.5591 33.8722 12.4793 33.4838 12.4851 33.0095C12.4849 32.9561 12.4848 32.9027 12.4846 32.8477C12.4842 32.6703 12.4854 32.4928 12.4865 32.3154C12.4865 32.1876 12.4865 32.0598 12.4864 31.932C12.4863 31.5861 12.4875 31.2402 12.489 30.8944C12.4903 30.5325 12.4904 30.1707 12.4906 29.8088C12.4913 29.124 12.4929 28.4393 12.495 27.7545C12.4973 26.9747 12.4984 26.195 12.4995 25.4152C12.5016 23.8116 12.5052 22.208 12.5098 20.6043C12.465 20.6051 12.4203 20.6059 12.3742 20.6066C11.9062 20.6142 11.4382 20.6193 10.9702 20.6231C10.7958 20.6248 10.6214 20.6271 10.4471 20.6301C10.1956 20.6342 9.94414 20.6362 9.69262 20.6377C9.57679 20.6403 9.57679 20.6403 9.45863 20.643C8.90914 20.6432 8.44438 20.5395 8.02445 20.1648C7.58599 19.6707 7.50966 19.1724 7.50744 18.5379C7.50676 18.4538 7.50676 18.4538 7.50608 18.368C7.50473 18.183 7.50393 17.998 7.50325 17.8129C7.50283 17.7177 7.50283 17.7177 7.50241 17.6206C7.50098 17.2844 7.5 16.9482 7.49936 16.612C7.49861 16.2663 7.49625 15.9206 7.49354 15.5749C7.49174 15.3078 7.49118 15.0407 7.49093 14.7735C7.4906 14.6462 7.48981 14.5188 7.48854 14.3915C7.47379 12.8201 7.47379 12.8201 8.00233 12.2168C8.52728 11.7515 9.18721 11.6952 9.85951 11.7083C9.93583 11.7087 10.0121 11.7091 10.0908 11.7095C10.3318 11.711 10.5727 11.7144 10.8136 11.7179C10.9781 11.7193 11.1427 11.7205 11.3072 11.7216C11.7081 11.7246 12.1089 11.7292 12.5098 11.7349C12.5095 11.6941 12.5092 11.6532 12.5089 11.6111C12.5058 11.1793 12.5037 10.7476 12.5023 10.3158C12.5016 10.1554 12.5007 9.99505 12.4995 9.83468C12.4906 8.61676 12.5028 7.42595 12.8259 6.24274C12.8437 6.17695 12.8614 6.11116 12.8797 6.04338C13.4568 3.99416 14.7377 2.16119 16.6156 1.10446C16.7953 1.00697 16.9765 0.912456 17.1582 0.818768C17.2197 0.785875 17.2812 0.752983 17.3446 0.719094C18.277 0.25528 19.3699 -0.00732932 20.4076 -0.0141872ZM18.6707 2.47325C18.6163 2.49392 18.562 2.5146 18.5061 2.5359C18.0656 2.70954 17.6748 2.92281 17.2949 3.20668C17.237 3.24872 17.1791 3.29076 17.1195 3.33407C15.6746 4.43046 14.9225 6.08075 14.6785 7.84541C14.6216 8.33247 14.6187 8.81889 14.6174 9.3086C14.6169 9.45982 14.6158 9.61104 14.6146 9.76226C14.611 10.1917 14.6077 10.6211 14.6066 11.0505C14.6059 11.3146 14.6039 11.5785 14.6011 11.8425C14.6002 11.9425 14.5999 12.0424 14.6 12.1424C14.6012 13.1434 14.6012 13.1434 14.2871 13.5088C13.858 13.8664 13.3889 13.8228 12.8497 13.8233C12.7682 13.8244 12.6867 13.8254 12.6028 13.8265C12.2998 13.8301 11.9967 13.8314 11.6937 13.8329C11.0156 13.8385 10.3374 13.8442 9.63868 13.85C9.63868 15.381 9.63868 16.9119 9.63868 18.4893C10.9444 18.5037 10.9444 18.5037 12.2502 18.5158C12.4145 18.518 12.5787 18.5203 12.7429 18.5226C12.8275 18.5231 12.9122 18.5235 12.9994 18.5239C13.8903 18.5388 13.8903 18.5388 14.2695 18.8646C14.539 19.2208 14.5708 19.4772 14.5714 19.9111C14.5719 19.9937 14.5719 19.9937 14.5724 20.078C14.5734 20.2631 14.574 20.4482 14.5746 20.6333C14.5752 20.7658 14.5759 20.8982 14.5766 21.0307C14.5785 21.3908 14.5799 21.7509 14.5813 22.1111C14.5828 22.4872 14.5847 22.8634 14.5865 23.2395C14.5899 23.9521 14.593 24.6646 14.5959 25.3772C14.5993 26.1883 14.6031 26.9994 14.6068 27.8105C14.6146 29.4793 14.6219 31.1481 14.6289 32.8168C16.2306 32.8168 17.8322 32.8168 19.4824 32.8168C19.4834 32.4118 19.4844 32.0068 19.4854 31.5895C19.4889 30.2533 19.4934 28.917 19.4985 27.5807C19.5016 26.7704 19.5043 25.96 19.5061 25.1496C19.5077 24.4433 19.51 23.737 19.5131 23.0307C19.5147 22.6567 19.516 22.2827 19.5164 21.9087C19.5169 21.5567 19.5182 21.2047 19.5203 20.8527C19.5209 20.7235 19.5212 20.5942 19.5211 20.465C19.5209 20.2886 19.5221 20.1122 19.5235 19.9358C19.523 19.8591 19.523 19.8591 19.5225 19.7809C19.5269 19.458 19.5978 19.2463 19.7559 18.9669C19.7559 18.9219 19.7559 18.8769 19.7559 18.8305C20.1396 18.6242 20.4832 18.5406 20.919 18.5358C20.9881 18.5348 20.9881 18.5348 21.0586 18.5337C21.2095 18.5316 21.3604 18.5305 21.5113 18.5293C21.6165 18.528 21.7216 18.5267 21.8268 18.5253C22.1026 18.5218 22.3784 18.5191 22.6542 18.5166C22.9856 18.5133 23.317 18.5091 23.6485 18.5051C24.1511 18.4991 24.6536 18.4943 25.1563 18.4893C25.1563 16.9583 25.1563 15.4273 25.1563 13.85C24.8114 13.8482 24.4666 13.8464 24.1114 13.8446C23.8924 13.8429 23.6734 13.8411 23.4543 13.839C23.1071 13.8357 22.7598 13.8327 22.4125 13.8315C22.1323 13.8304 21.8522 13.8281 21.5721 13.8248C21.4655 13.8238 21.3588 13.8233 21.2522 13.8232C21.1023 13.8231 20.9525 13.8212 20.8026 13.819C20.7174 13.8184 20.6323 13.8178 20.5445 13.8171C20.1631 13.7613 19.9093 13.6109 19.6596 13.3111C19.4729 12.936 19.5146 12.509 19.5193 12.1006C19.5193 12.0107 19.5194 11.9208 19.5195 11.8281C19.5197 11.6382 19.5208 11.4483 19.5227 11.2583C19.525 11.017 19.5255 10.7756 19.5254 10.5342C19.5254 10.3467 19.5262 10.1591 19.5272 9.97159C19.5278 9.83998 19.5281 9.70837 19.5283 9.57676C19.5381 8.65285 19.6551 7.77244 20.3094 7.06785C21.2935 6.245 22.6446 6.31134 23.8489 6.29818C24.348 6.29114 24.8471 6.28411 25.3613 6.27686C25.3613 4.88095 25.3613 3.48504 25.3613 2.04684C24.5271 2.04087 24.5271 2.04087 23.6928 2.03684C23.3516 2.03563 23.0104 2.03421 22.6691 2.0314C22.3934 2.02914 22.1178 2.02794 21.842 2.02742C21.7379 2.02705 21.6337 2.02632 21.5295 2.0252C20.5521 2.01511 19.5885 2.11504 18.6707 2.47325Z" fill="white"/>
</g>
<defs>
<clipPath id="clip0_387_790">
<rect width="35" height="35" fill="white"/>
</clipPath>
</defs>
</svg>
