<svg width="35" height="35" viewBox="0 0 35 35" fill="none" xmlns="http://www.w3.org/2000/svg">
<g clip-path="url(#clip0_387_795)">
<path d="M3.59148 3.94724C3.64055 3.947 3.68962 3.94676 3.74017 3.94651C3.90382 3.94588 4.06745 3.94621 4.23109 3.94655C4.34992 3.94629 4.46875 3.94598 4.58758 3.94561C4.91354 3.94477 5.2395 3.94479 5.56545 3.94495C5.91724 3.94498 6.26901 3.94422 6.62079 3.94358C7.3098 3.94244 7.9988 3.94206 8.68781 3.94199C9.24797 3.94192 9.80813 3.94164 10.3683 3.94121C11.9569 3.94 13.5455 3.93937 15.1342 3.93948C15.2626 3.93948 15.2626 3.93948 15.3936 3.93949C15.4794 3.9395 15.5651 3.9395 15.6534 3.93951C17.0426 3.93957 18.4317 3.93826 19.8209 3.93633C21.2478 3.93437 22.6746 3.93342 24.1015 3.93354C24.9023 3.93359 25.7032 3.93321 26.5041 3.93174C27.186 3.93049 27.8679 3.9302 28.5499 3.93112C28.8976 3.93157 29.2454 3.93158 29.5931 3.93039C29.9119 3.92931 30.2306 3.92951 30.5494 3.9307C30.6643 3.93091 30.7792 3.93067 30.8941 3.9299C32.0654 3.92263 33.0931 4.18537 33.966 5.01158C34.5425 5.62662 35.0075 6.47436 35.0091 7.33281C35.0095 7.40619 35.0098 7.47957 35.0101 7.55518C35.01 7.67603 35.01 7.67603 35.01 7.79932C35.0103 7.88495 35.0105 7.97058 35.0108 8.05881C35.0115 8.29667 35.0117 8.53452 35.0119 8.77238C35.0122 9.02887 35.0128 9.28536 35.0134 9.54185C35.0148 10.1614 35.0155 10.781 35.0161 11.4005C35.0164 11.6924 35.0167 11.9844 35.0171 12.2763C35.0183 13.2469 35.0193 14.2175 35.0198 15.1882C35.0199 15.44 35.02 15.6919 35.0201 15.9437C35.0202 16.0063 35.0202 16.0689 35.0202 16.1334C35.0208 17.1469 35.0225 18.1604 35.0248 19.1739C35.027 20.2149 35.0283 21.2559 35.0285 22.2969C35.0286 22.8811 35.0292 23.4654 35.031 24.0497C35.0325 24.5474 35.033 25.0452 35.0323 25.5429C35.032 25.7966 35.0322 26.0504 35.0335 26.3041C35.0349 26.5798 35.0342 26.8555 35.0333 27.1312C35.0341 27.2105 35.0348 27.2899 35.0356 27.3716C35.0276 28.396 34.6306 29.2449 33.9375 29.9852C33.2371 30.6577 32.3836 31.0516 31.4085 31.0527C31.3594 31.053 31.3103 31.0532 31.2598 31.0535C31.0961 31.0541 30.9325 31.0538 30.7688 31.0534C30.65 31.0537 30.5312 31.054 30.4124 31.0544C30.0864 31.0552 29.7604 31.0552 29.4345 31.055C29.0827 31.055 28.7309 31.0557 28.3791 31.0564C27.6901 31.0575 27.0011 31.0579 26.3121 31.058C25.752 31.058 25.1918 31.0583 24.6317 31.0588C23.043 31.06 21.4544 31.0606 19.8658 31.0605C19.7373 31.0605 19.7373 31.0605 19.6063 31.0605C19.5206 31.0605 19.4349 31.0605 19.3465 31.0605C17.9574 31.0604 16.5682 31.0617 15.179 31.0636C13.7522 31.0656 12.3253 31.0665 10.8985 31.0664C10.0976 31.0664 9.29673 31.0668 8.49585 31.0682C7.81392 31.0695 7.132 31.0698 6.45007 31.0688C6.10231 31.0684 5.75457 31.0684 5.40682 31.0696C5.08806 31.0707 4.76933 31.0705 4.45058 31.0693C4.33566 31.0691 4.22075 31.0693 4.10584 31.0701C2.93459 31.0773 1.90682 30.8146 1.03391 29.9884C0.457437 29.3733 -0.00755032 28.5256 -0.00920555 27.6672C-0.00951029 27.5938 -0.00981497 27.5204 -0.0101289 27.4448C-0.0101163 27.3642 -0.0101039 27.2837 -0.0100909 27.2006C-0.0103422 27.115 -0.0105934 27.0294 -0.0108523 26.9412C-0.0115366 26.7033 -0.0117914 26.4654 -0.0119728 26.2276C-0.0122399 25.9711 -0.0128946 25.7146 -0.0134913 25.4581C-0.0148419 24.8386 -0.0155304 24.219 -0.0161387 23.5994C-0.0164384 23.3075 -0.0168052 23.0156 -0.0171632 22.7237C-0.0183262 21.7531 -0.019317 20.7824 -0.0198121 19.8118C-0.0199427 19.5599 -0.020074 19.3081 -0.0202077 19.0562C-0.0202408 18.9936 -0.0202738 18.931 -0.0203078 18.8665C-0.020875 17.8531 -0.0226066 16.8396 -0.0248275 15.8261C-0.0270901 14.7851 -0.0283195 13.7441 -0.0285378 12.7031C-0.0286856 12.1188 -0.0292812 11.5345 -0.0310302 10.9503C-0.0325167 10.4525 -0.0330632 9.9548 -0.0323998 9.45707C-0.0320898 9.20333 -0.0322144 8.9496 -0.0335456 8.69586C-0.0349795 8.42015 -0.034271 8.14448 -0.0333724 7.86876C-0.0341223 7.78942 -0.034872 7.71007 -0.0356445 7.62832C-0.0276119 6.60393 0.369338 5.75505 1.06248 5.01478C1.76288 4.34222 2.61635 3.94832 3.59148 3.94724ZM2.01417 6.47543C1.79011 6.76154 1.70913 7.02764 1.64059 7.3828C2.04723 7.75758 2.45377 8.13182 2.8716 8.49417C3.03241 8.6348 3.19101 8.77774 3.34958 8.92088C3.55333 9.10476 3.75785 9.2875 3.96481 9.46776C4.23108 9.69967 4.49308 9.93615 4.75522 10.1727C4.90094 10.3035 5.04764 10.4329 5.19528 10.5615C5.46155 10.7934 5.72355 11.0299 5.98569 11.2665C6.13141 11.3972 6.27811 11.5267 6.42575 11.6553C6.69202 11.8872 6.95402 12.1237 7.21616 12.3602C7.36188 12.491 7.50858 12.6204 7.65622 12.749C8.03833 13.082 8.41332 13.423 8.78949 13.7626C9.09185 14.0353 9.3957 14.3059 9.70273 14.5733C9.92396 14.7678 10.142 14.9656 10.3607 15.1629C10.5064 15.2937 10.6531 15.4231 10.8008 15.5517C11.067 15.7837 11.329 16.0201 11.5912 16.2567C11.7369 16.3875 11.8836 16.5169 12.0312 16.6455C12.2975 16.8774 12.5595 17.1139 12.8216 17.3504C12.9673 17.4812 13.114 17.6106 13.2617 17.7392C13.528 17.9712 13.79 18.2076 14.0521 18.4442C14.1978 18.575 14.3445 18.7044 14.4922 18.833C14.8743 19.166 15.2493 19.5069 15.6254 19.8466C15.9273 20.1189 16.2297 20.3901 16.5379 20.6552C16.6455 20.7508 16.7502 20.8497 16.8535 20.95C16.9131 21.0071 16.9728 21.0642 17.0343 21.123C17.0888 21.1766 17.1434 21.2302 17.1996 21.2854C17.3525 21.4092 17.3525 21.4092 17.5235 21.4077C17.8014 21.2859 17.9904 21.0863 18.2049 20.8752C18.2967 20.7871 18.3886 20.6991 18.4805 20.6111C18.5458 20.5481 18.5458 20.5481 18.6124 20.4839C18.786 20.318 18.9665 20.1611 19.1483 20.0044C19.3072 19.8667 19.4631 19.7259 19.6191 19.5849C19.8229 19.4011 20.0274 19.2183 20.2343 19.0381C20.5568 18.7571 20.8739 18.4702 21.1914 18.1836C21.5523 17.8576 21.9141 17.5331 22.2809 17.2137C22.443 17.0712 22.6034 16.9268 22.7636 16.7822C23.0109 16.5591 23.2602 16.3387 23.5113 16.12C23.6735 15.9775 23.8338 15.8331 23.9941 15.6885C24.2414 15.4653 24.4907 15.245 24.7418 15.0262C24.904 14.8837 25.0643 14.7393 25.2246 14.5947C25.4718 14.3716 25.7211 14.1512 25.9723 13.9325C26.1344 13.79 26.2948 13.6456 26.455 13.501C26.6588 13.3171 26.8633 13.1343 27.0703 12.9541C27.3927 12.6731 27.7099 12.3862 28.0273 12.0996C28.3882 11.7737 28.7501 11.4491 29.1168 11.1297C29.279 10.9872 29.4393 10.8429 29.5996 10.6982C29.8468 10.4751 30.0961 10.2547 30.3473 10.036C30.5094 9.89349 30.6698 9.74911 30.83 9.60448C31.0773 9.38136 31.3266 9.16097 31.5777 8.94224C31.7399 8.79974 31.9003 8.65536 32.0605 8.51073C32.4867 8.12642 32.9167 7.74799 33.3593 7.3828C33.2393 6.73452 32.9138 6.27623 32.3716 5.89918C31.6491 5.48359 30.7519 5.49476 29.9414 5.60545C29.6091 5.75037 29.4242 5.94966 29.1894 6.22069C29.0783 6.32706 28.9645 6.43006 28.8502 6.53304C28.7339 6.63794 28.6192 6.74437 28.5048 6.85141C28.1891 7.14566 27.8627 7.42676 27.5344 7.7067C27.0869 8.08848 26.6451 8.47419 26.2113 8.87148C25.9056 9.1506 25.5929 9.42117 25.278 9.68966C24.8307 10.0712 24.389 10.4568 23.9554 10.8539C23.6506 11.1323 23.3389 11.4022 23.0245 11.6697C22.631 12.0048 22.2408 12.3416 21.8622 12.6935C21.6129 12.925 21.3584 13.1468 21.0931 13.36C20.7225 13.6583 20.376 13.9784 20.0282 14.3026C19.7125 14.5968 19.3862 14.8779 19.0578 15.1579C18.9757 15.2279 18.8937 15.298 18.8116 15.368C18.7707 15.4029 18.7298 15.4379 18.6877 15.4738C18.3074 15.7997 17.9364 16.135 17.5683 16.4746C17.3001 16.3641 17.1094 16.1797 16.9018 15.9833C16.828 15.9145 16.7541 15.8458 16.6802 15.7771C16.6268 15.7273 16.6268 15.7273 16.5724 15.6766C16.2915 15.4162 15.9994 15.1684 15.7079 14.92C15.2605 14.5383 14.8188 14.1526 14.3851 13.7554C14.0795 13.4763 13.7668 13.2058 13.4518 12.9373C13.0045 12.5557 12.5628 12.1701 12.1292 11.773C11.8236 11.4939 11.5109 11.2233 11.196 10.9548C10.7486 10.5733 10.307 10.1877 9.87336 9.7906C9.56775 9.51147 9.25505 9.24091 8.94009 8.97242C8.49277 8.59087 8.05113 8.2053 7.6175 7.80817C7.31189 7.52905 6.99919 7.25849 6.68423 6.99C6.60234 6.92013 6.52045 6.85026 6.43857 6.78038C6.39759 6.74542 6.35661 6.71047 6.31438 6.67445C5.98271 6.39041 5.65962 6.09812 5.33948 5.80118C5.01885 5.51796 4.64754 5.58759 4.23825 5.58409C4.1255 5.58112 4.1255 5.58112 4.01048 5.57808C3.15463 5.57148 2.57937 5.83976 2.01417 6.47543ZM7.65622 5.60545C8.0142 6.02463 8.0142 6.02463 8.41245 6.37022C8.71166 6.6087 8.99592 6.85711 9.27548 7.1179C9.31356 7.15339 9.35164 7.18887 9.39087 7.22543C9.46399 7.29357 9.5371 7.36171 9.6102 7.42986C9.89082 7.68977 10.1824 7.93711 10.4734 8.18522C10.5555 8.25526 10.6375 8.32531 10.7196 8.39537C10.761 8.43073 10.8025 8.4661 10.8451 8.50253C11.1009 8.72162 11.3518 8.94495 11.5997 9.17296C11.8357 9.38971 12.076 9.5963 12.326 9.79674C12.6717 10.0753 12.994 10.3738 13.3169 10.6779C13.5536 10.8996 13.7944 11.1107 14.0478 11.3135C14.3457 11.5517 14.6249 11.8041 14.9023 12.0654C15.2377 12.3813 15.5817 12.6781 15.9416 12.9661C16.2062 13.186 16.4571 13.4193 16.7077 13.6549C16.9422 13.8749 17.1829 14.0833 17.4316 14.2871C17.6673 14.1845 17.8297 14.0476 18.0169 13.8727C18.2545 13.6545 18.4956 13.446 18.7475 13.2446C19.0944 12.9644 19.4183 12.6647 19.7427 12.3592C20.0362 12.0843 20.3411 11.8296 20.6552 11.5784C20.8876 11.3842 21.1077 11.1792 21.3281 10.9717C21.6637 10.6556 22.0079 10.3588 22.3679 10.0704C22.6705 9.81913 22.9556 9.5495 23.2432 9.28137C23.5581 8.98789 23.8834 8.70738 24.2112 8.42848C24.2927 8.35908 24.3741 8.28965 24.4555 8.2202C24.4968 8.18501 24.5381 8.14982 24.5806 8.11357C24.8503 7.88244 25.1139 7.64591 25.3741 7.40416C25.6249 7.17125 25.8808 6.94811 26.1474 6.73338C26.4337 6.50273 26.7093 6.26345 26.9806 6.01561C27.0168 5.9827 27.053 5.94978 27.0903 5.91587C27.1762 5.83671 27.2602 5.75546 27.3437 5.67381C27.3437 5.65125 27.3437 5.62869 27.3437 5.60545C20.8468 5.60545 14.35 5.60545 7.65622 5.60545ZM1.64059 9.63866C1.63433 11.9261 1.62952 14.2135 1.62663 16.5009C1.62629 16.7711 1.62594 17.0414 1.62557 17.3116C1.6255 17.3654 1.62543 17.4191 1.62536 17.4746C1.62417 18.3449 1.62201 19.2153 1.6195 20.0857C1.61694 20.9791 1.61542 21.8726 1.61487 22.766C1.61449 23.3171 1.61331 23.8681 1.61109 24.4192C1.60947 24.8421 1.6093 25.2651 1.60967 25.688C1.60959 25.8612 1.60905 26.0344 1.608 26.2077C1.60664 26.4445 1.60697 26.6813 1.60771 26.9182C1.60692 26.9864 1.60612 27.0547 1.6053 27.1249C1.61087 27.782 1.80869 28.3168 2.2609 28.7961C2.73606 29.2289 3.22388 29.413 3.86815 29.4079C3.91612 29.4077 3.9641 29.4075 4.01352 29.4073C4.16535 29.4065 4.31715 29.4048 4.46896 29.4031C4.57248 29.4024 4.676 29.4017 4.77952 29.4012C5.03205 29.3997 5.28456 29.3973 5.53708 29.3945C5.54956 27.3225 5.55923 25.2505 5.56501 23.1784C5.56569 22.9337 5.5664 22.689 5.56712 22.4443C5.56726 22.3955 5.56741 22.3468 5.56755 22.2966C5.56993 21.5082 5.57424 20.7197 5.57927 19.9312C5.58439 19.122 5.58742 18.3128 5.58853 17.5035C5.58922 17.049 5.59092 16.5946 5.5949 16.1402C5.59861 15.7124 5.59976 15.2847 5.59893 14.8569C5.59908 14.6999 5.60017 14.5429 5.60227 14.386C5.60499 14.1714 5.60434 13.9572 5.60284 13.7426C5.60444 13.6807 5.60603 13.6187 5.60767 13.5548C5.60088 13.1929 5.53315 13.0153 5.27609 12.755C5.18223 12.6716 5.08694 12.5898 4.9902 12.5097C4.90181 12.4315 4.8135 12.3532 4.72531 12.2748C4.68037 12.2361 4.63543 12.1974 4.58913 12.1575C4.42461 12.015 4.26302 11.8695 4.10153 11.7236C3.89778 11.5397 3.69326 11.357 3.4863 11.1767C3.27934 10.9965 3.07482 10.8137 2.87106 10.6299C2.75714 10.5273 2.64321 10.4248 2.52927 10.3222C2.47877 10.2766 2.42828 10.231 2.37626 10.1839C2.32947 10.1422 2.28268 10.1004 2.23447 10.0574C2.19384 10.0209 2.15322 9.98439 2.11137 9.94681C1.96257 9.82789 1.80448 9.73537 1.64059 9.63866ZM32.9791 9.91637C32.7656 10.1105 32.5518 10.3038 32.334 10.4931C32.127 10.6734 31.9225 10.8561 31.7187 11.04C31.515 11.2239 31.3104 11.4066 31.1035 11.5869C30.8477 11.8098 30.5954 12.0363 30.3435 12.2635C30.1465 12.4414 30.1465 12.4414 29.9804 12.5382C29.7175 12.7159 29.5074 12.8875 29.4236 13.2058C29.3591 13.6765 29.3773 14.1524 29.3853 14.6262C29.3854 14.7873 29.3853 14.9483 29.385 15.1094C29.3848 15.5457 29.3888 15.9818 29.3935 16.4181C29.3974 16.8281 29.3981 17.2381 29.3988 17.6481C29.4003 18.4599 29.4048 19.2716 29.4113 20.0833C29.4176 20.8716 29.4224 21.6598 29.4253 22.448C29.4255 22.4966 29.4257 22.5453 29.4259 22.5954C29.4267 22.8394 29.4276 23.0835 29.4285 23.3275C29.4355 25.3499 29.4476 27.3722 29.4629 29.3945C29.7619 29.4013 30.0608 29.4063 30.3599 29.4095C30.4613 29.4109 30.5628 29.4128 30.6642 29.4151C31.4963 29.4342 32.141 29.3544 32.7657 28.7598C33.2995 28.2161 33.3905 27.6695 33.384 26.9264C33.3843 26.8151 33.3843 26.8151 33.3845 26.7015C33.3849 26.454 33.3837 26.2065 33.3826 25.959C33.3826 25.7811 33.3826 25.6033 33.3827 25.4254C33.3828 25.043 33.3822 24.6606 33.381 24.2783C33.3794 23.7254 33.3788 23.1726 33.3786 22.6198C33.3781 21.7227 33.3768 20.8257 33.3748 19.9287C33.3729 19.0575 33.3715 18.1864 33.3706 17.3153C33.3705 17.2347 33.3705 17.2347 33.3704 17.1525C33.3702 16.8828 33.3699 16.6132 33.3697 16.3436C33.3675 14.1086 33.3639 11.8736 33.3593 9.63866C33.216 9.63866 33.0761 9.82768 32.9791 9.91637ZM7.1777 14.5605C7.1777 19.4557 7.1777 24.351 7.1777 29.3945C13.9904 29.3945 20.8031 29.3945 27.8222 29.3945C27.8222 24.4993 27.8222 19.6041 27.8222 14.5605C27.4706 14.8243 27.1469 15.0771 26.831 15.3766C26.7537 15.4489 26.6764 15.5212 26.599 15.5934C26.5624 15.6276 26.5257 15.6619 26.488 15.6971C26.3199 15.8529 26.1469 16.0029 25.9736 16.1528C25.8135 16.2925 25.6557 16.4347 25.498 16.5771C25.2508 16.8003 25.0015 17.0206 24.7503 17.2394C24.5882 17.3819 24.4278 17.5263 24.2675 17.6709C24.0203 17.894 23.771 18.1144 23.5199 18.3331C23.3577 18.4756 23.1973 18.62 23.0371 18.7646C22.8333 18.9485 22.6288 19.1312 22.4218 19.3115C22.0994 19.5925 21.7822 19.8793 21.4648 20.166C21.1039 20.4919 20.7421 20.8164 20.3753 21.1358C20.2132 21.2784 20.0528 21.4227 19.8925 21.5674C19.6453 21.7905 19.396 22.0109 19.1449 22.2296C18.9827 22.3721 18.8223 22.5165 18.6621 22.6611C18.576 22.7384 18.576 22.7384 18.4882 22.8173C18.3808 22.9142 18.2738 23.0115 18.1673 23.1095C17.7388 23.4976 17.7388 23.4976 17.4316 23.584C17.133 23.3245 16.8366 23.0629 16.5429 22.7978C16.3392 22.614 16.1347 22.4312 15.9277 22.251C15.6614 22.019 15.3994 21.7826 15.1373 21.546C14.9916 21.4152 14.8449 21.2858 14.6972 21.1572C14.3151 20.8242 13.9401 20.4833 13.564 20.1436C13.2616 19.8709 12.9578 19.6003 12.6507 19.3329C12.4295 19.1385 12.2114 18.9406 11.9928 18.7433C11.847 18.6125 11.7003 18.4831 11.5527 18.3545C11.2864 18.1226 11.0244 17.8861 10.7623 17.6495C10.6166 17.5187 10.4699 17.3893 10.3222 17.2607C10.056 17.0288 9.79397 16.7923 9.53183 16.5558C9.38611 16.425 9.23941 16.2956 9.09177 16.167C8.88481 15.9867 8.68029 15.804 8.47653 15.6201C8.36262 15.5175 8.24869 15.415 8.13474 15.3125C8.08504 15.2676 8.03534 15.2228 7.98413 15.1766C7.91487 15.1148 7.91487 15.1148 7.84421 15.0519C7.80438 15.0162 7.76455 14.9805 7.72351 14.9437C7.55069 14.8039 7.36266 14.6838 7.1777 14.5605Z" fill="white"/>
</g>
<defs>
<clipPath id="clip0_387_795">
<rect width="35" height="35" fill="white"/>
</clipPath>
</defs>
</svg>
