<svg width="35" height="35" viewBox="0 0 35 35" fill="none" xmlns="http://www.w3.org/2000/svg">
<g clip-path="url(#clip0_387_784)">
<path d="M17.4743 -0.0213801C17.5439 -0.0212327 17.6135 -0.0210854 17.6853 -0.0209336C18.685 -0.0175359 19.662 0.00394163 20.6445 0.20506C20.7126 0.218278 20.7807 0.231496 20.8509 0.245115C23.5805 0.78446 26.2125 1.91467 28.3691 3.69139C28.4377 3.7462 28.5064 3.80101 28.5771 3.85748C29.2618 4.41257 29.8725 5.04458 30.4882 5.67381C30.3938 5.88588 30.2847 6.03155 30.1215 6.19599C30.074 6.24421 30.0265 6.29242 29.9775 6.3421C29.9254 6.39428 29.8732 6.44645 29.8195 6.50021C29.7646 6.5557 29.7097 6.61119 29.6531 6.66837C29.4713 6.85179 29.289 7.03468 29.1066 7.2175C28.9803 7.34448 28.8539 7.47146 28.7276 7.59845C28.4627 7.8645 28.1975 8.13019 27.9321 8.39575C27.6252 8.70296 27.3191 9.01105 27.0135 9.31955C26.7194 9.61624 26.4245 9.91197 26.1292 10.2074C26.0036 10.3333 25.8782 10.4594 25.7532 10.5859C25.5787 10.7622 25.4032 10.9374 25.2274 11.1123C25.1756 11.1652 25.1237 11.2181 25.0703 11.2726C25.0223 11.3198 24.9744 11.3671 24.9251 11.4157C24.8836 11.4573 24.8422 11.4988 24.7996 11.5416C24.6777 11.6211 24.6777 11.6211 24.5319 11.605C24.3849 11.5448 24.3115 11.4798 24.2043 11.3631C24.1672 11.324 24.1302 11.2849 24.0921 11.2446C24.0527 11.2025 24.0133 11.1603 23.9727 11.1169C23.4974 10.6258 22.9899 10.2221 22.4218 9.84373C22.3562 9.79967 22.2905 9.75561 22.2229 9.71022C20.1839 8.43692 17.6549 8.13924 15.3381 8.66453C13.6954 9.06214 12.2959 9.92537 11.0742 11.0742C11.0136 11.1281 11.0136 11.1281 10.9519 11.1831C9.8888 12.1707 9.11312 13.6481 8.74996 15.039C8.73722 15.0878 8.72447 15.1365 8.71134 15.1867C8.08867 17.637 8.50165 20.1244 9.77021 22.3019C10.1347 22.8968 10.5978 23.4192 11.0742 23.9258C11.1281 23.9863 11.1281 23.9863 11.1831 24.0481C12.2511 25.1978 13.8109 25.9428 15.3125 26.3183C15.3588 26.3299 15.4052 26.3415 15.453 26.3535C17.4888 26.8401 19.6691 26.5785 21.5332 25.6347C21.5786 25.6118 21.6241 25.5889 21.6709 25.5653C22.9104 24.9293 23.9747 24.0506 24.8059 22.9303C24.8351 22.8909 24.8644 22.8515 24.8946 22.8109C25.1574 22.4436 25.3457 22.0746 25.5664 21.6699C22.6112 21.6699 19.656 21.6699 16.6113 21.6699C16.6113 18.9178 16.6113 16.1656 16.6113 13.3301C22.5442 13.3301 28.4771 13.3301 34.5898 13.3301C35.0061 15.7448 35.0061 15.7448 35.011 16.2624C35.012 16.3494 35.012 16.3494 35.013 16.4383C35.0133 16.4992 35.0135 16.5601 35.0138 16.6228C35.0142 16.6882 35.0146 16.7535 35.015 16.8208C35.0157 16.9589 35.0161 17.097 35.0164 17.235C35.017 17.4408 35.0192 17.6465 35.0213 17.8523C35.0264 18.7763 34.9479 19.6652 34.7949 20.5762C34.782 20.6538 34.7692 20.7315 34.7559 20.8116C34.3752 22.9335 33.5569 24.9796 32.4023 26.7969C32.3329 26.9068 32.3329 26.9068 32.2621 27.019C31.2346 28.6005 29.9352 30.0913 28.4375 31.2402C28.3738 31.2921 28.3102 31.344 28.2447 31.3975C26.0615 33.1479 23.3816 34.2763 20.6445 34.7949C20.5892 34.8061 20.5338 34.8173 20.4768 34.8288C18.4195 35.2309 16.0611 35.1537 14.0136 34.7265C13.9527 34.7141 13.8918 34.7017 13.8291 34.6889C13.4295 34.6045 13.0378 34.5012 12.6464 34.3847C12.5834 34.3661 12.5204 34.3474 12.4555 34.3282C10.9512 33.8738 9.53012 33.2455 8.20309 32.4023C8.12977 32.3561 8.05646 32.3098 7.98092 32.2621C6.34974 31.2023 4.79222 29.8529 3.64093 28.281C3.55181 28.1602 3.46041 28.0414 3.36853 27.9227C2.61889 26.943 2.02806 25.8605 1.50387 24.7461C1.45166 24.6357 1.45166 24.6357 1.39839 24.5231C0.841927 23.2864 0.457119 21.975 0.205041 20.6445C0.193849 20.5892 0.182658 20.5339 0.171128 20.4769C-0.202771 18.5637 -0.194505 16.2631 0.205041 14.3555C0.218622 14.2888 0.232203 14.2222 0.246196 14.1535C0.803266 11.4904 1.86609 8.98163 3.55465 6.83592C3.60646 6.76965 3.65828 6.70339 3.71166 6.63511C4.55429 5.58332 5.49855 4.5884 6.56246 3.75975C6.62644 3.70749 6.69041 3.65524 6.75633 3.6014C8.80415 1.96156 11.2848 0.869571 13.8385 0.316144C13.9512 0.291675 13.9512 0.291675 14.0662 0.266711C15.2044 0.0330436 16.3153 -0.0257929 17.4743 -0.0213801ZM14.7656 1.91404C14.7044 1.92541 14.6432 1.93678 14.5802 1.94849C10.3895 2.75597 6.80212 5.19787 4.37496 8.68162C3.06413 10.6205 2.23659 12.8083 1.84567 15.1074C1.83746 15.1546 1.82925 15.2018 1.8208 15.2504C1.55504 16.8587 1.61459 18.6372 1.91402 20.2344C1.93108 20.3261 1.93108 20.3261 1.94847 20.4198C2.56727 23.6312 4.12993 26.357 6.35738 28.7109C6.401 28.7574 6.44462 28.804 6.48956 28.8519C6.82783 29.2023 7.20678 29.5024 7.58785 29.8047C7.69056 29.8874 7.69056 29.8874 7.79533 29.9718C10.0454 31.7637 12.806 32.8738 15.6543 33.2226C15.7038 33.2291 15.7533 33.2355 15.8042 33.2422C19.9051 33.7211 24.0238 32.4305 27.266 29.927C27.7698 29.5231 28.2422 29.0861 28.7109 28.6426C28.7574 28.5989 28.804 28.5553 28.8519 28.5104C29.2023 28.1721 29.5024 27.7932 29.8046 27.4121C29.8598 27.3436 29.915 27.2752 29.9718 27.2046C31.758 24.9618 32.8877 22.1894 33.2226 19.3457C33.229 19.2963 33.2354 19.247 33.242 19.1962C33.3055 18.6549 33.3044 18.1125 33.3038 17.5683C33.3038 17.5186 33.3038 17.4688 33.3039 17.4175C33.3606 16.1977 33.3606 16.1977 33.0859 15.039C28.2358 15.039 23.3857 15.039 18.3886 15.039C18.3886 16.6633 18.3886 18.2875 18.3886 19.9609C21.592 19.9835 24.7953 20.006 28.0957 20.0293C27.3488 22.1039 27.3488 22.1039 26.9336 22.832C26.9078 22.8773 26.882 22.9226 26.8554 22.9693C26.4664 23.6419 26.0264 24.2452 25.498 24.8144C25.4617 24.8537 25.4254 24.893 25.388 24.9335C24.5596 25.82 23.6357 26.511 22.5586 27.0703C22.5147 27.0933 22.4709 27.1163 22.4257 27.14C19.8447 28.475 16.8244 28.6443 14.0696 27.7752C11.342 26.8679 9.09217 24.9071 7.78856 22.3481C7.60525 21.972 7.45295 21.5861 7.31442 21.1914C7.29892 21.1473 7.28342 21.1033 7.26745 21.0579C6.3114 18.2894 6.53361 15.2772 7.79293 12.6465C8.13594 11.9581 8.5373 11.3297 9.0234 10.7324C9.05469 10.6938 9.08599 10.6552 9.11823 10.6154C10.7522 8.61381 12.9828 7.32171 15.5175 6.83592C15.5953 6.8205 15.673 6.80508 15.7531 6.78919C18.3867 6.35425 21.3691 6.93125 23.5621 8.48986C23.7403 8.62167 23.915 8.75667 24.0884 8.89471C24.2832 9.04556 24.2832 9.04556 24.6093 9.16014C25.7373 8.03221 26.8652 6.90428 28.0273 5.74217C25.8555 3.57035 22.8724 2.37484 19.8925 1.84569C19.8157 1.83192 19.8157 1.83192 19.7372 1.81788C18.1376 1.5483 16.3539 1.61626 14.7656 1.91404Z" fill="white"/>
</g>
<defs>
<clipPath id="clip0_387_784">
<rect width="35" height="35" fill="white"/>
</clipPath>
</defs>
</svg>
