<svg width="100" height="100" viewBox="0 0 100 100" fill="none" xmlns="http://www.w3.org/2000/svg">
<path d="M37.7533 10.8618C37.9718 10.8608 38.1903 10.8597 38.4154 10.8587C39.1456 10.8559 39.8757 10.8573 40.6059 10.8586C41.1302 10.8575 41.6545 10.8562 42.1788 10.8546C43.4539 10.8512 44.7291 10.8511 46.0043 10.8521C47.0411 10.8529 48.0779 10.8526 49.1148 10.8515C49.2625 10.8514 49.4103 10.8513 49.5625 10.8511C49.8627 10.8508 50.1629 10.8505 50.4631 10.8502C53.2762 10.8475 56.0894 10.8486 58.9026 10.8508C61.4739 10.8528 64.0452 10.8502 66.6165 10.8456C69.2593 10.8408 71.9021 10.8389 74.5449 10.8402C76.0276 10.8409 77.5102 10.8405 78.9929 10.837C80.2552 10.8342 81.5174 10.8341 82.7797 10.8375C83.4231 10.8391 84.0665 10.8391 84.71 10.8365C85.4089 10.834 86.1076 10.8362 86.8065 10.8397C87.008 10.8378 87.2095 10.8359 87.417 10.834C89.2015 10.8521 90.76 11.3217 92.0838 12.558C93.1989 13.7984 93.7981 15.159 93.8003 16.8375C93.8015 17.0781 93.8028 17.3187 93.8041 17.5666C93.8035 17.832 93.8029 18.0974 93.8023 18.3629C93.803 18.6461 93.8039 18.9293 93.805 19.2125C93.8073 19.9899 93.8073 20.7673 93.8068 21.5448C93.8068 22.3836 93.8089 23.2224 93.8108 24.0611C93.814 25.7043 93.8151 27.3474 93.8153 28.9905C93.8155 30.3262 93.8163 31.662 93.8175 32.9977C93.821 36.7853 93.8228 40.573 93.8225 44.3606C93.8225 44.5648 93.8224 44.769 93.8224 44.9793C93.8224 45.1838 93.8224 45.3882 93.8224 45.5988C93.8222 48.9115 93.826 52.2242 93.8315 55.5369C93.8371 58.9389 93.8398 62.3409 93.8394 65.7429C93.8393 67.6527 93.8404 69.5624 93.8446 71.4722C93.8481 73.0983 93.849 74.7243 93.8463 76.3504C93.8451 77.1798 93.845 78.0091 93.8484 78.8384C93.8515 79.5985 93.8509 80.3584 93.8475 81.1184C93.8469 81.3926 93.8476 81.6667 93.8498 81.9409C93.8654 84.0375 93.6043 85.8173 92.1296 87.3963C90.8323 88.5626 89.4532 89.1103 87.7048 89.1139C87.5722 89.1147 87.4397 89.1155 87.3031 89.1163C86.8592 89.1185 86.4154 89.118 85.9715 89.1174C85.6499 89.1184 85.3283 89.1196 85.0067 89.1209C84.1231 89.1241 83.2395 89.1248 82.356 89.1251C81.4029 89.1258 80.4499 89.1287 79.4969 89.1314C77.413 89.1367 75.3291 89.139 73.2452 89.1408C71.9438 89.1418 70.6423 89.1435 69.3409 89.1453C65.7369 89.15 62.133 89.154 58.529 89.1554C58.2984 89.1554 58.0678 89.1555 57.8302 89.1556C57.599 89.1557 57.3678 89.1558 57.1296 89.1559C56.6612 89.1561 56.1927 89.1562 55.7243 89.1564C55.4919 89.1565 55.2596 89.1566 55.0201 89.1567C51.2555 89.1582 47.491 89.165 43.7264 89.1741C39.8605 89.1834 35.9945 89.1883 32.1286 89.1887C29.9584 89.1891 27.7882 89.1913 25.618 89.1984C23.7699 89.2044 21.9218 89.2064 20.0737 89.2032C19.1311 89.2017 18.1887 89.202 17.2461 89.2075C16.3822 89.2125 15.5185 89.212 14.6546 89.2073C14.3431 89.2065 14.0315 89.2077 13.7201 89.2111C11.4102 89.2348 9.60786 88.8123 7.82475 87.2681C6.38867 85.6455 6.06719 83.9294 6.16764 81.8291C6.27277 80.8411 6.50484 80.1312 7.03129 79.2969C7.12017 79.1479 7.20904 78.9988 7.30061 78.8453C7.52942 78.4698 7.76444 78.1006 8.00785 77.7344C7.93006 77.6398 7.85226 77.5451 7.7721 77.4476C6.26979 75.5468 6.0383 73.8442 6.25004 71.4844C6.55997 70.1997 7.20089 69.1952 8.00785 68.1641C7.91369 68.0367 7.81953 67.9093 7.72251 67.7781C7.59915 67.6074 7.47578 67.4367 7.34867 67.2608C7.22631 67.0931 7.10395 66.9254 6.97788 66.7527C6.04062 65.2471 6.01704 63.4394 6.25004 61.7188C6.8239 59.8726 7.9348 58.4231 9.62705 57.4882C11.4512 56.6883 13.5122 56.9121 15.4625 56.9359C15.9017 56.9378 16.3409 56.9392 16.7801 56.9401C17.93 56.9438 19.0797 56.9534 20.2295 56.9643C21.4053 56.9743 22.5811 56.9787 23.7568 56.9836C26.0593 56.9941 28.3617 57.0107 30.6641 57.0313C30.6637 56.8258 30.6634 56.6202 30.663 56.4084C30.6543 51.4039 30.6479 46.3993 30.6439 41.3948C30.6419 38.9746 30.6391 36.5544 30.6346 34.1343C30.6307 32.0245 30.6282 29.9148 30.6274 27.8051C30.6268 26.6883 30.6256 25.5715 30.6228 24.4547C30.6201 23.4027 30.6193 22.3508 30.6199 21.2988C30.6198 20.9135 30.619 20.5282 30.6175 20.1429C30.5983 14.9599 30.5983 14.9599 32.2266 12.8907C33.8741 11.2706 35.5062 10.8488 37.7533 10.8618ZM34.7779 15.1978C32.451 18.7939 33.9844 25.1233 33.9844 28.1251C52.6758 28.1251 71.3672 28.1251 90.625 28.1251C91.4529 22.4217 91.4529 22.4217 89.502 14.856C88.1863 14.0211 86.9508 14.0058 85.4344 14.0116C85.2287 14.0109 85.023 14.0101 84.8111 14.0094C84.1231 14.0074 83.4351 14.0081 82.747 14.0089C82.2532 14.0081 81.7594 14.0071 81.2656 14.0059C80.0643 14.0035 78.8629 14.0031 77.6615 14.0035C76.6848 14.0039 75.708 14.0035 74.7312 14.0027C74.592 14.0026 74.4528 14.0025 74.3095 14.0023C74.0267 14.0021 73.744 14.0019 73.4613 14.0016C70.8113 13.9995 68.1613 13.9999 65.5113 14.0011C63.0889 14.0021 60.6665 13.9999 58.2441 13.9962C55.7547 13.9924 53.2653 13.9908 50.7759 13.9915C49.3792 13.9919 47.9824 13.9914 46.5856 13.9887C45.272 13.9861 43.9585 13.9866 42.6449 13.9891C42.1631 13.9896 41.6813 13.9891 41.1996 13.9875C40.5412 13.9854 39.883 13.987 39.2246 13.9895C39.0346 13.988 38.8446 13.9866 38.6488 13.9851C37.2629 13.9961 35.7564 14.1067 34.7779 15.1978ZM33.9844 31.2501C33.9844 39.7579 33.9844 48.2657 33.9844 57.0313C34.8223 57.1602 35.6602 57.2891 36.5235 57.4219C38.2523 58.1755 39.5856 59.3885 40.3008 61.1687C40.6959 62.8542 40.7294 64.8732 39.8873 66.4185C39.8085 66.5434 39.7297 66.6683 39.6485 66.7969C39.5596 66.946 39.4707 67.095 39.3792 67.2486C39.1503 67.6241 38.9153 67.9933 38.6719 68.3594C38.7886 68.5014 38.7886 68.5014 38.9077 68.6463C40.41 70.547 40.6415 72.2497 40.4297 74.6094C40.1198 75.8941 39.4789 76.8986 38.6719 77.9297C38.7661 78.0571 38.8602 78.1845 38.9573 78.3158C39.0806 78.4865 39.204 78.6572 39.3311 78.8331C39.4535 79.0007 39.5758 79.1684 39.7019 79.3412C40.3868 80.4413 40.4964 81.4291 40.4908 82.6905C40.4939 82.8305 40.4971 82.9705 40.5003 83.1147C40.5004 83.2542 40.5006 83.3936 40.5007 83.5374C40.5013 83.6608 40.5018 83.7843 40.5024 83.9115C40.4298 84.3745 40.2996 84.7487 40.1322 85.1853C40.0785 85.3261 40.0248 85.467 39.9694 85.6121C39.928 85.7195 39.8865 85.8269 39.8438 85.9376C45.885 85.9509 51.9262 85.9613 57.9674 85.9675C58.681 85.9682 59.3946 85.969 60.1082 85.9698C60.2502 85.9699 60.3923 85.9701 60.5387 85.9702C62.8374 85.9728 65.1361 85.9774 67.4348 85.9828C69.7944 85.9883 72.154 85.9915 74.5135 85.9927C75.8385 85.9934 77.1635 85.9952 78.4884 85.9995C79.7358 86.0035 80.9832 86.0047 82.2305 86.0038C82.688 86.004 83.1456 86.0052 83.6031 86.0074C84.2286 86.0103 84.8539 86.0096 85.4794 86.008C85.6597 86.0097 85.8401 86.0114 86.0258 86.0132C87.2498 86.0048 88.5778 85.8962 89.5688 85.1026C90.7288 83.8308 90.6814 82.3058 90.672 80.6906C90.6724 80.4794 90.6727 80.2682 90.673 80.0506C90.6737 79.3417 90.6715 78.6329 90.6694 77.9241C90.6693 77.4077 90.6693 76.8912 90.6695 76.3748C90.6697 75.132 90.6679 73.8892 90.6654 72.6464C90.6626 71.2084 90.6623 69.7704 90.662 68.3323C90.6599 64.5368 90.6545 60.7413 90.6495 56.9459C90.6414 48.4662 90.6333 39.9866 90.625 31.2501C71.9336 31.2501 53.2422 31.2501 33.9844 31.2501ZM9.80229 61.731C9.43793 62.6323 9.44501 63.4955 9.57035 64.4532C10.0246 65.4141 10.6097 65.8814 11.5235 66.4063C12.0865 66.594 12.4443 66.6274 13.0295 66.6304C13.2187 66.6318 13.4078 66.6332 13.6028 66.6346C13.81 66.6351 14.0173 66.6357 14.2309 66.6362C14.4495 66.6375 14.668 66.6388 14.8932 66.6401C15.6181 66.6439 16.3429 66.6462 17.0678 66.6482C17.3152 66.649 17.5627 66.6498 17.8177 66.6506C18.9925 66.6542 20.1674 66.6571 21.3423 66.6587C22.6961 66.6606 24.0499 66.6657 25.4037 66.6736C26.5781 66.6803 27.7524 66.6826 28.9267 66.6834C29.4253 66.6843 29.9239 66.6866 30.4225 66.6902C31.121 66.695 31.8193 66.6948 32.5178 66.6934C32.8258 66.6972 32.8258 66.6972 33.14 66.701C34.3648 66.6923 35.3114 66.5362 36.3282 65.8204C37.2426 64.8355 37.3847 64.1752 37.3726 62.8579C37.2695 62.0178 36.9299 61.5162 36.3282 60.9376C35.0917 59.9864 33.5868 60.1273 32.0993 60.1279C31.8921 60.1273 31.6849 60.1266 31.4714 60.1259C30.7878 60.1241 30.1041 60.1237 29.4205 60.1235C28.9442 60.1229 28.468 60.1222 27.9917 60.1215C26.9938 60.1204 25.9959 60.12 24.998 60.1201C23.7209 60.1201 22.4438 60.1175 21.1666 60.1141C20.1831 60.1119 19.1995 60.1115 18.2159 60.1116C17.7451 60.1114 17.2743 60.1106 16.8036 60.109C16.1445 60.1071 15.4854 60.1077 14.8263 60.1089C14.6329 60.1078 14.4395 60.1067 14.2402 60.1055C12.4288 60.1137 11.0528 60.308 9.80229 61.731ZM9.76567 71.4844C9.48243 72.3341 9.47061 73.1355 9.57035 74.0235C10.0573 74.9975 10.741 75.683 11.7188 76.1719C12.0279 76.1917 12.3379 76.1992 12.6477 76.2007C12.9417 76.2028 12.9417 76.2028 13.2417 76.2049C13.4577 76.2054 13.6736 76.206 13.896 76.2065C14.1228 76.2078 14.3496 76.2091 14.5832 76.2104C15.3364 76.2143 16.0895 76.2165 16.8427 76.2185C17.2278 76.2197 17.2278 76.2197 17.6207 76.2209C18.8394 76.2246 20.0581 76.2274 21.2767 76.229C22.6829 76.2309 24.0889 76.2361 25.4951 76.244C26.5822 76.2499 27.6693 76.2527 28.7565 76.2534C29.4056 76.2538 30.0547 76.256 30.7038 76.2605C31.4286 76.2653 32.1532 76.2651 32.878 76.2637C33.0923 76.2662 33.3066 76.2687 33.5274 76.2713C34.721 76.2631 35.4219 76.1916 36.3282 75.3907C37.1873 74.4154 37.3744 73.8457 37.3597 72.5663C37.252 71.5946 36.7174 71.0694 36.0108 70.4468C35.3549 69.9808 35.0223 69.8971 34.2274 69.8932C33.9333 69.8911 33.9333 69.8911 33.6333 69.889C33.3095 69.8882 33.3095 69.8882 32.9791 69.8874C32.7523 69.8861 32.5255 69.8848 32.2919 69.8835C31.5387 69.8796 30.7856 69.8773 30.0324 69.8754C29.7756 69.8746 29.5189 69.8738 29.2543 69.873C28.0357 69.8693 26.817 69.8665 25.5983 69.8649C24.1922 69.8629 22.7861 69.8578 21.38 69.8499C20.2929 69.844 19.2058 69.8411 18.1186 69.8405C17.4695 69.84 16.8204 69.8379 16.1713 69.8334C15.4465 69.8286 14.7219 69.8288 13.9971 69.8301C13.6756 69.8264 13.6756 69.8264 13.3476 69.8226C11.7008 69.8338 10.8652 70.222 9.76567 71.4844ZM10.0708 80.7862C9.43278 81.756 9.43008 82.6465 9.57035 83.7891C9.96755 84.7071 10.606 85.3395 11.5235 85.7422C12.6035 85.9853 13.6749 85.9664 14.7758 85.9659C15.0866 85.9669 15.0866 85.9669 15.4037 85.9679C16.0873 85.9698 16.7709 85.9702 17.4546 85.9704C17.9308 85.971 18.4071 85.9717 18.8834 85.9723C19.8813 85.9735 20.8792 85.9739 21.877 85.9738C23.1542 85.9737 24.4313 85.9764 25.7085 85.9798C26.692 85.9819 27.6756 85.9823 28.6591 85.9822C29.1299 85.9825 29.6007 85.9833 30.0715 85.9848C30.7306 85.9868 31.3897 85.9862 32.0487 85.985C32.2422 85.9861 32.4356 85.9872 32.6349 85.9883C34.1673 85.9814 35.5778 85.9067 36.7188 84.7657C37.412 83.9769 37.4038 83.1672 37.3726 82.1595C37.2753 81.416 37.0304 81.0158 36.5235 80.4688C35.6285 79.793 34.9621 79.4692 33.8456 79.4635C33.6564 79.4621 33.4672 79.4607 33.2723 79.4593C32.9614 79.4585 32.9614 79.4585 32.6442 79.4577C32.4256 79.4564 32.2071 79.4551 31.9819 79.4538C31.257 79.4499 30.5322 79.4477 29.8073 79.4457C29.5599 79.4449 29.3124 79.4441 29.0574 79.4433C27.8825 79.4396 26.7077 79.4368 25.5328 79.4352C24.179 79.4333 22.8252 79.4281 21.4714 79.4202C20.297 79.4136 19.1227 79.4113 17.9483 79.4105C17.4497 79.4096 16.9511 79.4073 16.4526 79.4037C15.7541 79.3989 15.0558 79.3991 14.3573 79.4005C14.0493 79.3967 14.0493 79.3967 13.7351 79.3929C12.2341 79.4035 11.1147 79.6621 10.0708 80.7862Z" fill="#0077B6"/>
<path d="M74.2188 43.5058C78.0739 46.6892 80.6951 50.9943 81.3897 55.9845C81.8617 61.545 80.5856 66.641 76.9913 70.9938C73.736 74.7183 69.25 77.3106 64.2579 77.7344C60.3647 77.9841 56.797 77.3714 53.3204 75.5859C53.1119 75.4814 52.9034 75.377 52.6887 75.2693C51.1158 74.4197 49.9016 73.3076 48.6329 72.0703C48.5045 71.9562 48.3761 71.8422 48.2438 71.7247C45.2446 68.995 43.3472 64.2819 43.1402 60.2804C43.068 57.9534 43.1319 55.7723 43.7501 53.5156C43.8044 53.3165 43.8588 53.1173 43.9148 52.9121C45.4218 47.969 48.7917 44.0512 53.2853 41.6032C60.0241 38.0312 68.221 38.8729 74.2188 43.5058ZM50.3541 48.0957C47.3685 51.6135 46.149 55.8039 46.4844 60.3515C46.8257 63.4325 48.0269 66.1758 50.0001 68.5547C50.1368 68.7231 50.2735 68.8915 50.4143 69.0651C52.9734 72.0712 56.6481 73.8975 60.5469 74.4141C65.3504 74.7237 69.5489 73.2991 73.1934 70.1782C76.1544 67.3568 77.9372 63.5379 78.1647 59.4421C78.2227 54.6851 76.678 50.6809 73.4047 47.2015C70.1024 44.0859 65.9689 42.6684 61.4602 42.7315C57.1698 42.872 53.2499 45.0071 50.3541 48.0957Z" fill="#0077B6"/>
<path d="M72.4731 55.9204C72.6079 55.9433 72.7426 55.9663 72.8815 55.9899C73.7918 56.1632 74.5681 56.42 75.3906 56.8359C75.879 57.5684 75.8859 57.9216 75.7812 58.789C75.3784 59.3628 75.3784 59.3628 74.8047 59.7656C73.8369 59.832 72.9979 59.6935 72.0581 59.4726C68.6618 58.7506 65.7485 59.5308 62.5244 60.5713C58.3231 61.9255 54.5484 61.7144 50.4379 60.0967C49.7548 59.7395 49.3215 59.3793 48.8281 58.789C48.7061 58.1054 48.7061 58.1054 48.8281 57.4218C49.2432 56.8481 49.2432 56.8481 49.8047 56.4453C50.8031 56.331 51.5833 56.6327 52.4902 57.0068C56.1918 58.456 59.1098 57.9104 62.8214 56.772C66.08 55.7737 69.0931 55.3408 72.4731 55.9204Z" fill="#0077B6"/>
<path d="M46.5698 16.4917C47.6537 17.1581 48.5267 18.1849 49.1211 19.2993C49.3877 20.9992 49.4017 22.546 48.4375 24.0234C47.716 24.9395 46.88 25.7505 45.7031 25.9766C44.1151 26.1185 42.5056 26.25 41.2109 25.1953C39.9439 24.0336 39.2586 22.8431 39.1724 21.1182C39.2356 19.5327 39.7372 18.3641 40.9058 17.2851C42.4051 16.0127 44.7352 15.6913 46.5698 16.4917ZM43.0908 19.8486C42.6982 20.4224 42.5923 20.789 42.5781 21.4844C42.9167 22.2126 42.9167 22.2126 43.5547 22.6562C44.4089 22.7529 44.789 22.7524 45.4956 22.2412C45.9331 21.7114 45.9331 21.7114 46.0205 21.0937C45.8534 20.2916 45.5823 20.009 44.9219 19.5312C44.141 19.4079 43.7486 19.3986 43.0908 19.8486Z" fill="#0077B6"/>
<path d="M61.4257 16.6015C62.6556 17.3135 63.429 18.3846 63.8671 19.7265C64.0681 21.4594 63.9743 22.9969 62.8906 24.414C61.5147 25.7455 60.2072 26.0803 58.3175 26.0505C57.0276 25.9142 55.9579 25.3991 55.0903 24.4263C54.1905 23.0902 53.7854 21.9066 53.9482 20.285C54.2487 18.8308 54.9512 17.7417 56.1767 16.9067C57.735 15.9308 59.7422 15.8379 61.4257 16.6015ZM57.4218 20.3125C57.2108 20.7814 57.2108 20.7814 57.2265 21.289C57.4971 21.8432 57.7675 22.2207 58.2031 22.6562C59.2856 22.768 59.2856 22.768 60.2539 22.3633C60.6682 21.6727 60.7013 21.0978 60.5468 20.3125C60.2864 19.7916 60.2864 19.7916 59.7656 19.5312C58.7519 19.3318 58.0308 19.4112 57.4218 20.3125Z" fill="#0077B6"/>
<path d="M70.6786 19.4936C70.8374 19.492 70.9963 19.4904 71.1599 19.4888C71.6867 19.4839 72.2134 19.4807 72.7402 19.4779C73.0097 19.4763 73.0097 19.4763 73.2846 19.4747C74.2353 19.4695 75.186 19.4657 76.1367 19.4629C77.1197 19.4596 78.1026 19.4509 79.0856 19.4409C79.8406 19.4344 80.5956 19.4321 81.3506 19.431C81.713 19.4297 82.0754 19.4267 82.4378 19.422C82.9448 19.4159 83.4514 19.4159 83.9583 19.4173C84.1083 19.4141 84.2583 19.4109 84.4128 19.4076C85.1605 19.4164 85.4794 19.4673 86.0307 19.99C86.3969 20.6275 86.4488 20.9554 86.3281 21.6797C86.0303 22.1969 86.0303 22.1969 85.5469 22.6563C84.9813 22.7538 84.5299 22.7882 83.9645 22.7795C83.8057 22.7809 83.6468 22.7823 83.4831 22.7838C82.9583 22.7871 82.4339 22.7833 81.9092 22.7791C81.5443 22.7793 81.1795 22.7797 80.8146 22.7805C80.0502 22.7811 79.2858 22.7782 78.5213 22.7729C77.5414 22.7662 76.5616 22.7674 75.5816 22.771C74.8283 22.7731 74.075 22.7713 73.3217 22.7684C72.9604 22.7674 72.599 22.7675 72.2377 22.7687C71.7327 22.7698 71.228 22.7658 70.723 22.7605C70.5736 22.7617 70.4242 22.763 70.2703 22.7643C69.5871 22.752 69.2113 22.7107 68.6625 22.2881C68.2981 21.7916 68.1788 21.5162 68.1641 20.8985C68.7375 19.4785 69.2549 19.5015 70.6786 19.4936Z" fill="#0077B6"/>
</svg>
