<svg width="35" height="35" viewBox="0 0 35 35" fill="none" xmlns="http://www.w3.org/2000/svg">
<g clip-path="url(#clip0_387_792)">
<path d="M20.2343 0.273434C20.2853 0.286961 20.3363 0.300487 20.3889 0.314423C22.3283 0.846396 23.9636 1.85138 25.4296 3.21289C25.4956 3.2721 25.4956 3.2721 25.5629 3.33252C27.4 5.05796 28.6808 7.85369 28.7903 10.3705C28.8162 12.8215 28.8162 12.8215 28.5742 13.8086C28.5538 13.8938 28.5538 13.8938 28.533 13.9807C28.1426 15.5684 27.4225 16.964 26.5087 18.3099C26.2849 18.641 26.0709 18.9783 25.8569 19.3158C25.8164 19.3796 25.7759 19.4435 25.7341 19.5093C25.6512 19.6402 25.5682 19.771 25.4853 19.902C25.2849 20.2181 25.0838 20.5338 24.8828 20.8496C24.8043 20.973 24.7258 21.0963 24.6473 21.2197C24.2472 21.8483 23.8472 22.4769 23.4472 23.1055C23.505 23.1129 23.5628 23.1202 23.6223 23.1279C24.2163 23.2077 24.7949 23.318 25.3784 23.4558C25.4222 23.4661 25.4659 23.4764 25.511 23.4871C27.8512 24.0413 31.036 24.8721 32.4023 27.0703C32.8815 27.9286 33.0047 28.7278 32.841 29.6989C32.4356 31.0836 31.2019 31.9625 30.0045 32.6381C27.7779 33.8403 25.2179 34.364 22.7337 34.7137C22.6863 34.7205 22.6389 34.7273 22.59 34.7343C20.9607 34.9643 19.3286 35.026 17.6851 35.0217C17.5361 35.0214 17.387 35.0212 17.2379 35.0211C15.7669 35.0189 14.3122 34.9819 12.8515 34.7949C12.7275 34.7801 12.7275 34.7801 12.601 34.765C9.71545 34.4166 6.35044 33.7771 3.9648 31.9922C3.86818 31.9207 3.86818 31.9207 3.7696 31.8477C2.98341 31.2372 2.33288 30.4597 2.1191 29.4629C2.01393 28.2605 2.27391 27.4219 3.04622 26.4935C5.06188 24.3026 8.52981 23.5771 11.3476 23.1055C11.4153 23.1055 11.483 23.1055 11.5527 23.1055C11.0434 22.2977 10.5323 21.491 10.0191 20.6857C9.85845 20.4334 9.69807 20.181 9.53796 19.9284C9.45901 19.8039 9.38006 19.6795 9.3011 19.5551C9.26201 19.4934 9.22292 19.4317 9.18264 19.3681C8.97627 19.0434 8.76735 18.7207 8.55423 18.4004C6.74027 15.6714 5.70714 12.594 6.33602 9.28833C6.38311 9.06169 6.4365 8.83745 6.4941 8.61328C6.5069 8.56142 6.5197 8.50956 6.53288 8.45613C6.71713 7.72361 6.98571 7.03664 7.31441 6.35742C7.33547 6.31389 7.35653 6.27036 7.37823 6.22551C8.74116 3.4544 11.194 1.46997 14.0844 0.465328C14.3092 0.392099 14.5364 0.331395 14.7656 0.273434C14.8415 0.253475 14.8415 0.253475 14.919 0.233113C16.5984 -0.190628 18.5623 -0.171204 20.2343 0.273434ZM15.3125 2.32422C15.2292 2.34736 15.2292 2.34736 15.1443 2.37098C12.6645 3.08522 10.653 4.6869 9.38889 6.94243C8.89063 7.86327 8.5997 8.81806 8.40816 9.84375C8.39614 9.90736 8.38413 9.97098 8.37174 10.0365C8.21036 11.1347 8.24569 12.4659 8.54488 13.5352C8.56748 13.6172 8.56748 13.6172 8.59054 13.7008C8.93603 14.9137 9.49013 15.9828 10.2026 17.0183C10.4274 17.3459 10.6394 17.6814 10.852 18.017C10.8926 18.081 10.9332 18.145 10.9751 18.211C11.0581 18.342 11.1412 18.473 11.2242 18.604C11.4216 18.9156 11.6196 19.2268 11.8176 19.538C11.8762 19.6302 11.8762 19.6302 11.9361 19.7242C12.2404 20.2024 12.5458 20.6799 12.8515 21.1572C13.315 21.8809 13.7769 22.6057 14.238 23.3309C14.4366 23.6432 14.6353 23.9554 14.8339 24.2676C14.9137 24.3929 14.9934 24.5182 15.0732 24.6436C15.1127 24.7056 15.1522 24.7676 15.1928 24.8315C15.3125 25.0195 15.4321 25.2075 15.5517 25.3955C15.5913 25.4576 15.6308 25.5198 15.6715 25.5838C15.7507 25.7082 15.8298 25.8325 15.909 25.9569C16.1176 26.2848 16.3263 26.6126 16.5352 26.9403C16.5787 27.0085 16.6222 27.0768 16.667 27.1471C16.7502 27.2778 16.8335 27.4084 16.9169 27.5391C16.9733 27.6276 16.9733 27.6276 17.0308 27.7179C17.0637 27.7695 17.0966 27.8211 17.1306 27.8743C17.2011 27.9868 17.268 28.1016 17.3327 28.2176C17.3654 28.2676 17.398 28.3176 17.4316 28.3691C17.4767 28.3691 17.5218 28.3691 17.5683 28.3691C17.6677 28.2402 17.6677 28.2402 17.7675 28.0703C17.8077 28.0051 17.8479 27.9399 17.8893 27.8727C17.9546 27.7653 17.9546 27.7653 18.0212 27.6556C18.1147 27.5039 18.2082 27.3522 18.3018 27.2006C18.338 27.1419 18.338 27.1419 18.3749 27.082C18.6241 26.6778 18.8797 26.2778 19.1363 25.8783C19.1815 25.8078 19.2267 25.7373 19.2733 25.6647C19.3652 25.5215 19.4571 25.3783 19.549 25.2352C19.7806 24.8744 20.0118 24.5133 20.2429 24.1522C20.2882 24.0813 20.3336 24.0105 20.3803 23.9375C20.8343 23.228 21.2864 22.5174 21.7382 21.8066C22.2844 20.9475 22.8316 20.0891 23.3808 19.2319C23.7243 18.6953 24.067 18.1582 24.4078 17.6198C24.5859 17.3389 24.7653 17.0594 24.9511 16.7836C26.0671 15.1217 26.6885 13.3578 26.6857 11.3434C26.6857 11.2972 26.6857 11.2511 26.6856 11.2036C26.6768 8.79961 25.7168 6.70049 24.1308 4.92187C24.0659 4.84825 24.0659 4.84825 23.9997 4.77314C22.5714 3.25021 20.3522 2.2244 18.2803 2.10502C18.0257 2.09844 17.7717 2.09661 17.517 2.09778C17.4721 2.09795 17.4272 2.09812 17.3809 2.09829C16.6699 2.10244 15.9994 2.13284 15.3125 2.32422ZM4.53464 28.0543C4.2867 28.3523 4.1857 28.6397 4.20246 29.0239C4.33834 29.6526 4.90557 30.0794 5.41644 30.4125C7.70947 31.8534 10.5197 32.3806 13.172 32.6929C13.2202 32.6986 13.2684 32.7042 13.3181 32.7101C14.3068 32.825 15.2921 32.8911 16.2879 32.8947C16.3773 32.8952 16.4667 32.8957 16.5588 32.8962C16.8455 32.8975 17.1321 32.8979 17.4188 32.8979C17.4677 32.898 17.5165 32.898 17.5669 32.898C19.0578 32.8985 20.5319 32.8771 22.0117 32.6758C22.1043 32.6636 22.197 32.6513 22.2897 32.6391C23.5129 32.4755 24.7162 32.246 25.9082 31.9238C25.9691 31.9075 26.03 31.8912 26.0927 31.8745C27.6179 31.4604 29.3357 30.8726 30.4199 29.668C30.4517 29.6331 30.4835 29.5982 30.5163 29.5622C30.7397 29.2909 30.813 29.0764 30.7897 28.724C30.6812 28.1441 30.1869 27.7289 29.7339 27.3966C27.8255 26.0933 24.4794 24.8363 22.1484 25.0879C22.0108 25.211 22.0108 25.211 21.9115 25.3859C21.8513 25.4799 21.8513 25.4799 21.7898 25.5759C21.7502 25.6404 21.7107 25.705 21.6699 25.7715C21.5958 25.8858 21.5217 26.0001 21.4474 26.1143C21.3719 26.2335 21.2965 26.3528 21.2213 26.4722C21.1372 26.605 21.053 26.7378 20.9689 26.8706C20.9264 26.9378 20.884 27.005 20.8402 27.0742C20.6389 27.3923 20.4366 27.7098 20.2343 28.0273C19.99 28.4111 19.7458 28.795 19.5021 29.1793C19.2685 29.5478 19.0339 29.9157 18.7988 30.2832C18.754 30.3534 18.754 30.3534 18.7084 30.425C18.6337 30.5419 18.5582 30.6582 18.4826 30.7745C18.4242 30.8648 18.4242 30.8648 18.3646 30.9569C18.1935 31.1796 18.0392 31.2884 17.7734 31.3769C17.3785 31.4028 17.1649 31.3796 16.8164 31.1719C16.4084 30.7394 16.1157 30.1772 15.8096 29.67C15.597 29.3179 15.379 28.9701 15.1544 28.6255C14.8651 28.1816 14.5794 27.7356 14.2956 27.2882C13.969 26.7739 13.6403 26.2611 13.3087 25.7501C13.2706 25.6913 13.2325 25.6325 13.1932 25.5719C13.1583 25.5182 13.1233 25.4645 13.0873 25.4091C13.0411 25.3381 13.0411 25.3381 12.994 25.2656C12.9264 25.1585 12.9264 25.1585 12.8515 25.0879C10.273 24.9772 6.32875 26.1421 4.53464 28.0543Z" fill="white"/>
<path d="M20.5584 7.12955C20.8093 7.33469 21.0349 7.55994 21.2598 7.79291C21.3102 7.8412 21.3606 7.88949 21.4125 7.93924C22.2973 8.83773 22.649 10.1198 22.6611 11.3476C22.6477 12.7092 22.2153 13.96 21.2395 14.929C21.1785 14.9879 21.1175 15.0467 21.0547 15.1074C21.0064 15.1578 20.9581 15.2082 20.9084 15.2601C20.0099 16.1449 18.7278 16.4966 17.5 16.5087C16.1384 16.4953 14.8876 16.0629 13.9186 15.0871C13.8597 15.0261 13.8009 14.9651 13.7402 14.9023C13.6898 14.854 13.6394 14.8057 13.5875 14.756C12.7027 13.8575 12.351 12.5754 12.3389 11.3476C12.3523 9.98597 12.7847 8.73519 13.7605 7.76621C13.8215 7.70735 13.8825 7.64848 13.9453 7.58783C13.9936 7.53743 14.0419 7.48703 14.0916 7.43509C15.7457 5.80634 18.7378 5.77413 20.5584 7.12955ZM15.3809 9.1601C15.3373 9.20081 15.2938 9.24152 15.2489 9.28347C14.6688 9.88358 14.4692 10.6601 14.4659 11.4716C14.4803 12.2586 14.7769 12.8953 15.3125 13.4667C15.3736 13.532 15.3736 13.532 15.4359 13.5987C16.036 14.1788 16.8125 14.3784 17.624 14.3817C18.411 14.3673 19.0477 14.0707 19.6191 13.5351C19.6844 13.474 19.6844 13.474 19.7511 13.4117C20.3312 12.8116 20.5308 12.0351 20.5341 11.2236C20.5197 10.4366 20.2231 9.79989 19.6875 9.22846C19.6264 9.16316 19.6264 9.16316 19.5641 9.09655C18.964 8.51636 18.1875 8.3168 17.376 8.31347C16.589 8.32795 15.9523 8.62453 15.3809 9.1601Z" fill="white"/>
</g>
<defs>
<clipPath id="clip0_387_792">
<rect width="35" height="35" fill="white"/>
</clipPath>
</defs>
</svg>
