<svg xmlns="http://www.w3.org/2000/svg" viewBox="0 0 370.64 100"><defs><style>.cls-1{fill:#0077b6;}.cls-2{fill:#fdc500;}.cls-3{fill:#4caf50;}.cls-4{fill:#fff;}</style></defs><g id="Layer_2" data-name="Layer 2"><g id="Layer_1-2" data-name="Layer 1"><path class="cls-1" d="M82,72.23a26.15,26.15,0,0,1-3.86,13.82A27.17,27.17,0,0,1,66.81,96.21,38.57,38.57,0,0,1,49.11,100,44.3,44.3,0,0,1,31.6,96.68a28.85,28.85,0,0,1-12.32-9.57,25.13,25.13,0,0,1-4.66-14.74h20a12.91,12.91,0,0,0,4.06,9q3.66,3.32,10.05,3.31T59,81.6a10.12,10.12,0,0,0,3.73-8.17,9.45,9.45,0,0,0-2.53-6.78,17.63,17.63,0,0,0-6.33-4.18,108.34,108.34,0,0,0-10.44-3.39,110.53,110.53,0,0,1-14.71-5.25A26.12,26.12,0,0,1,18.94,46q-4.07-5.25-4.06-14c0-.62,0-1.22,0-1.82.53-.11,1.05-.24,1.58-.37,1.52-.41,3-.83,4.54-1.27,3.72-1.11,7.38-2.3,11-3.57.65-.22,1.28-.45,1.92-.69q2.13-.77,4.23-1.56a7.51,7.51,0,0,0-.65.5Q34.32,26,34.32,31.3a8.38,8.38,0,0,0,2.46,6.18,18.92,18.92,0,0,0,6.13,4Q46.57,43,53.23,45A110.13,110.13,0,0,1,68,50.3a26.33,26.33,0,0,1,9.86,8Q82,63.6,82,72.23Z"/><path class="cls-2" d="M116,29.29a141.23,141.23,0,0,1-14.6-2.47l-1.92-.45c-3.2-.85-6.35-1.8-9.48-2.8q-3.06-1-6.1-2c-1.55-.54-3.11-1.1-4.66-1.68-2-.77-4.1-1.56-6.13-2.39l-1.44-.58,0,0a25.15,25.15,0,0,0-4.35-1.82l-2.19-.94h0c-1.23-.55-2.46-1.11-3.68-1.63L58,10.85l-3.41,1.59-2.27,1c-1.49.67-3,1.34-4.5,2l-.08,0c-.7.26-1.39.54-2,.86l-2.16.88a11.82,11.82,0,0,0-5.29,2.07c-1.4.54-2.81,1.06-4.22,1.57l-1.92.69c-3.65,1.26-7.31,2.45-11,3.56-1.5.45-3,.87-4.54,1.28-.53.12-1.05.26-1.57.37l-.2,0A140.92,140.92,0,0,1,0,29.29l14.18-7.71L16,20.71l2.24-1.1,2.86-1.41,7.6-3.74L54,1.94l0,0L57.57.2,58,0l.44.2L62.2,2.07,86.33,14l1,.5,10.71,5.27,3.76,1.85Z"/><path class="cls-3" d="M57.43,30H49.81V37.6h7.62Z"/><path class="cls-1" d="M57.43,19.9H49.81v7.64h7.62Z"/><path class="cls-1" d="M67.51,30H59.89V37.6h7.62Z"/><path class="cls-3" d="M67.51,19.9H59.89v7.64h7.62Z"/><path class="cls-4" d="M101.8,80.4a15.52,15.52,0,0,1-7.4-1.75,13,13,0,0,1-5.15-5,15.14,15.14,0,0,1-1.85-7.6,14.65,14.65,0,0,1,1.9-7.55,12.89,12.89,0,0,1,5.2-5,16.52,16.52,0,0,1,14.8,0,12.89,12.89,0,0,1,5.2,5,15.87,15.87,0,0,1,0,15.15,12.9,12.9,0,0,1-5.25,5A15.52,15.52,0,0,1,101.8,80.4Zm0-7.4A5.49,5.49,0,0,0,106,71.2a7.08,7.08,0,0,0,1.75-5.15A7.24,7.24,0,0,0,106,60.9a5.63,5.63,0,0,0-8.25,0,7.24,7.24,0,0,0-1.65,5.15,7.49,7.49,0,0,0,1.6,5.15A5.34,5.34,0,0,0,101.8,73Zm54.74-21.2A11,11,0,0,1,164.79,55c2.06,2.1,3.1,5,3.1,8.75V80h-8.5V64.85a5.65,5.65,0,0,0-1.45-4.15,5.09,5.09,0,0,0-3.9-1.5,5.22,5.22,0,0,0-3.95,1.5,5.71,5.71,0,0,0-1.4,4.15V80h-8.5V64.85a5.65,5.65,0,0,0-1.45-4.15,5.09,5.09,0,0,0-3.9-1.5,5.22,5.22,0,0,0-4,1.5,5.71,5.71,0,0,0-1.4,4.15V80h-8.55V52.1h8.55v3.5a8.89,8.89,0,0,1,3.4-2.75,10.47,10.47,0,0,1,4.75-1.05,11.43,11.43,0,0,1,5.6,1.35,9.7,9.7,0,0,1,3.9,3.85,11.21,11.21,0,0,1,4-3.75A10.61,10.61,0,0,1,156.54,51.8Zm34.33,0a10,10,0,0,1,7.8,3.2c2,2.1,3,5,3,8.7V80h-8.5V64.85a6.14,6.14,0,0,0-1.45-4.35,5.68,5.68,0,0,0-7.8,0,6.1,6.1,0,0,0-1.45,4.35V80h-8.55V52.1h8.55v3.7a8.78,8.78,0,0,1,3.5-2.9A10.92,10.92,0,0,1,190.87,51.8Zm15,14.2a16.85,16.85,0,0,1,1.6-7.55,12.27,12.27,0,0,1,4.45-5,11.51,11.51,0,0,1,6.25-1.75,10.62,10.62,0,0,1,5.15,1.2,8.8,8.8,0,0,1,3.45,3.15V52.1h8.55V80h-8.55v-4a9.24,9.24,0,0,1-3.5,3.15,10.62,10.62,0,0,1-5.15,1.2,11.41,11.41,0,0,1-6.2-1.75,12.61,12.61,0,0,1-4.45-5.05A17.16,17.16,0,0,1,205.86,66Zm20.9,0a6.93,6.93,0,0,0-1.8-5,5.7,5.7,0,0,0-4.3-1.85A5.86,5.86,0,0,0,216.31,61a6.86,6.86,0,0,0-1.75,5,7.23,7.23,0,0,0,1.75,5.1A5.86,5.86,0,0,0,220.66,73,5.7,5.7,0,0,0,225,71.1,6.93,6.93,0,0,0,226.76,66.05ZM257,72.75V80h-4.35a10.74,10.74,0,0,1-7.25-2.25c-1.73-1.53-2.6-4-2.6-7.45V59.2h-3.4V52.1h3.4V45.3h8.55v6.8H257v7.1h-5.6V70.4a2.35,2.35,0,0,0,.6,1.8,2.92,2.92,0,0,0,2,.55ZM279,51.8a9.89,9.89,0,0,1,7.7,3.2c1.94,2.1,2.9,5,2.9,8.7V80h-8.5V64.85a6.14,6.14,0,0,0-1.44-4.35,5.69,5.69,0,0,0-7.81,0,6.14,6.14,0,0,0-1.44,4.35V80H261.8V43h8.56V55.85a9.06,9.06,0,0,1,3.54-3A11.41,11.41,0,0,1,279,51.8Zm53.89,4.4a11.38,11.38,0,0,1-1.4,5.6,10.24,10.24,0,0,1-4.3,4,15.16,15.16,0,0,1-7.2,1.55h-5.3V80h-8.55V44.9h13.85a15.71,15.71,0,0,1,7.1,1.45,9.91,9.91,0,0,1,4.35,4A11.59,11.59,0,0,1,332.84,56.2Zm-13.55,4.4a5.07,5.07,0,0,0,3.65-1.15,5,5,0,0,0,0-6.5,5.07,5.07,0,0,0-3.65-1.15h-4.65v8.8Zm41.3-4.6a6.18,6.18,0,0,0-2.75-2.65,9.46,9.46,0,0,0-10.8,1.8,10.29,10.29,0,0,0-2.5,7.25,10.63,10.63,0,0,0,2.6,7.6,9.71,9.71,0,0,0,7.25,2.7,8.6,8.6,0,0,0,5.3-1.6,9,9,0,0,0,3.2-4.6H352V60.2h18.6v8a16.43,16.43,0,0,1-3.25,5.95,16.7,16.7,0,0,1-5.75,4.45,17.86,17.86,0,0,1-7.9,1.7,19,19,0,0,1-9.3-2.25,16.62,16.62,0,0,1-6.35-6.35,18.72,18.72,0,0,1-2.25-9.25,18.72,18.72,0,0,1,2.25-9.25,16.22,16.22,0,0,1,6.35-6.35,18.45,18.45,0,0,1,9.25-2.3,17.86,17.86,0,0,1,10.6,3A14.33,14.33,0,0,1,370,56Z"/></g></g></svg>