<svg width="373" height="100" viewBox="0 0 373 100" fill="none" xmlns="http://www.w3.org/2000/svg">
<path d="M81.9843 72.228C82.0069 77.1028 80.6693 81.8876 78.1211 86.0466C75.5467 90.2989 71.7751 93.6876 66.8063 96.2125C61.8376 98.7375 55.9372 100 49.1052 100C42.6272 100 36.7925 98.892 31.6012 96.6759C26.4099 94.4598 22.3045 91.2711 19.2849 87.1097C16.2623 82.9472 14.7065 78.0342 14.6174 72.3705H34.5933C34.8594 76.1797 36.2113 79.1913 38.6491 81.4052C41.0869 83.6192 44.4387 84.7257 48.7046 84.7247C53.0522 84.7247 56.4682 83.6843 58.9526 81.6036C61.437 79.5229 62.6792 76.7996 62.6792 73.4336C62.6792 70.6876 61.8366 68.4276 60.1513 66.6537C58.4661 64.8799 56.357 63.4851 53.8239 62.4696C51.2982 61.455 47.8159 60.3264 43.3771 59.0835C37.336 57.3086 32.4325 55.5559 28.6666 53.8254C24.9007 52.0949 21.6596 49.4827 18.9433 45.9886C16.2343 42.4863 14.8804 37.8124 14.8814 31.967C14.8814 31.3471 14.8969 30.7474 14.9342 30.1539C15.4606 30.0392 15.9823 29.909 16.5056 29.7835C18.0288 29.3713 19.5489 28.9498 21.0473 28.5066C24.7739 27.4016 28.4336 26.2084 32.0841 24.9423C32.7254 24.7222 33.362 24.4944 34.0049 24.248C35.4189 23.7428 36.8282 23.2221 38.2329 22.6859C38.0093 22.8409 37.7904 23.0144 37.5808 23.1911C35.407 25.0507 34.3201 27.7534 34.3201 31.2991C34.3201 33.7786 35.1415 35.8381 36.7842 37.4777C38.427 39.1173 40.4684 40.4464 42.9082 41.4651C45.3502 42.4806 48.7905 43.6527 53.2292 44.9813C59.2601 46.7583 64.1848 48.5301 68.0035 50.2968C71.8222 52.0634 75.1062 54.7222 77.8556 58.273C80.6081 61.8218 81.9843 66.4735 81.9843 72.228Z" fill="#0077B6"/>
<path d="M116 29.2892C111.094 28.7249 106.222 27.9003 101.404 26.819C100.763 26.6733 100.121 26.5224 99.4789 26.3664C96.2787 25.5219 93.1251 24.5734 89.9979 23.5677C87.9561 22.9168 85.9251 22.235 83.9004 21.5361C82.3476 20.9999 80.7949 20.4404 79.2422 19.8577C77.1853 19.0922 75.1419 18.2967 73.112 17.4712C72.6322 17.2791 72.1524 17.0869 71.671 16.8885C71.6601 16.8847 71.6497 16.8795 71.64 16.873C70.2517 16.1306 68.796 15.5214 67.2923 15.0537C66.561 14.7438 65.8312 14.423 65.1045 14.1053H65.0952C63.8732 13.5582 62.6403 13.0019 61.4199 12.475L57.9915 10.8478L54.5754 12.4425C53.8177 12.7695 53.0662 13.1088 52.3085 13.4529C50.8163 14.1192 49.3226 14.7918 47.8055 15.4117C47.7819 15.4223 47.7575 15.4311 47.7326 15.438C47.0323 15.6984 46.3351 15.9804 45.6752 16.2981C44.9594 16.5941 44.2451 16.887 43.5246 17.1783C41.4611 17.4883 39.7018 18.1779 38.2345 19.2518C36.8308 19.788 35.4215 20.3092 34.0064 20.8155C33.3636 21.0603 32.7269 21.2897 32.0857 21.5082C28.4352 22.7696 24.777 23.9629 21.0488 25.0724C19.5505 25.5157 18.0303 25.9387 16.5071 26.3494C15.9838 26.4749 15.4621 26.6051 14.9357 26.7198C14.8721 26.7353 14.8038 26.7461 14.7416 26.7616C9.87596 27.8635 4.95517 28.7072 0 29.2892L14.1796 21.5825L15.9543 20.707L18.1949 19.6082L21.0504 18.2011L28.6464 14.4602L54.0351 1.93866L54.0708 1.92317L57.5691 0.19836L57.9915 0L58.4309 0.19836L62.2009 2.06884L86.3319 13.9472L87.3645 14.4524L98.0675 19.7214L101.827 21.5701L116 29.2892Z" fill="#FDC500"/>
<path d="M57.4294 29.9896H49.8055V37.5986H57.4294V29.9896Z" fill="#4CAF50"/>
<path d="M57.4294 19.9042H49.8055V27.5365H57.4294V19.9042Z" fill="#0077B6"/>
<path d="M67.5113 29.9896H59.8874V37.5986H67.5113V29.9896Z" fill="#0077B6"/>
<path d="M67.5113 19.9042H59.8874V27.5365H67.5113V19.9042Z" fill="#4CAF50"/>
<path d="M101.8 80.4C99.0667 80.4 96.6 79.8167 94.4 78.65C92.2333 77.4833 90.5167 75.8167 89.25 73.65C88.0167 71.4833 87.4 68.95 87.4 66.05C87.4 63.1833 88.0333 60.6667 89.3 58.5C90.5667 56.3 92.3 54.6167 94.5 53.45C96.7 52.2833 99.1667 51.7 101.9 51.7C104.633 51.7 107.1 52.2833 109.3 53.45C111.5 54.6167 113.233 56.3 114.5 58.5C115.767 60.6667 116.4 63.1833 116.4 66.05C116.4 68.9167 115.75 71.45 114.45 73.65C113.183 75.8167 111.433 77.4833 109.2 78.65C107 79.8167 104.533 80.4 101.8 80.4ZM101.8 73C103.433 73 104.817 72.4 105.95 71.2C107.117 70 107.7 68.2833 107.7 66.05C107.7 63.8167 107.133 62.1 106 60.9C104.9 59.7 103.533 59.1 101.9 59.1C100.233 59.1 98.85 59.7 97.75 60.9C96.65 62.0667 96.1 63.7833 96.1 66.05C96.1 68.2833 96.6333 70 97.7 71.2C98.8 72.4 100.167 73 101.8 73ZM156.536 51.8C160.003 51.8 162.753 52.85 164.786 54.95C166.853 57.05 167.886 59.9667 167.886 63.7V80H159.386V64.85C159.386 63.05 158.903 61.6667 157.936 60.7C157.003 59.7 155.703 59.2 154.036 59.2C152.369 59.2 151.053 59.7 150.086 60.7C149.153 61.6667 148.686 63.05 148.686 64.85V80H140.186V64.85C140.186 63.05 139.703 61.6667 138.736 60.7C137.803 59.7 136.503 59.2 134.836 59.2C133.169 59.2 131.853 59.7 130.886 60.7C129.953 61.6667 129.486 63.05 129.486 64.85V80H120.936V52.1H129.486V55.6C130.353 54.4333 131.486 53.5167 132.886 52.85C134.286 52.15 135.869 51.8 137.636 51.8C139.736 51.8 141.603 52.25 143.236 53.15C144.903 54.05 146.203 55.3333 147.136 57C148.103 55.4667 149.419 54.2167 151.086 53.25C152.753 52.2833 154.569 51.8 156.536 51.8ZM190.866 51.8C194.132 51.8 196.732 52.8667 198.666 55C200.632 57.1 201.616 60 201.616 63.7V80H193.116V64.85C193.116 62.9833 192.632 61.5333 191.666 60.5C190.699 59.4667 189.399 58.95 187.766 58.95C186.132 58.95 184.832 59.4667 183.866 60.5C182.899 61.5333 182.416 62.9833 182.416 64.85V80H173.866V52.1H182.416V55.8C183.282 54.5667 184.449 53.6 185.916 52.9C187.382 52.1667 189.032 51.8 190.866 51.8ZM205.857 66C205.857 63.1333 206.39 60.6167 207.457 58.45C208.557 56.2833 210.04 54.6167 211.907 53.45C213.774 52.2833 215.857 51.7 218.157 51.7C220.124 51.7 221.84 52.1 223.307 52.9C224.807 53.7 225.957 54.75 226.757 56.05V52.1H235.307V80H226.757V76.05C225.924 77.35 224.757 78.4 223.257 79.2C221.79 80 220.074 80.4 218.107 80.4C215.84 80.4 213.774 79.8167 211.907 78.65C210.04 77.45 208.557 75.7667 207.457 73.6C206.39 71.4 205.857 68.8667 205.857 66ZM226.757 66.05C226.757 63.9167 226.157 62.2333 224.957 61C223.79 59.7667 222.357 59.15 220.657 59.15C218.957 59.15 217.507 59.7667 216.307 61C215.14 62.2 214.557 63.8667 214.557 66C214.557 68.1333 215.14 69.8333 216.307 71.1C217.507 72.3333 218.957 72.95 220.657 72.95C222.357 72.95 223.79 72.3333 224.957 71.1C226.157 69.8667 226.757 68.1833 226.757 66.05ZM257.043 72.75V80H252.693C249.593 80 247.176 79.25 245.443 77.75C243.709 76.2167 242.843 73.7333 242.843 70.3V59.2H239.443V52.1H242.843V45.3H251.393V52.1H256.993V59.2H251.393V70.4C251.393 71.2333 251.593 71.8333 251.993 72.2C252.393 72.5667 253.059 72.75 253.993 72.75H257.043ZM278.955 51.8C282.155 51.8 284.722 52.8667 286.655 55C288.588 57.1 289.555 60 289.555 63.7V80H281.055V64.85C281.055 62.9833 280.572 61.5333 279.605 60.5C278.638 59.4667 277.338 58.95 275.705 58.95C274.072 58.95 272.772 59.4667 271.805 60.5C270.838 61.5333 270.355 62.9833 270.355 64.85V80H261.805V43H270.355V55.85C271.222 54.6167 272.405 53.6333 273.905 52.9C275.405 52.1667 277.088 51.8 278.955 51.8ZM332.842 56.2C332.842 58.2333 332.376 60.1 331.442 61.8C330.509 63.4667 329.076 64.8167 327.142 65.85C325.209 66.8833 322.809 67.4 319.942 67.4H314.642V80H306.092V44.9H319.942C322.742 44.9 325.109 45.3833 327.042 46.35C328.976 47.3167 330.426 48.65 331.392 50.35C332.359 52.05 332.842 54 332.842 56.2ZM319.292 60.6C320.926 60.6 322.142 60.2167 322.942 59.45C323.742 58.6833 324.142 57.6 324.142 56.2C324.142 54.8 323.742 53.7167 322.942 52.95C322.142 52.1833 320.926 51.8 319.292 51.8H314.642V60.6H319.292ZM360.593 56C359.96 54.8333 359.043 53.95 357.843 53.35C356.677 52.7167 355.293 52.4 353.693 52.4C350.927 52.4 348.71 53.3167 347.043 55.15C345.377 56.95 344.543 59.3667 344.543 62.4C344.543 65.6333 345.41 68.1667 347.143 70C348.91 71.8 351.327 72.7 354.393 72.7C356.493 72.7 358.26 72.1667 359.693 71.1C361.16 70.0333 362.227 68.5 362.893 66.5H352.043V60.2H370.643V68.15C370.01 70.2833 368.927 72.2667 367.393 74.1C365.893 75.9333 363.977 77.4167 361.643 78.55C359.31 79.6833 356.677 80.25 353.743 80.25C350.277 80.25 347.177 79.5 344.443 78C341.743 76.4667 339.627 74.35 338.093 71.65C336.593 68.95 335.843 65.8667 335.843 62.4C335.843 58.9333 336.593 55.85 338.093 53.15C339.627 50.4167 341.743 48.3 344.443 46.8C347.143 45.2667 350.227 44.5 353.693 44.5C357.893 44.5 361.427 45.5167 364.293 47.55C367.193 49.5833 369.11 52.4 370.043 56H360.593Z" fill="black"/>
</svg>
