<svg width="35" height="35" viewBox="0 0 35 35" fill="none" xmlns="http://www.w3.org/2000/svg">
<g clip-path="url(#clip0_387_797)">
<path d="M28.5742 3.07619C28.6616 3.119 28.6616 3.119 28.7508 3.16267C29.9467 3.75291 31.0321 4.48509 32.0605 5.33205C32.1145 5.37628 32.1685 5.42052 32.2242 5.46609C32.4967 5.69644 32.7351 5.94304 32.9649 6.21591C33.0451 6.30971 33.1279 6.40131 33.2133 6.49042C34.4926 7.83897 35.0663 9.52194 35.0242 11.3557C34.9758 12.4415 34.6357 13.3331 33.8378 14.082C33.0448 14.6922 32.1705 14.7292 31.2087 14.7269C31.0939 14.7272 30.9791 14.7276 30.8642 14.728C30.6247 14.7286 30.3851 14.7285 30.1455 14.7278C29.8408 14.727 29.5362 14.7284 29.2315 14.7304C28.9947 14.7316 28.7579 14.7316 28.5211 14.7312C28.4088 14.7312 28.2966 14.7316 28.1844 14.7325C27.1495 14.7392 26.2594 14.5891 25.4724 13.8641C24.8637 13.2394 24.5848 12.4995 24.5888 11.631C24.6335 11.1633 24.7648 10.7077 24.8828 10.2539C24.8471 10.2425 24.8114 10.2311 24.7746 10.2193C24.4173 10.1027 24.0671 9.97286 23.717 9.83634C22.2951 9.28562 20.8563 8.89455 19.3457 8.68165C19.2606 8.66964 19.1755 8.65762 19.0878 8.64524C18.7957 8.60933 18.5067 8.60115 18.2126 8.59941C18.1309 8.59869 18.1309 8.59869 18.0474 8.59795C16.3624 8.58601 16.3624 8.58601 14.6972 8.81837C14.6287 8.83232 14.5602 8.84626 14.4896 8.86063C12.9885 9.16992 11.5866 9.63742 10.1855 10.2539C10.2226 10.5277 10.2653 10.7964 10.3265 11.0657C10.4974 11.9252 10.3314 12.7345 9.8437 13.4668C9.39682 14.1052 8.74692 14.4537 7.998 14.6289C7.57937 14.6777 7.15625 14.6675 6.73548 14.6652C6.61448 14.6654 6.49347 14.6657 6.37247 14.666C6.12012 14.6664 5.86781 14.6659 5.61546 14.6646C5.29416 14.663 4.97291 14.6639 4.65161 14.6655C4.40211 14.6665 4.15263 14.6662 3.90313 14.6655C3.78475 14.6653 3.66637 14.6655 3.54799 14.6662C2.61816 14.6701 1.81698 14.5924 1.0937 13.9453C1.00487 13.8671 1.00487 13.8671 0.914256 13.7872C0.0314208 12.7882 -0.0532839 11.5962 -0.0129015 10.3169C0.0174028 9.84592 0.132921 9.4039 0.273387 8.95509C0.292332 8.89332 0.311278 8.83155 0.330798 8.7679C0.925374 7.09378 2.30509 5.75547 3.69136 4.71681C3.75463 4.66834 3.8179 4.61988 3.88308 4.56994C4.38775 4.19107 4.92005 3.86481 5.4687 3.5547C5.54612 3.51093 5.54612 3.51093 5.62511 3.46628C8.14495 2.05923 10.9607 1.23435 13.8085 0.820326C13.877 0.810005 13.9455 0.799684 14.0161 0.789051C18.9069 0.0813139 24.1509 0.889261 28.5742 3.07619ZM7.51948 4.92189C7.43142 4.96481 7.43142 4.96481 7.34157 5.00861C6.12207 5.60661 5.04217 6.33786 4.03315 7.24611C3.95028 7.32039 3.95028 7.32039 3.86573 7.39618C2.8961 8.31334 2.14028 9.54963 2.09346 10.9076C2.10885 11.3457 2.14407 11.8688 2.4219 12.2249C2.72813 12.4892 2.99395 12.5185 3.38397 12.5208C3.42879 12.5211 3.47361 12.5215 3.51979 12.5218C3.66795 12.5228 3.8161 12.5233 3.96426 12.5237C4.06737 12.5241 4.17047 12.5245 4.27358 12.5248C4.48976 12.5256 4.70594 12.526 4.92212 12.5262C5.19881 12.5266 5.47547 12.5282 5.75215 12.5302C5.96515 12.5314 6.17814 12.5318 6.39114 12.5319C6.49313 12.5321 6.59512 12.5327 6.6971 12.5336C6.83994 12.5347 6.98273 12.5346 7.12558 12.5341C7.20678 12.5344 7.28798 12.5346 7.37164 12.5349C7.68899 12.498 7.86256 12.37 8.08772 12.1509C8.25423 11.8795 8.23619 11.6432 8.17168 11.3338C8.12924 11.1695 8.0837 11.0065 8.03645 10.8435C7.69059 9.6422 7.69059 9.6422 7.91415 9.14842C8.89729 7.6831 12.3561 7.08336 13.9479 6.75663C14.3106 6.68574 14.6742 6.6218 15.039 6.56251C15.1226 6.5489 15.1226 6.5489 15.2079 6.53501C18.8898 5.96954 23.6633 6.7918 26.7968 8.88673C27.0645 9.10606 27.1722 9.33192 27.2088 9.67824C27.2051 10.0176 27.0979 10.3396 27.0062 10.6641C26.7564 11.4178 26.7564 11.4178 26.8668 12.172C27.1257 12.4453 27.1257 12.4453 27.4789 12.5198C27.5662 12.5205 27.6536 12.5212 27.7435 12.5219C27.8157 12.5226 27.8157 12.5226 27.8894 12.5232C28.049 12.5246 28.2087 12.5254 28.3683 12.5261C28.4228 12.5263 28.4773 12.5266 28.5334 12.5269C28.8219 12.5283 29.1104 12.5293 29.3989 12.53C29.6969 12.5307 29.9947 12.5331 30.2926 12.5358C30.5218 12.5376 30.7509 12.5381 30.98 12.5384C31.0898 12.5387 31.1996 12.5395 31.3094 12.5408C31.4633 12.5424 31.617 12.5424 31.7709 12.5419C31.9021 12.5425 31.9021 12.5425 32.0359 12.5431C32.3049 12.5041 32.4161 12.4253 32.6074 12.2363C32.9994 11.5545 32.9404 10.6839 32.7553 9.95058C32.4939 9.15045 32.0776 8.48429 31.5136 7.86134C31.4644 7.80318 31.4151 7.74502 31.3644 7.6851C30.7069 6.92104 29.8916 6.35734 29.0527 5.81056C29.0089 5.78192 28.965 5.75328 28.9199 5.72378C26.1622 3.9496 22.718 3.08766 19.4824 2.80275C19.3985 2.79508 19.3146 2.78742 19.2282 2.77952C15.2794 2.47672 11.0811 3.15486 7.51948 4.92189Z" fill="white"/>
<path d="M15.5475 13.1464C15.8257 13.4381 15.8768 13.6822 15.8728 14.0791C15.8724 14.1476 15.8721 14.2162 15.8717 14.2868C15.8705 14.3729 15.8692 14.459 15.868 14.5477C15.8651 14.8227 15.8623 15.0976 15.8594 15.3809C16.9422 15.3809 18.025 15.3809 19.1407 15.3809C19.1326 14.8369 19.1326 14.8369 19.1222 14.2929C19.1185 13.8061 19.144 13.4753 19.491 13.1079C19.8336 12.8994 20.1526 12.836 20.5506 12.8772C20.8643 13.0282 21.0782 13.2377 21.2598 13.5352C21.3602 13.9105 21.3358 14.303 21.3324 14.6887C21.3321 14.7553 21.3318 14.822 21.3315 14.8906C21.3307 15.054 21.3296 15.2174 21.3282 15.3809C21.3981 15.3794 21.4681 15.378 21.5402 15.3765C21.8015 15.3715 22.0628 15.3684 22.3241 15.3658C22.4369 15.3645 22.5497 15.3626 22.6624 15.3602C22.8252 15.3569 22.9879 15.3554 23.1506 15.3542C23.2005 15.3527 23.2504 15.3513 23.3017 15.3499C23.7421 15.3497 24.0309 15.4916 24.3517 15.8017C24.3959 15.8546 24.44 15.9074 24.4855 15.9619C24.7247 16.2391 24.9724 16.5002 25.2332 16.7566C25.4533 16.9738 25.6696 17.1914 25.8698 17.4274C26.086 17.6818 26.3204 17.9148 26.5577 18.1494C26.8373 18.4262 27.1092 18.7042 27.3633 19.005C27.4496 19.1048 27.5389 19.202 27.6298 19.2976C30.2524 22.0671 31.3779 25.7347 31.3933 29.4837C31.3936 29.5419 31.3938 29.6001 31.3941 29.66C31.3955 29.9668 31.3965 30.2736 31.3972 30.5805C31.3979 30.8961 31.4003 31.2116 31.403 31.5272C31.4048 31.7715 31.4054 32.0158 31.4056 32.2601C31.4059 32.3765 31.4067 32.4929 31.408 32.6093C31.4097 32.7718 31.4096 32.9343 31.4091 33.0969C31.41 33.1442 31.4109 33.1916 31.4118 33.2404C31.4081 33.5828 31.3292 33.8542 31.1036 34.1113C30.8035 34.3443 30.6107 34.419 30.232 34.4192C30.1871 34.4196 30.1422 34.42 30.0959 34.4204C29.9456 34.4214 29.7954 34.4204 29.6451 34.4195C29.5362 34.4198 29.4273 34.4202 29.3184 34.4208C29.0193 34.4219 28.7201 34.4214 28.421 34.4205C28.0983 34.4199 27.7757 34.4208 27.4531 34.4216C26.821 34.4228 26.189 34.4226 25.557 34.4218C25.0434 34.4211 24.5298 34.4211 24.0162 34.4214C23.9431 34.4214 23.8701 34.4214 23.7948 34.4215C23.6464 34.4216 23.498 34.4217 23.3496 34.4217C21.9575 34.4225 20.5654 34.4216 19.1733 34.4202C17.9784 34.4189 16.7836 34.4192 15.5887 34.4204C14.2016 34.4219 12.8146 34.4225 11.4275 34.4216C11.2796 34.4215 11.1318 34.4214 10.9839 34.4214C10.8747 34.4213 10.8747 34.4213 10.7634 34.4212C10.2503 34.421 9.73729 34.4214 9.22422 34.422C8.59909 34.4228 7.97397 34.4226 7.34884 34.4211C7.0298 34.4204 6.71078 34.4201 6.39174 34.421C6.09977 34.4219 5.80784 34.4214 5.51588 34.42C5.41017 34.4196 5.30446 34.4198 5.19876 34.4205C5.05517 34.4213 4.91168 34.4204 4.7681 34.4192C4.68832 34.4191 4.60854 34.4191 4.52634 34.419C4.22014 34.3713 4.00163 34.2315 3.79782 33.9985C3.63268 33.7021 3.58428 33.4443 3.58988 33.1044C3.58962 33.0539 3.58936 33.0034 3.58909 32.9513C3.58859 32.7851 3.59004 32.619 3.59158 32.4528C3.59174 32.3357 3.5918 32.2186 3.59177 32.1015C3.59198 31.8558 3.59311 31.6102 3.59495 31.3645C3.59725 31.0538 3.5978 30.743 3.59769 30.4323C3.59773 30.19 3.59849 29.9477 3.59947 29.7054C3.5999 29.5911 3.60017 29.4768 3.60028 29.3625C3.60228 28.2999 3.65721 27.2236 3.87944 26.1816C3.89105 26.1261 3.90267 26.0705 3.91463 26.0133C4.66943 22.536 6.66924 19.8918 9.15486 17.4391C9.28382 17.3082 9.4043 17.1742 9.52336 17.0343C9.84704 16.6558 10.2064 16.3105 10.5614 15.9615C10.6575 15.8659 10.7514 15.7681 10.8452 15.6701C11.1599 15.3715 11.4212 15.3618 11.8444 15.3675C11.8986 15.3677 11.9528 15.3679 12.0087 15.3681C12.1815 15.3689 12.3542 15.3706 12.5269 15.3723C12.6442 15.373 12.7615 15.3736 12.8788 15.3742C13.166 15.3757 13.4531 15.378 13.7403 15.3809C13.7378 15.3278 13.7353 15.2748 13.7327 15.2201C13.7227 14.9775 13.7165 14.7349 13.7104 14.4922C13.7044 14.367 13.7044 14.367 13.6982 14.2393C13.6904 13.8234 13.6898 13.5348 13.967 13.2088C14.4251 12.7578 15.0446 12.7587 15.5475 13.1464ZM11.0456 18.5112C10.7463 18.9292 10.3815 19.2949 10.0147 19.6533C9.73512 19.9298 9.46344 20.2077 9.2096 20.5083C9.12165 20.61 9.03048 20.709 8.93776 20.8063C7.88375 21.9181 7.13546 23.2654 6.56254 24.6777C6.51628 24.7873 6.51628 24.7873 6.46908 24.8991C5.5631 27.2034 5.74223 29.881 5.74223 32.2656C13.5024 32.2656 21.2625 32.2656 29.2579 32.2656C29.2579 26.665 28.5365 23.2056 24.6097 19.276C24.4977 19.1651 24.3857 19.0543 24.2735 18.9436C24.1416 18.8097 24.018 18.6724 23.8959 18.5297C23.8601 18.4891 23.8243 18.4485 23.7874 18.4067C23.6895 18.2946 23.5945 18.18 23.5013 18.064C23.1657 17.6803 22.9359 17.4569 22.4078 17.4018C22.219 17.3934 22.031 17.3943 21.842 17.3962C21.7374 17.3945 21.6328 17.3925 21.5281 17.3902C21.2459 17.3851 20.9638 17.3847 20.6815 17.3855C20.4447 17.3858 20.2079 17.3839 19.9712 17.382C19.4117 17.3776 18.8524 17.3773 18.293 17.3794C17.7186 17.3815 17.1447 17.3766 16.5704 17.3683C16.075 17.3613 15.5797 17.3589 15.0842 17.3601C14.7893 17.3607 14.4946 17.3597 14.1998 17.3541C12.8691 17.3313 11.8786 17.3267 11.0456 18.5112Z" fill="white"/>
<path d="M20.8795 20.7086C20.9848 20.7997 21.0888 20.8922 21.1914 20.9863C21.243 21.0317 21.2947 21.0771 21.3479 21.1239C22.3143 22.0222 22.9382 23.3352 22.9917 24.6548C23.0148 26.1636 22.718 27.5645 21.6699 28.7109C21.6152 28.7719 21.5605 28.8329 21.5041 28.8957C20.5008 29.9586 19.1456 30.5493 17.689 30.6247C16.1151 30.6264 14.7279 30.0926 13.6035 28.9844C13.5609 28.9468 13.5184 28.9091 13.4745 28.8704C12.8764 28.326 12.4972 27.5519 12.2363 26.7969C12.2144 26.7338 12.1926 26.6707 12.1701 26.6057C11.7604 25.1718 12.0037 23.62 12.7055 22.3282C12.9012 21.9859 13.1321 21.6867 13.3984 21.3965C13.4438 21.3449 13.4892 21.2932 13.5359 21.24C15.4128 19.2209 18.7235 19.0418 20.8795 20.7086ZM14.9023 22.9688C14.3711 23.6282 14.0894 24.4387 14.1245 25.2884C14.2458 26.2702 14.675 27.1279 15.4492 27.7539C16.1959 28.2803 16.9942 28.5379 17.9101 28.4375C18.703 28.288 19.4274 27.9661 19.9609 27.3438C19.9986 27.302 20.0363 27.2602 20.0752 27.2172C20.6332 26.5614 20.8787 25.7614 20.8683 24.909C20.7964 24.0196 20.4095 23.2105 19.7564 22.6013C18.2105 21.3502 16.262 21.5023 14.9023 22.9688Z" fill="white"/>
</g>
<defs>
<clipPath id="clip0_387_797">
<rect width="35" height="35" fill="white"/>
</clipPath>
</defs>
</svg>
