<svg width="25" height="25" viewBox="0 0 25 25" fill="none" xmlns="http://www.w3.org/2000/svg">
<g clip-path="url(#clip0_326_117)">
<path d="M11.9039 -0.00994045C11.9479 -0.0102829 11.9919 -0.0106254 12.0372 -0.0109783C12.1782 -0.0118278 12.3193 -0.012143 12.4603 -0.0122293C12.5085 -0.0122622 12.5567 -0.0122952 12.6064 -0.0123291C13.3139 -0.0115603 14.0011 0.0100852 14.6972 0.146462C14.7418 0.154582 14.7864 0.162701 14.8323 0.171067C16.5938 0.49516 18.2677 1.20866 19.7265 2.24607C19.7577 2.26801 19.7889 2.28994 19.821 2.31254C20.3518 2.68842 20.8243 3.11041 21.289 3.56443C21.3437 3.61707 21.3983 3.66972 21.4529 3.72236C21.7645 4.02546 22.0466 4.34484 22.3144 4.68748C22.3518 4.73324 22.3892 4.779 22.4277 4.82614C23.6892 6.40195 24.4935 8.32606 24.8535 10.3027C24.8615 10.3435 24.8695 10.3843 24.8777 10.4264C25.1361 11.7799 25.1171 13.3466 24.8535 14.6972C24.8456 14.741 24.8378 14.7848 24.8297 14.83C24.4813 16.7552 23.6632 18.5753 22.4609 20.1172C22.4281 20.1603 22.3952 20.2035 22.3614 20.248C21.7704 21.0092 21.0722 21.7227 20.3125 22.3144C20.2668 22.3518 20.2211 22.3891 20.174 22.4275C18.5984 23.6892 16.6738 24.4935 14.6972 24.8535C14.6564 24.8615 14.6156 24.8695 14.5736 24.8777C13.2256 25.1351 11.6472 25.1252 10.3027 24.8535C10.2576 24.8446 10.2126 24.8357 10.1661 24.8265C9.58214 24.7086 9.01031 24.5597 8.44724 24.3652C8.4107 24.3528 8.37415 24.3403 8.3365 24.3275C7.78037 24.1363 7.25711 23.909 6.73826 23.6328C6.67965 23.6021 6.62103 23.5714 6.5624 23.5407C6.33122 23.4182 6.10889 23.2967 5.89597 23.1445C5.68641 23.0144 5.507 23.0473 5.27342 23.0957C5.02689 23.1636 4.78461 23.2431 4.54195 23.3234C4.47072 23.3467 4.39948 23.3698 4.32822 23.393C4.14092 23.454 3.95379 23.5155 3.76668 23.5771C3.57999 23.6385 3.39316 23.6994 3.20633 23.7604C2.989 23.8313 2.77168 23.9023 2.55441 23.9734C2.14187 24.1084 1.72922 24.2431 1.31586 24.3755C1.27197 24.3897 1.22808 24.4038 1.18287 24.4184C0.890373 24.5117 0.890373 24.5117 0.781228 24.5117C0.889956 24.0871 1.02508 23.6734 1.1667 23.2588C1.18989 23.1905 1.21306 23.1222 1.23622 23.0539C1.2969 22.8751 1.35775 22.6964 1.41866 22.5177C1.4797 22.3385 1.54059 22.1592 1.60148 21.98C1.61335 21.9451 1.62521 21.9102 1.63744 21.8742C1.69589 21.7022 1.75428 21.5302 1.81256 21.3581C1.83477 21.2925 1.85699 21.227 1.87922 21.1614C1.88985 21.13 1.90049 21.0987 1.91144 21.0663C1.97437 20.881 2.03833 20.696 2.10309 20.5112C2.11737 20.47 2.13164 20.4288 2.14635 20.3863C2.17143 20.3139 2.19689 20.2417 2.22285 20.1696C2.27937 20.0051 2.3176 19.8898 2.24607 19.7265C2.19885 19.6388 2.19885 19.6388 2.13926 19.5534C2.10653 19.5042 2.10653 19.5042 2.07313 19.454C2.04964 19.4191 2.02614 19.3841 2.00193 19.3481C0.79787 17.5174 0.00157825 15.3098 -0.00994045 13.1008C-0.0102829 13.0568 -0.0106254 13.0127 -0.0109783 12.9673C-0.0118292 12.8258 -0.012143 12.6843 -0.0122293 12.5427C-0.0122622 12.4944 -0.0122952 12.446 -0.0123291 12.3962C-0.0115607 11.6877 0.0103794 10.9999 0.146462 10.3027C0.158252 10.237 0.158252 10.237 0.17028 10.17C0.518568 8.2452 1.33635 6.42393 2.53904 4.88279C2.57246 4.83905 2.60589 4.7953 2.64032 4.75023C2.89754 4.41996 3.17819 4.11143 3.46677 3.80857C3.49469 3.77926 3.5226 3.74994 3.55137 3.71974C3.94239 3.31208 4.34397 2.93878 4.79796 2.60239C4.882 2.53963 4.96465 2.47536 5.0472 2.41068C5.87157 1.77404 6.79855 1.26691 7.76365 0.878884C7.80577 0.861913 7.8479 0.844942 7.8913 0.827457C9.16232 0.323737 10.5317 -0.00274098 11.9039 -0.00994045Z" fill="#4CAF50"/>
<path d="M7.81554 5.69761C7.85245 5.69734 7.88936 5.69706 7.92739 5.69678C8.22776 5.70063 8.52252 5.71203 8.76332 5.90961C8.91617 6.08931 8.99931 6.26978 9.09098 6.48554C9.10957 6.52809 9.12816 6.57065 9.14731 6.61449C9.20759 6.75313 9.26694 6.89214 9.32616 7.03123C9.34626 7.07804 9.36637 7.12484 9.38709 7.17307C9.51171 7.46324 9.63442 7.75416 9.75568 8.04576C9.79741 8.1458 9.83941 8.24573 9.88166 8.34555C9.94383 8.49244 10.0052 8.63964 10.0664 8.78694C10.0853 8.83125 10.1042 8.87555 10.1237 8.9212C10.2381 9.19984 10.3219 9.44722 10.2053 9.74214C10.0378 10.0085 9.85169 10.2391 9.63801 10.4698C9.51527 10.6024 9.39508 10.7364 9.27733 10.8734C9.24107 10.9149 9.20482 10.9564 9.16747 10.9991C9.06293 11.1627 9.0413 11.2815 9.03319 11.4746C9.33726 12.6785 10.7665 13.9624 11.7313 14.6822C11.8124 14.7431 11.8923 14.8052 11.9722 14.8676C12.6391 15.377 13.6194 16.0382 14.4813 16.0368C14.7742 15.9843 14.9422 15.8357 15.1245 15.6097C15.1451 15.5844 15.1658 15.559 15.187 15.5329C15.3217 15.3651 15.4467 15.1917 15.5694 15.015C16.0682 14.2967 16.0682 14.2967 16.4398 14.2212C17.0964 14.2913 17.7571 14.7236 18.3397 15.0076C18.5079 15.0889 18.6768 15.1685 18.8459 15.2477C18.9009 15.2736 18.9559 15.2995 19.0126 15.3262C19.1178 15.3757 19.2232 15.4249 19.3287 15.4737C19.8457 15.7184 19.8457 15.7184 20.0195 15.9179C20.0613 16.059 20.0613 16.1898 20.0561 16.336C20.0549 16.3966 20.0549 16.3966 20.0536 16.4583C20.0217 17.151 19.817 17.8471 19.3359 18.3594C19.307 18.3904 19.278 18.4215 19.2482 18.4536C18.5506 19.1243 17.4869 19.5121 16.5331 19.5026C15.1932 19.4595 13.8479 18.9199 12.6465 18.3594C12.6119 18.3434 12.5774 18.3274 12.5418 18.311C11.6785 17.9082 10.8951 17.3965 10.1562 16.7969C10.1268 16.7731 10.0973 16.7494 10.067 16.7249C9.63521 16.3737 9.23844 15.9865 8.84398 15.5945C8.82022 15.571 8.79646 15.5475 8.77197 15.5232C8.48224 15.2359 8.21121 14.9394 7.9562 14.6205C7.87978 14.525 7.80214 14.4318 7.72151 14.3398C7.39039 13.9606 7.0971 13.562 6.81315 13.1465C6.73755 13.036 6.66114 12.9261 6.58473 12.8162C6.2666 12.3541 5.99335 11.8878 5.7617 11.3769C5.74642 11.3443 5.73113 11.3117 5.71538 11.2781C5.20475 10.1807 5.04152 8.96166 5.42487 7.79531C5.48266 7.65102 5.54635 7.51235 5.61522 7.37303C5.63511 7.32972 5.655 7.28642 5.67549 7.2418C5.94351 6.69946 6.38266 6.13175 6.93358 5.85935C6.96455 5.84305 6.99552 5.82675 7.02742 5.80995C7.28277 5.70059 7.54198 5.69956 7.81554 5.69761Z" fill="#F9F9F9"/>
</g>
<defs>
<clipPath id="clip0_326_117">
<rect width="25" height="25" fill="white"/>
</clipPath>
</defs>
</svg>
