<svg width="35" height="35" viewBox="0 0 35 35" fill="none" xmlns="http://www.w3.org/2000/svg">
<g clip-path="url(#clip0_387_782)">
<path d="M17.4787 -0.0213283C17.5779 -0.0211414 17.5779 -0.0211414 17.6791 -0.0209507C18.6589 -0.0178453 19.6122 0.016942 20.5762 0.205112C20.6682 0.221618 20.6682 0.221618 20.762 0.238457C24.0903 0.840703 27.1681 2.44327 29.5996 4.78519C29.6673 4.85001 29.6673 4.85001 29.7362 4.91613C30.3848 5.54124 30.9823 6.17681 31.5137 6.90433C31.5724 6.98302 31.631 7.0617 31.6897 7.14038C32.1024 7.70022 32.4704 8.28146 32.8125 8.88675C32.84 8.9351 32.8675 8.98344 32.8958 9.03325C33.7856 10.6137 34.3826 12.3329 34.748 14.1077C34.758 14.1563 34.7681 14.2048 34.7785 14.2549C34.9826 15.3242 35.0257 16.3931 35.0214 17.4787C35.0212 17.5779 35.0212 17.5779 35.021 17.6791C35.0179 18.6589 34.9831 19.6122 34.795 20.5762C34.784 20.6375 34.7729 20.6988 34.7616 20.762C34.1594 24.0903 32.5568 27.1681 30.2149 29.5996C30.1717 29.6447 30.1285 29.6898 30.0839 29.7362C29.4588 30.3848 28.8233 30.9823 28.0957 31.5137C28.0171 31.5724 27.9384 31.631 27.8597 31.6897C27.2998 32.1024 26.7186 32.4704 26.1133 32.8125C26.065 32.84 26.0166 32.8675 25.9668 32.8958C24.3864 33.7856 22.6672 34.3826 20.8924 34.748C20.8438 34.758 20.7952 34.7681 20.7452 34.7785C19.6759 34.9826 18.607 35.0257 17.5214 35.0214C17.4553 35.0213 17.3891 35.0212 17.321 35.021C16.3412 35.0179 15.3879 34.9831 14.4239 34.795C14.3625 34.784 14.3012 34.7729 14.238 34.7616C10.9098 34.1594 7.83196 32.5568 5.40042 30.2149C5.35535 30.1717 5.31028 30.1285 5.26384 30.0839C4.61523 29.4588 4.01777 28.8233 3.48636 28.0957C3.42771 28.0171 3.36905 27.9384 3.31039 27.8597C2.89767 27.2998 2.5297 26.7186 2.18753 26.1133C2.16004 26.065 2.13255 26.0166 2.10422 25.9668C1.21442 24.3864 0.617418 22.6672 0.252109 20.8924C0.236999 20.8195 0.236999 20.8195 0.221584 20.7452C0.0174355 19.6759 -0.0255877 18.607 -0.0213283 17.5214C-0.0212037 17.4553 -0.0210791 17.3891 -0.0209507 17.321C-0.0178453 16.3412 0.016942 15.3879 0.205112 14.4239C0.221618 14.3319 0.221618 14.3319 0.238457 14.238C0.840703 10.9098 2.44327 7.83196 4.78519 5.40042C4.8284 5.35535 4.87161 5.31028 4.91613 5.26384C5.54124 4.61523 6.17681 4.01777 6.90433 3.48636C6.98302 3.42771 7.0617 3.36905 7.14038 3.31039C7.70022 2.89767 8.28146 2.5297 8.88675 2.18753C8.9351 2.16004 8.98344 2.13255 9.03325 2.10422C10.6137 1.21442 12.3329 0.617418 14.1077 0.252109C14.1806 0.236999 14.1806 0.236999 14.2549 0.221584C15.3242 0.0174355 16.3931 -0.0255877 17.4787 -0.0213283ZM18.5254 2.25589C18.5254 4.53431 18.5254 6.81273 18.5254 9.16019C19.9408 9.16369 19.9408 9.16369 21.3495 9.10038C21.442 9.09422 21.5344 9.08809 21.6268 9.08198C22.3493 9.03316 23.0696 8.96804 23.7891 8.88675C23.2849 6.93235 22.2045 5.04844 20.7813 3.62308C20.7275 3.56854 20.6738 3.51399 20.6184 3.45779C20.2973 3.14991 19.9543 2.90218 19.5764 2.67032C19.5348 2.64449 19.4931 2.61865 19.4502 2.59203C19.4092 2.5679 19.3682 2.54378 19.326 2.51892C19.2902 2.49777 19.2545 2.47663 19.2177 2.45485C18.997 2.36035 18.7583 2.31412 18.5254 2.25589ZM14.1504 3.69144C14.1101 3.72748 14.0697 3.76352 14.0281 3.80066C12.7116 5.02048 11.7537 6.99929 11.211 8.68167C11.211 8.72679 11.211 8.77191 11.211 8.81839C12.2818 8.97301 13.3558 9.0831 14.4367 9.13456C14.5204 9.13866 14.5204 9.13866 14.6059 9.14285C15.2069 9.16809 15.8032 9.16019 16.4063 9.16019C16.4063 6.88177 16.4063 4.60335 16.4063 2.25589C15.5883 2.25589 14.693 3.17263 14.1504 3.69144ZM8.20316 5.19535C8.14738 5.23791 8.0916 5.28047 8.03413 5.32432C7.17785 5.99333 6.25641 6.78092 5.6055 7.65628C5.6055 7.7014 5.6055 7.74652 5.6055 7.793C6.73459 8.1093 7.86815 8.34611 9.02347 8.54496C9.1747 8.21574 9.31659 7.88443 9.44671 7.54627C9.95428 6.22758 10.5549 4.99887 11.3477 3.82816C11.4289 3.70569 11.5101 3.58322 11.5912 3.46073C11.6467 3.37807 11.7022 3.29544 11.7578 3.21292C10.652 3.21292 9.05969 4.53925 8.20316 5.19535ZM23.2422 3.21292C23.2639 3.24465 23.2856 3.27637 23.3079 3.30906C23.4242 3.48118 23.5385 3.65447 23.6524 3.82816C23.6892 3.88427 23.6892 3.88427 23.7268 3.94151C24.5138 5.14857 25.1332 6.3987 25.635 7.74904C25.7443 8.03895 25.8603 8.32617 25.9766 8.61332C27.8451 8.43758 27.8451 8.43758 29.4629 7.793C28.7029 6.79647 27.8056 5.9359 26.7969 5.19535C26.7197 5.1374 26.6426 5.07946 26.5654 5.02151C25.0143 3.81695 25.0143 3.81695 23.2422 3.21292ZM4.23832 9.57035C3.32588 11.235 2.65186 12.9246 2.30289 14.7956C2.29199 14.8537 2.28108 14.9119 2.26985 14.9718C2.18207 15.4764 2.1562 15.9563 2.11917 16.4746C3.96898 16.4746 5.81878 16.4746 7.72464 16.4746C7.76636 16.1826 7.80284 15.9094 7.81997 15.6177C7.92753 13.9266 8.15162 12.2587 8.4766 10.5957C7.91352 10.4514 7.3485 10.3214 6.78043 10.1984C5.92683 10.0115 5.0817 9.79866 4.23832 9.57035ZM30.189 9.81468C30.099 9.83788 30.0091 9.86105 29.9192 9.88421C29.8719 9.89645 29.8246 9.90869 29.7759 9.9213C28.9195 10.1427 28.0654 10.3387 27.1933 10.4899C27.0904 10.5082 27.0904 10.5082 26.9854 10.5268C26.8957 10.542 26.8957 10.542 26.8042 10.5575C26.6466 10.5865 26.6466 10.5865 26.5235 10.7325C26.5334 10.9005 26.5334 10.9005 26.5777 11.0943C26.5925 11.169 26.6073 11.2437 26.6226 11.3207C26.6392 11.4015 26.6559 11.4823 26.673 11.5656C26.9203 12.8349 27.0779 14.0934 27.1629 15.3838C27.1678 15.4577 27.1727 15.5315 27.1777 15.6076C27.1818 15.6728 27.1858 15.7379 27.19 15.8051C27.208 16.0067 27.2421 16.2066 27.2754 16.4063C29.1252 16.4063 30.975 16.4063 32.8809 16.4063C32.7857 15.3341 32.7857 15.3341 32.6032 14.2829C32.5888 14.2189 32.5745 14.1549 32.5597 14.089C32.1966 12.5468 31.6294 11.0752 30.8301 9.70707C30.5978 9.70707 30.4139 9.75582 30.189 9.81468ZM10.5957 10.8692C10.0887 12.679 9.93289 14.5351 9.84378 16.4063C12.0094 16.4063 14.175 16.4063 16.4063 16.4063C16.4063 14.7144 16.4063 13.0225 16.4063 11.2793C15.9918 11.261 15.5773 11.2427 15.1502 11.2238C13.6268 11.1526 12.1129 11.0231 10.5957 10.8692ZM23.702 10.9709C23.6147 10.9797 23.5273 10.9885 23.4373 10.9975C23.3903 11.0024 23.3434 11.0072 23.295 11.0122C21.731 11.1722 20.1646 11.2196 18.5938 11.2793C18.5938 12.9712 18.5938 14.6631 18.5938 16.4063C20.7594 16.4063 22.925 16.4063 25.1563 16.4063C25.0376 14.567 24.8608 12.7978 24.4727 11.0059C24.2019 10.9378 23.9789 10.9411 23.702 10.9709ZM2.11917 18.5254C2.17894 19.3718 2.17894 19.3718 2.30289 20.2045C2.3207 20.3 2.3207 20.3 2.33887 20.3974C2.65373 22.016 3.17752 23.7726 4.1016 25.1563C4.30696 25.259 4.4384 25.1844 4.65808 25.1261C4.74682 25.103 4.83557 25.08 4.92431 25.0569C4.97129 25.0446 5.01827 25.0322 5.06667 25.0194C5.90225 24.7998 6.73998 24.6042 7.58792 24.4385C7.63311 24.4297 7.6783 24.4208 7.72485 24.4117C7.97529 24.3629 8.22587 24.3149 8.4766 24.2676C8.46268 24.1899 8.46268 24.1899 8.44847 24.1106C8.17679 22.5857 7.94342 21.0703 7.83715 19.5235C7.82983 19.4174 7.82983 19.4174 7.82238 19.3092C7.81831 19.2468 7.81425 19.1845 7.81006 19.1203C7.79164 18.9209 7.75758 18.723 7.72464 18.5254C5.87484 18.5254 4.02503 18.5254 2.11917 18.5254ZM9.84378 18.5938C9.8945 19.7026 9.8945 19.7026 10.0019 20.8026C10.0149 20.9084 10.0149 20.9084 10.0283 21.0163C10.109 22.5573 10.109 22.5573 10.5957 23.9258C11.1272 23.9482 11.6537 23.8927 12.1825 23.846C13.612 23.7202 15.041 23.6499 16.4746 23.584C16.4746 21.9372 16.4746 20.2905 16.4746 18.5938C14.2865 18.5938 12.0983 18.5938 9.84378 18.5938ZM18.5938 18.5938C18.5938 20.2406 18.5938 21.8873 18.5938 23.584C19.0352 23.6241 19.4711 23.6628 19.9129 23.6818C20.018 23.6867 20.1231 23.6916 20.2281 23.6966C20.3092 23.7004 20.3092 23.7004 20.3919 23.7043C21.5561 23.7594 22.7118 23.8505 23.8704 23.9775C24.0496 23.9931 24.2246 23.9973 24.4043 23.9942C24.8983 22.2313 25.0652 20.4163 25.1563 18.5938C22.9907 18.5938 20.825 18.5938 18.5938 18.5938ZM27.2754 18.5938C27.2272 18.8351 27.1948 19.0436 27.1801 19.2857C27.0779 20.8323 26.9026 22.368 26.5737 23.8839C26.5167 24.1224 26.5167 24.1224 26.5235 24.336C26.5846 24.348 26.6457 24.36 26.7086 24.3723C27.8468 24.5972 28.9758 24.8308 30.0928 25.1471C30.1943 25.1758 30.1943 25.1758 30.2979 25.2051C30.3565 25.2222 30.4151 25.2392 30.4755 25.2567C30.6326 25.3011 30.6326 25.3011 30.8301 25.293C31.7231 23.6801 32.3601 22.0162 32.6972 20.2002C32.7081 20.1415 32.719 20.0828 32.7302 20.0223C32.8133 19.543 32.8431 19.0846 32.8809 18.5938C31.0311 18.5938 29.1813 18.5938 27.2754 18.5938ZM18.5938 25.7032C18.5938 27.9816 18.5938 30.26 18.5938 32.6075C19.671 32.2484 20.5485 31.6505 21.2598 30.7618C21.3166 30.6937 21.3735 30.6257 21.432 30.5556C22.3109 29.4889 23.7891 27.4618 23.7891 26.045C22.6296 25.9126 21.4726 25.8165 20.307 25.7587C20.2199 25.7543 20.2199 25.7543 20.131 25.7499C19.9641 25.7416 19.7971 25.7337 19.6301 25.7259C19.5561 25.7223 19.5561 25.7223 19.4806 25.7188C19.1841 25.7056 18.891 25.7032 18.5938 25.7032ZM12.4713 25.8741C12.4163 25.8785 12.3612 25.883 12.3045 25.8877C12.1478 25.9006 11.9911 25.9139 11.8345 25.9275C11.7872 25.9314 11.7399 25.9353 11.6912 25.9393C11.4429 25.96 11.4429 25.96 11.211 26.045C11.7139 28.1302 12.9891 30.0255 14.4922 31.5137C14.5267 31.548 14.5611 31.5823 14.5966 31.6176C14.8567 31.856 15.1449 32.0378 15.4493 32.2144C15.489 32.2377 15.5287 32.2611 15.5697 32.2851C15.8535 32.4453 16.0809 32.5145 16.4063 32.6075C16.4063 30.329 16.4063 28.0506 16.4063 25.7032C15.0896 25.7032 13.783 25.7654 12.4713 25.8741ZM8.37139 26.3894C8.28283 26.4064 8.19428 26.4234 8.10304 26.4409C8.00823 26.4598 7.91343 26.4788 7.81864 26.4978C7.77113 26.5072 7.72362 26.5165 7.67467 26.5261C6.929 26.6727 6.19495 26.8452 5.46878 27.0703C5.75975 27.5274 6.12243 27.9091 6.49417 28.3008C6.58459 28.3968 6.58459 28.3968 6.67682 28.4947C7.14964 28.9829 7.65933 29.3989 8.20316 29.8047C8.24184 29.8339 8.28053 29.8631 8.32038 29.8931C9.17093 30.5315 10.0744 31.0637 11.0315 31.5265C11.0872 31.5538 11.1429 31.5811 11.2003 31.6092C11.2523 31.6336 11.3043 31.6581 11.3578 31.6833C11.4038 31.7051 11.4497 31.7268 11.4971 31.7493C11.6351 31.8045 11.6351 31.8045 11.8262 31.7188C11.784 31.6616 11.7418 31.6044 11.6983 31.5455C10.6496 30.1112 9.80518 28.5308 9.26512 26.8337C9.24591 26.7756 9.22671 26.7174 9.20692 26.6575C9.18319 26.5812 9.18319 26.5812 9.15897 26.5033C9.10135 26.3779 9.10135 26.3779 8.97586 26.3312C8.76345 26.3139 8.58069 26.349 8.37139 26.3894ZM25.9082 26.3868C25.8867 26.4479 25.8867 26.4479 25.8648 26.5102C25.2035 28.3717 24.3825 30.1465 23.1739 31.7188C23.426 31.8028 23.4706 31.7646 23.7044 31.6534C23.7691 31.6227 23.8339 31.5921 23.9005 31.5605C23.9695 31.5267 24.0385 31.493 24.1095 31.4582C24.2155 31.4068 24.2155 31.4068 24.3236 31.3543C25.2045 30.9198 26.0172 30.4019 26.7969 29.8047C26.8806 29.7409 26.8806 29.7409 26.9659 29.6757C27.8638 28.9742 28.82 28.1538 29.4629 27.2071C29.3047 27.0488 29.2189 27.0305 29.0044 26.9769C28.905 26.9519 28.905 26.9519 28.8036 26.9263C28.7321 26.909 28.6607 26.8917 28.5871 26.8738C28.4776 26.8469 28.4776 26.8469 28.3659 26.8194C27.875 26.7008 27.3826 26.5933 26.8866 26.4978C26.7979 26.4807 26.7979 26.4807 26.7074 26.4632C26.4357 26.4129 26.1855 26.3816 25.9082 26.3868Z" fill="white"/>
</g>
<defs>
<clipPath id="clip0_387_782">
<rect width="35" height="35" fill="white"/>
</clipPath>
</defs>
</svg>
